<?xml version="1.0" encoding="UTF-8"?>
<svg id="Layer_2" data-name="Layer 2" xmlns="http://www.w3.org/2000/svg" viewBox="0 0 276.26 391.93">
  <g id="Layer_1-2" data-name="Layer 1">
    <g>
      <path d="M138.13.26c.82,0,1.64-.06,2.45-.04s1.63.26,2.44.29,1.65-.31,2.47-.26,1.6.51,2.42.57,1.67-.33,2.49-.25,1.64.13,2.45.23,1.56.67,2.37.79,1.61.26,2.42.39,1.67-.05,2.47.09,1.62.24,2.42.4,1.62.28,2.42.45,1.55.56,2.35.75,1.55.53,2.35.73,1.63.24,2.42.46,1.6.36,2.38.59,1.58.45,2.35.7,1.49.71,2.27.96,1.67.19,2.44.46,1.46.78,2.23,1.06,1.52.62,2.28.91,1.53.6,2.28.9,1.52.61,2.27.93,1.66.3,2.4.63,1.35.99,2.09,1.33,1.5.66,2.23,1.01,1.48.71,2.21,1.07,1.5.67,2.22,1.04,1.36.93,2.07,1.32,1.54.61,2.25,1.01,1.32.99,2.02,1.41,1.56.59,2.25,1.01,1.37.92,2.05,1.36,1.32.98,1.99,1.43,1.51.71,2.17,1.17,1.19,1.16,1.85,1.64,1.29,1.02,1.93,1.51,1.18,1.16,1.8,1.67,1.33.96,1.94,1.48,1.45.85,2.04,1.38c.53.48,1.15.94,1.9,1.3.67.33,1.42.54,2.19.78s1.47.52,2.24.68,1.59.09,2.34.17c.84.09,1.61.26,2.31.26,1.25,0,1.25.04,2.5.04s1.25-.12,2.51-.12,1.25.03,2.51.03,1.25.37,2.51.37,1.26.02,2.51.02,1.26-.1,2.51-.1c.81,0,1.6-.01,2.31.28s1.23.93,1.79,1.49,1.32,1,1.63,1.73.08,1.56.08,2.37c0,1.21.06,1.21.06,2.42s.4,1.21.4,2.42-.17,1.21-.17,2.42-.37,1.21-.37,2.42.46,1.21.46,2.42-.35,1.21-.35,2.42.14,1.21.14,2.42.01,1.21.01,2.43-.04,1.21-.04,2.43c0,.71-.19,1.54-.11,2.39.07.75.27,1.55.39,2.35s.43,1.54.6,2.31.36,1.58.58,2.3c.25.81.67,1.51.97,2.15.35.74.43,1.62.79,2.39s.92,1.39,1.27,2.17.43,1.62.76,2.4.73,1.49,1.05,2.27.89,1.43,1.2,2.21.46,1.6.76,2.39.58,1.56.87,2.35.46,1.6.74,2.4.74,1.51,1,2.31.63,1.55.89,2.35.3,1.65.54,2.46.4,1.62.62,2.43.52,1.58.73,2.4.65,1.55.85,2.37.11,1.69.3,2.5.47,1.6.64,2.42.36,1.63.51,2.45.18,1.66.32,2.49.44,1.62.56,2.45.3,1.64.41,2.48-.03,1.68.06,2.52.13,1.66.2,2.5.07,1.67.12,2.5.06,1.66.1,2.5.05,1.66.07,2.5.37,1.66.37,2.5-.4,1.67-.42,2.51.34,1.69.31,2.52-.33,1.66-.37,2.5-.22,1.66-.28,2.49.09,1.69,0,2.52-.27,1.66-.37,2.48-.18,1.67-.29,2.49.14,1.72.02,2.54-.38,1.64-.52,2.46-.5,1.62-.66,2.43-.51,1.61-.68,2.42-.23,1.66-.42,2.47-.5,1.6-.7,2.41-.08,1.71-.29,2.51-.51,1.6-.74,2.4-.34,1.65-.58,2.45-.64,1.56-.9,2.35-.81,1.49-1.09,2.28-.25,1.69-.54,2.47-.81,1.48-1.12,2.26-.55,1.59-.87,2.35-.53,1.6-.86,2.36-.74,1.51-1.09,2.26-.92,1.42-1.28,2.17-.42,1.67-.8,2.4-1.11,1.31-1.51,2.03c-.34.63-.24,1.55-.5,2.36-.23.72-.6,1.44-.77,2.24s-.46,1.53-.57,2.31-.07,1.62-.13,2.38c-.07.85-.33,1.66-.33,2.37,0,1.26.45,1.26.45,2.51s-.05,1.25-.05,2.51,0,1.25,0,2.51-.23,1.25-.23,2.51.32,1.26.32,2.51-.18,1.26-.18,2.51-.03,1.25-.03,2.51-.28,1.26-.28,2.51.21,1.26.21,2.51.25,1.26.25,2.51,0,1.26,0,2.51-.08,1.26-.08,2.51-.17,1.26-.17,2.52-.06,1.26-.06,2.51.07,1.26.07,2.51-.17,1.26-.17,2.52.09,1.26.09,2.51.15,1.26.15,2.51-.08,1.26-.08,2.52.14,1.26.14,2.52-.2,1.26-.2,2.52-.09,1.26-.09,2.52.02,1.26.02,2.52c0,.81.15,1.65-.15,2.36s-.86,1.37-1.41,1.92-1.23,1.02-1.96,1.32-1.51.47-2.32.47c-1.24,0-1.24-.06-2.48-.06s-1.24.23-2.48.23-1.24-.43-2.48-.43-1.24.05-2.48.05-1.24.26-2.48.26-1.24-.09-2.48-.09-1.24.23-2.48.23-1.24-.49-2.48-.49-1.24.23-2.48.23-1.24.08-2.48.08-1.24-.02-2.48-.02-1.24-.04-2.48-.04-1.24.19-2.48.19-1.24.04-2.48.04-1.24.01-2.48.01-1.24-.05-2.48-.05-1.24-.13-2.47-.13-1.24.18-2.47.18-1.24-.09-2.47-.09-1.24,0-2.48,0-1.24-.35-2.48-.35-1.24.33-2.48.33-1.24-.26-2.48-.26-1.24.34-2.48.34-1.24-.35-2.48-.35-1.24.3-2.47.3-1.24-.33-2.47-.33-1.24.42-2.47.42-1.24-.11-2.47-.11-1.24-.38-2.47-.38-1.24.28-2.47.28-1.24-.13-2.47-.13-1.24.36-2.48.36-1.24-.16-2.48-.16-1.24-.22-2.48-.22-1.24.09-2.48.09-1.24.23-2.48.23-1.24-.09-2.48-.09-1.24-.09-2.48-.09-1.24-.22-2.47-.22-1.24.25-2.48.25-1.24-.09-2.48-.09-1.24-.08-2.48-.08-1.24-.06-2.48-.06-1.24.24-2.48.24-1.24.04-2.48.04-1.24-.36-2.48-.36-1.24.47-2.48.47-1.24-.3-2.48-.3-1.24.1-2.48.1-1.24-.25-2.48-.25-1.24.49-2.48.49-1.24-.07-2.48-.07-1.24.07-2.48.07-1.24-.44-2.48-.44-1.24.1-2.48.1-1.24.3-2.48.3-1.24.04-2.48.04-1.24-.5-2.48-.5-1.24.26-2.48.26-1.24-.23-2.48-.23-1.24.48-2.48.48-1.24-.15-2.48-.15-1.24,0-2.48,0-1.24-.36-2.48-.36-1.24.06-2.48.06-1.24.26-2.48.26-1.24-.02-2.48-.02-1.24-.23-2.48-.23-1.24.43-2.48.43-1.24-.24-2.48-.24-1.24-.09-2.48-.09-1.24.29-2.48.29-1.24-.06-2.48-.06-1.24-.4-2.48-.4-1.24.46-2.48.46-1.24.01-2.48.01-1.24-.22-2.48-.22-1.24-.19-2.48-.19-1.24.11-2.48.11-1.24.17-2.48.17-1.24.12-2.48.12-1.24-.38-2.48-.38-1.24.12-2.48.12-1.24-.24-2.48-.24-1.24.12-2.48.12-1.24.23-2.48.23-1.24-.05-2.48-.05-1.24-.11-2.49-.11-1.24-.04-2.49-.04-1.24.31-2.49.31-1.24-.49-2.49-.49c-.81,0-1.56.05-2.27-.24s-1.42-.68-1.98-1.24-.77-1.31-1.08-2.04-.45-1.39-.45-2.2c0-1.26-.31-1.26-.31-2.51s0-1.25,0-2.51.12-1.25.12-2.51.04-1.25.04-2.51-.27-1.26-.27-2.51.24-1.26.24-2.51-.21-1.25-.21-2.51-.06-1.26-.06-2.51.09-1.26.09-2.51.32-1.26.32-2.51-.3-1.26-.3-2.51.19-1.26.19-2.51.15-1.26.15-2.52-.42-1.26-.42-2.51.23-1.26.23-2.51-.1-1.26-.1-2.52-.08-1.26-.08-2.51.4-1.26.4-2.51-.43-1.26-.43-2.52.34-1.26.34-2.52-.09-1.26-.09-2.52-.08-1.26-.08-2.52.22-1.26.22-2.52c0-.71-.05-1.53-.13-2.38-.07-.76-.47-1.51-.59-2.32s-.07-1.6-.24-2.37-.27-1.61-.5-2.33c-.25-.81-.81-1.47-1.13-2.11-.37-.76-.73-1.52-1.09-2.26s-.56-1.6-.91-2.35-.87-1.45-1.21-2.21-.7-1.53-1.03-2.29-.83-1.48-1.15-2.24-.48-1.62-.8-2.39-.58-1.58-.88-2.35-.79-1.5-1.08-2.28-.6-1.57-.88-2.36-.51-1.6-.78-2.39-.2-1.69-.45-2.49-.79-1.51-1.02-2.32-.43-1.62-.64-2.43-.1-1.7-.29-2.51-.56-1.58-.74-2.4-.39-1.62-.55-2.45-.05-1.68-.19-2.51-.55-1.6-.67-2.43-.29-1.64-.39-2.48-.16-1.66-.24-2.5-.22-1.65-.29-2.49-.16-1.66-.21-2.5-.08-1.67-.12-2.51.16-1.67.13-2.52.11-1.67.1-2.51-.07-1.66-.07-2.51-.32-1.68-.3-2.51.28-1.67.31-2.5-.22-1.69-.17-2.52.32-1.66.38-2.49.04-1.68.12-2.51.5-1.63.6-2.46-.13-1.71-.02-2.53.31-1.65.43-2.48.43-1.63.57-2.45.28-1.65.44-2.47.38-1.63.55-2.45.24-1.66.42-2.47.09-1.7.29-2.51.74-1.54.96-2.35.18-1.69.4-2.49.73-1.54.97-2.33.41-1.63.67-2.42.41-1.63.68-2.42.64-1.56.93-2.33.74-1.52,1.04-2.29.24-1.72.55-2.48.77-1.51,1.1-2.26.77-1.5,1.12-2.24.87-1.45,1.24-2.18.48-1.65.87-2.37,1.09-1.32,1.5-2.03c.36-.62.3-1.52.56-2.33.24-.72.91-1.37,1.08-2.17s.13-1.6.24-2.38.23-1.61.28-2.37c.06-.86.24-1.67.24-2.38,0-1.21-.08-1.21-.08-2.42s-.33-1.21-.33-2.42.26-1.21.26-2.42.06-1.21.06-2.42-.1-1.21-.1-2.42-.26-1.21-.26-2.42.39-1.21.39-2.42-.43-1.21-.43-2.43.01-1.21.01-2.43c0-.81.33-1.61.63-2.32s.78-1.39,1.33-1.94,1.21-1.04,1.94-1.34,1.51-.27,2.32-.27c1.25,0,1.25.12,2.5.12s1.25-.02,2.51-.02,1.25-.28,2.51-.28,1.25.12,2.51.12,1.26-.3,2.51-.3,1.26.02,2.51.02c.7,0,1.49.07,2.33-.02.75-.08,1.52-.23,2.3-.39s1.49-.45,2.23-.68,1.67-.13,2.34-.46c.76-.37,1.34-.97,1.87-1.45.6-.54,1.2-1.1,1.83-1.64s1.33-.95,1.97-1.47,1.09-1.25,1.74-1.76,1.3-.99,1.96-1.49,1.34-.94,2.01-1.42,1.46-.75,2.14-1.22,1.23-1.1,1.92-1.55,1.36-.91,2.06-1.34,1.6-.51,2.31-.93,1.34-.93,2.06-1.34,1.21-1.17,1.93-1.57,1.66-.36,2.39-.75,1.32-.99,2.06-1.36,1.51-.62,2.25-.98,1.32-1.03,2.07-1.38,1.62-.4,2.37-.73,1.45-.75,2.21-1.07,1.55-.53,2.31-.83,1.59-.42,2.35-.72,1.54-.54,2.31-.82,1.38-1.01,2.15-1.28,1.7-.06,2.49-.31,1.51-.63,2.3-.87,1.55-.54,2.34-.76,1.56-.51,2.35-.72,1.61-.32,2.4-.52,1.52-.69,2.32-.87,1.65-.1,2.46-.27,1.6-.36,2.4-.52,1.66-.02,2.47-.16,1.54-.72,2.35-.84,1.68.18,2.49.07,1.61-.29,2.43-.38,1.59-.58,2.4-.66,1.64-.14,2.45-.2,1.67.37,2.49.32,1.61-.53,2.43-.56,1.64-.02,2.46-.04,1.64.26,2.46.26ZM26.02,262.16c0,.81.24,1.6.53,2.31s.61,1.56,1.16,2.11,1.44.7,2.17,1,1.43.85,2.24.85c1.22,0,1.22-.47,2.43-.47s1.21-.05,2.43-.05,1.22.47,2.43.47,1.22.03,2.43.03,1.22-.32,2.43-.32,1.22-.05,2.43-.05,1.22-.05,2.43-.05,1.22.22,2.44.22,1.22.15,2.43.15,1.22-.17,2.44-.17,1.22-.07,2.44-.07,1.22,0,2.44,0,1.22.23,2.44.23,1.22-.34,2.44-.34,1.22.26,2.44.26,1.22.06,2.43.06,1.22,0,2.44,0,1.22,0,2.44,0,1.22-.38,2.44-.38,1.22.35,2.44.35,1.22-.04,2.44-.04,1.22,0,2.44,0c1.65,0,2.56-.4,2.69-.92s-.42-1.41-1.87-2.19c-.73-.31-1.57-.44-2.33-.77s-1.38-.84-2.13-1.18-1.58-.41-2.33-.77-1.42-.75-2.16-1.13-1.39-.82-2.12-1.2-1.55-.52-2.28-.92-1.29-1-2.01-1.41-1.38-.84-2.09-1.26-1.28-.99-1.99-1.42-1.42-.76-2.12-1.21-1.53-.62-2.21-1.07-1.32-.95-1.99-1.41-1.37-.87-2.04-1.34-1.26-1.03-1.92-1.52-1.42-.82-2.07-1.32c-.66-.5-1.23-1.1-1.87-1.6s-1.26-1.06-1.89-1.57-1.35-.96-1.96-1.49-1.23-1.1-1.84-1.63-.98-1.37-1.58-1.92-1.2-1.12-1.79-1.68-1.26-1.06-1.84-1.62-1.3-1.03-1.87-1.6-.98-1.35-1.54-1.93-1.43-.93-1.97-1.52-.83-1.48-1.36-2.07-1.14-1.19-1.67-1.8-1.38-.99-1.89-1.6-.94-1.4-1.44-2.02c-.46-1.17-1.81-2.04-2.97-1.57-.76.31-.94,1.58-.94,3.23,0,1.24-.35,1.24-.35,2.49s.14,1.24.14,2.49.01,1.24.01,2.49-.04,1.24-.04,2.49-.23,1.25-.23,2.49.1,1.24.1,2.49.16,1.25.16,2.49-.02,1.25-.02,2.49.14,1.24.14,2.49-.3,1.24-.3,2.49.26,1.25.26,2.49-.26,1.25-.26,2.49.09,1.25.09,2.49.32,1.25.28,2.5-.28,1.24-.28,2.49ZM151.53,205.69c-.38-.6-.91-1.2-1.45-1.84-.48-.58-.86-1.31-1.43-1.88s-1.39-.8-1.99-1.29-1.02-1.31-1.65-1.71c-.7-.45-1.62-.41-2.28-.66-.63-.24-1.34-.37-2.17-.5-.71-.11-1.43-.65-2.22-.68-.75-.03-1.54-.05-2.3,0s-1.51.45-2.24.58c-.79.14-1.51.36-2.18.59s-1.33.62-2.03,1.07c-.63.4-1.38.7-1.99,1.23s-1.27.95-1.81,1.51-.95,1.29-1.42,1.88c-.52.66-.92,1.35-1.3,1.95-.67,1.08-.66,1.08-1.33,2.16s-.86.96-1.53,2.04-.38,1.26-1.04,2.34-.89.94-1.55,2.02-.72,1.05-1.39,2.12-.68,1.08-1.34,2.16-.66,1.08-1.33,2.16-.35,1.28-1.02,2.36-.97.89-1.64,1.97-.64,1.1-1.31,2.18-.66,1.08-1.33,2.16-.6,1.12-1.27,2.2-.83.98-1.5,2.06-.49,1.19-1.16,2.27-.84.97-1.51,2.05-.42,1.24-1.09,2.32-.72,1.05-1.39,2.13-.76,1.03-1.43,2.11-.45,1.22-1.12,2.3-.89.95-1.56,2.03c-.47.76-1,1.51-1.48,2.25-.52.81-1.19,1.47-1.64,2.15-.68,1.01-1.14,1.85-1.46,2.24-.45.55-.27,1.77.5,2.82.47.65,1.17,1.25,2.38,1.62,1.17.42.83.29,2.33.84.65.24,1.39.61,2.29.91.71.24,1.55.31,2.41.57.74.23,1.49.58,2.34.82.76.22,1.54.47,2.38.69.77.2,1.59.29,2.43.49.78.19,1.57.4,2.4.58.78.17,1.52.71,2.34.87s1.6.33,2.43.48,1.63.18,2.46.32,1.64.07,2.48.19,1.59.46,2.42.56,1.67-.21,2.5-.12,1.6.54,2.43.61,1.65.06,2.48.11,1.66-.31,2.49-.28,1.64.23,2.47.25,1.65.4,2.48.4,1.66-.47,2.47-.49,1.67.31,2.49.27,1.65-.21,2.47-.26,1.66-.12,2.47-.18,1.66-.1,2.47-.18,1.68.05,2.49-.04,1.64-.3,2.45-.42,1.63-.4,2.43-.52,1.65-.25,2.45-.39,1.61-.44,2.4-.6c.83-.16,1.7-.04,2.49-.21.83-.18,1.58-.62,2.36-.81.83-.2,1.7-.15,2.46-.35.84-.22,1.61-.52,2.37-.74.84-.24,1.55-.75,2.29-.97.86-.27,1.69-.36,2.4-.6.9-.3,1.68-.57,2.33-.81,1.5-.55,1.17-.38,2.33-.8,1.05-.32,1.85-.87,2.51-1.25,1.33-.75,1.71-1.27.92-1.76-.4-.25-.99-1.17-1.8-2.15-.53-.64-1.06-1.44-1.65-2.21-.56-.74-1.17-1.46-1.69-2.19-.59-.84-1.33-1.5-1.75-2.16-.67-1.07-.44-1.22-1.11-2.28s-.77-1.01-1.44-2.08-.7-1.05-1.37-2.12-.57-1.13-1.24-2.2-.82-.98-1.49-2.04-.73-1.04-1.4-2.1-.48-1.19-1.15-2.26-.64-1.09-1.31-2.16-.61-1.11-1.29-2.17-.64-1.09-1.32-2.16-.66-1.08-1.34-2.14-.97-.88-1.64-1.95-.35-1.28-1.02-2.35-1-.86-1.67-1.93-.46-1.2-1.14-2.27-.58-1.13-1.26-2.2-.86-.95-1.54-2.02-.59-1.13-1.27-2.2-.72-1.04-1.37-2.13-.69-1.07-1.37-2.14ZM250.23,224.79c0-.95-.23-1.71-.51-2.22-.41-.76-1.19-1.26-2.02-1-.56.17-1.02.92-1.68,1.6-.51.61-1.34.96-1.89,1.59s-.71,1.53-1.26,2.14-1.05,1.23-1.62,1.84-1.45.86-2.02,1.46-1.14,1.14-1.73,1.73-.92,1.38-1.51,1.96-1.13,1.17-1.73,1.74-1.15,1.15-1.76,1.71-1.34.94-1.96,1.49-1.31.96-1.94,1.5-1.12,1.19-1.75,1.72-1.2,1.1-1.84,1.62-1.26,1.03-1.91,1.54-1.42.82-2.08,1.32c-.65.5-1.09,1.26-1.74,1.74s-1.47.76-2.12,1.22-1.36.89-2.03,1.35-1.35.92-2.02,1.36-1.36.91-2.03,1.34-1.17,1.2-1.86,1.63-1.57.56-2.26.98-1.38.87-2.07,1.28-1.41.83-2.11,1.22-1.39.87-2.09,1.25-1.53.61-2.24.98-1.35.94-2.07,1.3-1.56.55-2.27.9-1.35.98-2.07,1.31-1.52.64-2.24.96c-1.39.22-2.18,1.3-2.01,1.98.13.52,1.08.61,2.73.61,1.22,0,1.22.26,2.43.26s1.21.05,2.43.05,1.22.19,2.43.19,1.22-.1,2.43-.1,1.22-.31,2.43-.31,1.22.06,2.43.06,1.22-.07,2.43-.07,1.22.1,2.44.1,1.22-.19,2.43-.19,1.22.12,2.44.12,1.22.04,2.44.04,1.22-.12,2.44-.12,1.22.03,2.44.03,1.22.37,2.44.37,1.22.02,2.44.02,1.22-.1,2.43-.1,1.22-.18,2.44-.18,1.22.24,2.44.24,1.22-.4,2.44-.4,1.22.39,2.44.39,1.22-.06,2.44-.06,1.22-.4,2.44-.4c.81,0,1.55.01,2.25-.28s1.62-.46,2.17-1.02.63-1.48.94-2.21.79-1.41.79-2.22c0-1.24-.14-1.24-.14-2.49s-.01-1.24-.01-2.49.04-1.24.04-2.49.23-1.24.23-2.49-.1-1.25-.1-2.49-.16-1.24-.16-2.49.02-1.25.02-2.49-.14-1.25-.14-2.49.3-1.24.3-2.49-.26-1.24-.26-2.49.26-1.25.26-2.49-.09-1.25-.09-2.49-.28-1.25-.28-2.49.13-1.25.16-2.5.12-1.25.12-2.5ZM208.65,145.04c-.68.18-1.41.52-2.18.84-.69.29-1.51.44-2.21.82s-1.17,1.1-1.82,1.52-1.55.59-2.12,1.07c-.64.53-.87,1.42-1.32,1.97s-.78,1.19-1.14,1.92c-.32.66-1.04,1.2-1.29,1.95s-.48,1.49-.65,2.22,0,1.6-.1,2.32c-.11.84-.11,1.61-.11,2.27,0,.72.17,1.45.4,2.26.2.72.27,1.53.6,2.26s.54,1.49.93,2.17.97,1.28,1.4,1.9c.48.69,1.03,1.27,1.5,1.8.83.94.84.93,1.67,1.87s.66,1.09,1.49,2.03,1.09.71,1.92,1.65.64,1.11,1.47,2.05.79.98,1.62,1.92.83.94,1.66,1.88.84.94,1.67,1.88,1.11.69,1.94,1.63.57,1.17,1.4,2.11.86.91,1.69,1.85.84.93,1.67,1.87.89.89,1.73,1.83.69,1.07,1.52,2,.99.8,1.82,1.74.68,1.08,1.51,2.02,1.06.74,1.89,1.68.79.98,1.63,1.92.76,1.01,1.6,1.95,1.03.77,1.87,1.71c.47.53.76,1.26,1.23,1.82s.91,1.16,1.36,1.71c.49.61.79,1.3,1.2,1.83.56.73,1.07,1.27,1.34,1.69.31.5,1.1.82,1.81,1.12.62.26,1.27.4,1.99.14.56-.2,1.03-.62,1.55-1.32.68-.95.75-.9,1.42-1.86s.51-1.07,1.18-2.03.77-.89,1.43-1.85c.38-.6.77-1.26,1.12-2.02.31-.68.48-1.44.73-2.2s.49-1.46.68-2.21.71-1.47.82-2.21c.12-.82.21-1.64.21-2.35,0-1.27-.1-1.27-.1-2.53s-.18-1.26-.18-2.53.24-1.26.24-2.52-.4-1.26-.4-2.53.39-1.26.39-2.53-.06-1.26-.06-2.53-.4-1.26-.4-2.53.17-1.26.17-2.53.37-1.27.37-2.53-.46-1.26-.46-2.53.35-1.27.35-2.53-.14-1.27-.14-2.53-.01-1.27-.01-2.53.04-1.27.04-2.53.23-1.27.23-2.53-.1-1.27-.1-2.53-.16-1.26-.16-2.53.02-1.27.02-2.53-.14-1.27-.14-2.53.3-1.27.3-2.53-.26-1.27-.26-2.54.26-1.27.26-2.54-.09-1.27-.09-2.54c0-1.06-.52-1.89-.99-2.63-.52-.82-1.15-1.5-2.08-1.79-.84-.26-1.8-.29-2.82-.01-1.19.32-1.22.21-2.4.53s-1.13.52-2.32.84-1.16.43-2.34.75-1.24.12-2.43.44-1.21.25-2.4.57-1.17.39-2.36.71-1.13.55-2.31.87-1.26.05-2.45.37-1.16.43-2.34.74-1.18.34-2.37.66-1.22.2-2.41.52-1.15.48-2.34.8-1.17.38-2.36.7-1.24.13-2.44.41-1.21.25-2.4.57ZM26.02,198.2c0,.85.16,1.79.31,2.77.14.89.13,1.87.38,2.77s.91,1.7,1.23,2.52c.37.94.44,1.99.88,2.68.36.57,1.28,1.01,1.89,1.76.51.63,1.11,1.25,1.69,1.87.61.67.9,1.62,1.46,2.13,1.06.96,2.28,1.41,2.45.97.15-.4.4-1.33,1.14-2.32.48-.63,1-1.38,1.58-2.1.55-.68,1.1-1.4,1.66-2.05.63-.73,1.39-1.26,1.91-1.82.84-.9.95-.79,1.78-1.69s.71-1.01,1.55-1.91.78-.94,1.62-1.84.83-.9,1.67-1.8,1.01-.74,1.84-1.63.58-1.13,1.42-2.02,1.03-.72,1.86-1.62.88-.85,1.72-1.75.84-.89,1.68-1.79.83-.9,1.67-1.8.56-1.15,1.4-2.04,1.1-.66,1.93-1.55.81-.92,1.64-1.82.83-.9,1.67-1.8.78-.95,1.62-1.85.98-.77,1.81-1.66.68-1.04,1.52-1.94.99-.76,1.83-1.66.62-1.1,1.46-2c.48-.51,1.02-1.08,1.52-1.76.44-.61.96-1.21,1.37-1.89s.53-1.48.85-2.18.85-1.37,1.06-2.08c.23-.8.41-1.59.41-2.31,0-.79.15-1.63.06-2.44s-.33-1.6-.51-2.39-.71-1.47-.99-2.23-.55-1.51-.94-2.21-.87-1.34-1.37-1.97c-.44-.56-.92-1.17-1.57-1.69-.58-.47-1.33-.74-2.01-1.15s-1.29-.86-1.99-1.19-1.43-.67-2.13-.92c-.79-.28-1.56-.39-2.25-.53-1.21-.26-1.2-.29-2.41-.55s-1.13-.63-2.34-.89-1.2-.28-2.41-.54-1.23-.16-2.44-.42-1.25-.09-2.45-.35-1.16-.5-2.37-.76-1.29.13-2.5-.13-1.12-.64-2.33-.9-1.22-.2-2.43-.46-1.29.13-2.5-.13-1.17-.43-2.38-.69-1.13-.63-2.34-.89-1.31.19-2.52-.07-1.14-.6-2.35-.86c-.77-.17-1.54-.04-2.21.1-.74.15-1.41.47-1.97.92s-1.04,1.02-1.34,1.72c-.27.63-.65,1.37-.65,2.15,0,1.24.1,1.24.1,2.48s.16,1.24.16,2.48-.02,1.24-.02,2.48.14,1.24.14,2.48-.3,1.24-.3,2.48.26,1.24.26,2.48-.26,1.24-.26,2.48.09,1.24.09,2.49.28,1.24.28,2.48-.16,1.24-.16,2.49,0,1.24,0,2.48-.11,1.24-.11,2.49.2,1.24.2,2.48.12,1.24.12,2.49-.21,1.24-.21,2.49-.08,1.24-.08,2.48.08,1.24.08,2.49.24,1.24.24,2.49-.28,1.24-.28,2.49.11,1.24.11,2.49.06,1.25.02,2.5-.21,1.24-.21,2.49ZM10.02,133.21c-1.35-.49-1.81-.11-1.91.62-.08.56-.2,1.37-.23,2.31-.03,1,.38,0,.38,2.01,0,.85-.39,1.7-.38,2.53s.51,1.68.53,2.52.11,1.69.15,2.52-.38,1.72-.33,2.55.09,1.69.16,2.52.47,1.66.56,2.49.24,1.67.34,2.5.27,1.67.39,2.49.04,1.7.18,2.53.15,1.7.3,2.51.5,1.62.68,2.44.45,1.63.65,2.44.43,1.63.65,2.44.24,1.69.49,2.49.84,1.5,1.11,2.29.31,1.68.61,2.46.55,1.6.87,2.37.65,1.56,1,2.32c.63,1.38,1.88,1.3,2.07-.33.06-1.26-.38-1.27-.38-2.53s.35-1.26.35-2.53-.04-1.26-.04-2.52,0-1.26,0-2.53-.08-1.26-.08-2.52.19-1.26.19-2.53-.21-1.26-.21-2.53.2-1.26.2-2.53-.3-1.26-.3-2.53.06-1.26.06-2.52.1-1.26.1-2.53-.26-1.26-.26-2.53.26-1.26.26-2.53.05-1.26.05-2.53.19-1.27.19-2.53-.1-1.27-.1-2.53c0-.83-.38-1.59-.51-2.3-.15-.85-.32-1.6-.58-2.23-.39-.93-.88-1.5-1.32-1.81s-1.07-.67-1.85-.94c-.66-.22-1.43-.25-2.08-.42-.93-.25-1.62-.78-1.93-.89ZM268.17,133.44c-.07-1.13-.27-2.07-.47-2.79-.37-1.38-1.04-2.23-1.83-2.06-.67.15-1.27.75-1.95,1.01s-1.53.22-2.13.52c-.82.4-1.29,1.2-1.7,1.39-.76.36-1.06.86-1.33,1.66-.22.65-.77,1.35-.81,2.26-.03.72-.06,1.53-.06,2.4,0,1.23.32,1.23.32,2.46s.05,1.23.05,2.46.05,1.23.05,2.46-.22,1.23-.22,2.47-.15,1.23-.15,2.46.17,1.23.17,2.47.07,1.23.07,2.47,0,1.23,0,2.47-.23,1.23-.23,2.47.34,1.23.34,2.47-.26,1.23-.26,2.47-.06,1.23-.06,2.46,0,1.23,0,2.47,0,1.23,0,2.47.38,1.23.38,2.47-.35,1.24-.35,2.47.04,1.24.04,2.47,0,1.24,0,2.47c0,1.74.19,2.55.5,2.49.27-.05.88-.73,1.53-2.15.34-.73.48-1.59.8-2.4.3-.75.8-1.47,1.09-2.28.28-.77.27-1.66.53-2.48s.55-1.57.8-2.39.56-1.57.78-2.4.16-1.67.36-2.5.63-1.56.81-2.4.39-1.63.55-2.46.5-1.61.65-2.45.18-1.67.31-2.51-.06-1.7.06-2.54.27-1.65.37-2.49.12-1.67.2-2.51.26-1.66.32-2.5-.07-1.69-.02-2.53.21-1.67.24-2.51.1-1.68.11-2.52-.09-1.68-.09-2.53c0-.95.02-1.73.02-2.36-.02-1.75.29-1.19.21-2.36ZM232.84,49.3c-.53-.59-1.2-.99-1.84-1.28-.69-.31-1.45-.67-2.18-.64s-1.37.6-2.04.96c-.62.34-1.46.53-1.96,1.14s-.63,1.52-1.17,2.15c-.5.59-1,1.24-1.54,1.86-.52.59-1.41.87-1.96,1.48s-1.1,1.16-1.65,1.75-.86,1.39-1.42,1.97-1.07,1.2-1.64,1.77-1.09,1.18-1.66,1.75-1.29.99-1.87,1.55-1.26,1.02-1.84,1.58-1.05,1.24-1.63,1.79-1.14,1.16-1.72,1.69-1.21,1.1-1.79,1.62c-.63.55-1.39.9-1.98,1.4-.65.54-1.05,1.32-1.65,1.79-.56.44-1.37.72-2.07,1.22-.62.44-1.31.86-1.99,1.32s-1.32.89-1.98,1.34-1.35.91-1.98,1.34c-.72.48-1.17,1.24-1.76,1.65-.67.46-1.56.63-2.28,1.09-.68.44-1.37.91-2.1,1.35s-1.41.85-2.15,1.27-1.4.88-2.15,1.28-1.55.6-2.31.98-1.39.92-2.16,1.28-1.59.51-2.36.85-1.4.93-2.19,1.25-1.56.57-2.35.87-1.59.48-2.38.76-1.49.79-2.29,1.05-1.66.25-2.47.49-1.61.41-2.42.63-1.65.22-2.47.42-1.6.47-2.42.64-1.57.63-2.4.77-1.65.22-2.48.34-1.64.3-2.48.4-1.67.08-2.51.16-1.65.33-2.49.38-1.67-.03-2.52,0-1.67,0-2.51,0-1.66.1-2.48.08-1.66-.09-2.48-.14-1.62-.48-2.44-.55-1.64-.17-2.46-.27-1.65-.1-2.46-.22-1.66-.07-2.47-.21-1.58-.52-2.39-.68-1.7.06-2.5-.12-1.52-.75-2.32-.94-1.62-.34-2.41-.56-1.71-.06-2.49-.29-1.54-.64-2.32-.9-1.45-.87-2.23-1.14-1.72-.12-2.49-.4-1.43-.91-2.19-1.21-1.59-.49-2.34-.81-1.53-.64-2.27-.98-1.49-.73-2.23-1.08-1.4-.93-2.12-1.29-1.52-.67-2.24-1.05-1.54-.65-2.24-1.05-1.43-.85-2.12-1.27c-.73-.44-1.5-.75-2.17-1.18-.6-.39-1.13-1.09-1.86-1.57-.64-.42-1.47-.66-2.16-1.11s-1.2-1.11-1.87-1.56-1.42-.84-2.07-1.27c-.73-.49-1.57-.7-2.17-1.1-.63-.41-1.22-1.03-1.93-1.56-.62-.47-1.27-.99-1.94-1.53-.62-.5-1.18-1.12-1.83-1.67-.61-.52-1.37-.91-2-1.47s-1.31-1-1.92-1.57-1.08-1.27-1.68-1.83-1.16-1.19-1.75-1.75-1.26-1.09-1.84-1.66-1.37-.99-1.95-1.56-1-1.38-1.56-1.94c-.61-.61-1.28-1.12-1.83-1.68-.62-.63-1.22-1.2-1.76-1.75-.66-.67-1.15-1.35-1.64-1.86-1.08-1.12-1.02-.75-1.84-1.67-.65-.79-1.35-1.29-2.09-1.66-.87-.44-1.7-.78-2.6-.56-.79.2-1.62.66-2.34,1.45-.82.97-.86.94-1.66,1.93s-.83.96-1.63,1.95-.81.98-1.62,1.97-.54,1.21-1.34,2.2-1.11.74-1.91,1.73-.51,1.23-1.31,2.22-1.02.82-1.81,1.82c-.65.9-1.25,1.73-1.53,2.43-.55,1.37-.12,2.35.88,2.24.43-.05,1.21.17,2.24.4.67.15,1.43.32,2.22.53.72.2,1.57.05,2.31.28s1.46.58,2.16.82c.81.27,1.48.74,2.08.99,1.14.45,1.07.63,2.22,1.08s1.19.34,2.33.79,1.1.57,2.24,1.02,1.27.13,2.42.59,1.12.51,2.27.97,1.2.32,2.34.77,1.09.58,2.24,1.04,1.04.72,2.18,1.18,1.27.14,2.41.6,1.06.67,2.2,1.12,1.18.37,2.32.83,1.2.32,2.34.78,1.12.51,2.27.96,1.06.66,2.21,1.11,1.28.11,2.43.57,1,.81,2.15,1.26,1.31.04,2.45.49,1.08.61,2.22,1.07,1.09.6,2.23,1.06,1.19.33,2.34.78,1.06.67,2.2,1.12,1.31.04,2.46.49,1.13.5,2.27.96,1.14.46,2.29.92,1.06.66,2.21,1.12,1.26.16,2.41.61,1.08.62,2.23,1.08,1.13.48,2.28.94,1.04.71,2.19,1.17,1.23.26,2.37.71,1.24.22,2.38.67,1.14.46,2.29.92,1.12.53,2.27.98,1.08.61,2.23,1.07,1.12.51,2.27.97,1.17.39,2.32.85,1.09.62,2.24,1.07c.68.27,1.44.46,2.17.73s1.5.38,2.21.61c.77.26,1.49.56,2.16.76.89.26,1.69.33,2.23.43.47.09,1.32.23,2.38.07.72-.11,1.55-.17,2.39-.35.77-.16,1.56-.37,2.35-.57s1.51-.73,2.24-.94c.87-.25,1.69-.4,2.32-.63,1.18-.42,1.18-.43,2.35-.85s1.17-.43,2.35-.85,1.2-.36,2.38-.79,1.1-.64,2.28-1.06,1.33-.02,2.5-.44,1.16-.47,2.34-.9,1.09-.67,2.27-1.09,1.21-.34,2.39-.76,1.1-.64,2.28-1.06,1.34.04,2.52-.38,1.1-.64,2.28-1.06,1.15-.5,2.33-.92,1.18-.41,2.36-.83,1.19-.39,2.37-.81,1.12-.6,2.3-1.02,1.17-.46,2.35-.88,1.17-.44,2.35-.86,1.19-.37,2.37-.79,1.22-.3,2.4-.73,1.12-.59,2.3-1.01,1.21-.34,2.39-.76,1.18-.43,2.35-.85,1.3-.09,2.48-.51,1.07-.73,2.25-1.16,1.27-.17,2.45-.6,1.07-.74,2.25-1.16,1.3-.09,2.48-.51,1.08-.7,2.26-1.13,1.29-.11,2.47-.53,1.04-.82,2.22-1.24,1.22-.32,2.4-.74,1.31-.06,2.49-.48,1.08-.69,2.26-1.11,1.22-.3,2.41-.73,1.06-.77,2.24-1.19,1.24-.28,2.42-.7,1.26-.22,2.44-.64,1.15-.51,2.34-.93c.85-.3,1.65-.83,2.49-1.11.91-.31,1.83-.51,2.61-.76,1.16-.37,2.13-.56,2.63-.67.71-.16,1.73-.98,1.81-2.24.05-.79-.42-1.72-1.15-2.76-.77-1.01-.72-1.05-1.52-2.04s-.73-1.04-1.53-2.03-.75-1.03-1.54-2.02-.98-.84-1.77-1.84-.82-.97-1.62-1.96-.51-1.22-1.31-2.21-1.2-.68-1.96-1.7-.53-1.2-1.34-2.18ZM62.2,44.05c-.93,0-1.75.22-2.37.49-.87.38-1.63,1.03-1.64,1.81,0,.62.65,1.26,1.35,2.04.88.92.41.95,1.55,2.05.53.5,1.47.75,2.17,1.41.57.54,1.23,1.09,1.89,1.71.59.56.9,1.48,1.54,2.08.61.56,1.21,1.16,1.85,1.75s1.47.91,2.1,1.48,1.3,1.1,1.94,1.66,1.32,1.1,1.95,1.65,1.17,1.29,1.8,1.82c.68.57,1.25,1.23,1.88,1.74.72.57,1.5.96,2.12,1.42.57.42,1.28.81,2,1.28.64.42,1.32.83,2.02,1.26s1.24,1.03,1.92,1.43,1.57.53,2.23.91c.74.43,1.31,1.06,1.92,1.42.69.41,1.38.87,2.12,1.29s1.43.81,2.17,1.21,1.45.77,2.2,1.16,1.63.41,2.38.79,1.32,1.04,2.08,1.4,1.51.66,2.27,1,1.51.66,2.28.98,1.55.56,2.33.86,1.47.78,2.25,1.07,1.62.37,2.41.64,1.5.72,2.29.97,1.66.2,2.46.43,1.57.5,2.38.71,1.58.5,2.39.69,1.66.1,2.48.26,1.57.56,2.39.7,1.62.31,2.45.42,1.62.4,2.45.49,1.66.06,2.49.12,1.67-.2,2.5-.17,1.65.1,2.48.1,1.67-.08,2.5-.11,1.68.03,2.51-.03,1.65-.32,2.48-.41,1.68-.07,2.5-.18,1.66-.2,2.48-.34,1.63-.41,2.44-.58,1.64-.32,2.45-.51,1.72-.04,2.52-.25,1.63-.43,2.42-.67,1.58-.59,2.37-.85,1.53-.71,2.31-.99,1.66-.36,2.43-.66,1.41-.99,2.17-1.31,1.7-.31,2.45-.65,1.51-.76,2.25-1.12,1.33-1.1,2.07-1.48,1.57-.62,2.29-1.01,1.66-.48,2.37-.89,1.23-1.24,1.93-1.66c.74-.44,1.63-.58,2.31-1.01.6-.38,1.21-.93,1.94-1.4.64-.41,1.31-.86,1.99-1.32s1.35-.85,2.01-1.3,1.47-.74,2.09-1.19c.7-.51,1.29-1.08,1.85-1.53.6-.48,1.12-1.12,1.75-1.65.6-.5,1.23-1,1.85-1.53s1.11-1.15,1.72-1.68,1.39-.84,1.99-1.38,1.01-1.27,1.6-1.82,1.36-.91,1.93-1.46,1.1-1.18,1.67-1.74.95-1.34,1.5-1.9,1.25-1.05,1.78-1.62c.57-.61,1.11-1.19,1.62-1.77.56-.63,1.16-1.18,1.63-1.76.61-.76.78-1.55.89-2.17.15-.87-.18-1.37-.92-1.8-.54-.32-1.2-.67-2.18-.67-1.22,0-1.22-.08-2.44-.08s-1.22.08-2.44.08-1.22.24-2.44.24-1.22-.28-2.44-.28-1.22.11-2.44.11-1.22.02-2.44.02-1.22-.13-2.44-.13-1.22.17-2.44.17-1.22.06-2.44.06-1.22-.24-2.44-.24-1.22-.05-2.44-.05-1.22-.07-2.44-.07-1.22-.04-2.44-.04-1.22-.01-2.45-.01-1.22.34-2.45.34c-.91,0-1.75-.38-2.45-.25-.82.15-1.36.8-1.93,1.46-.42.49-1,1.05-1.32,2-.21.65-.52,1.41-.69,2.33-.14.77-.1,1.6-.3,2.41s-.5,1.52-.74,2.31-.45,1.53-.72,2.31-.19,1.65-.49,2.41-.71,1.46-1.04,2.21-.86,1.38-1.21,2.12-.88,1.36-1.27,2.07-.66,1.47-1.07,2.17-.93,1.32-1.37,2-.6,1.55-1.06,2.21-1,1.28-1.49,1.92-.9,1.37-1.42,1.98-1.18,1.13-1.73,1.72-1.34.95-1.92,1.5-.98,1.34-1.6,1.85-1.41.82-2.07,1.28-1.29.98-1.98,1.39-1.35.92-2.08,1.26-1.51.61-2.27.88-1.59.29-2.38.48-1.51.69-2.32.79-1.62-.23-2.44-.23c-.86,0-1.73.4-2.56.32s-1.68-.38-2.5-.55-1.61-.54-2.41-.79-1.64-.43-2.42-.76-1.42-.92-2.16-1.33-1.69-.47-2.4-.95-1.35-1.04-2.01-1.58-1.29-1.11-1.9-1.7-1.04-1.35-1.61-1.98-1.36-1.07-1.89-1.74-.89-1.45-1.38-2.15-.93-1.41-1.38-2.13-.64-1.58-1.06-2.32-1-1.37-1.38-2.14-.98-1.41-1.33-2.18-.68-1.55-1.01-2.34-.56-1.6-.85-2.4-.41-1.65-.68-2.46-.46-1.63-.7-2.44-.53-1.61-.75-2.43-.25-1.68-.45-2.51-.54-1.57-.88-2.27c-.36-.75-.92-1.35-1.44-1.92-.55-.61-1.14-1.15-1.86-1.48s-1.49-.36-2.34-.36c-1.2,0-1.2-.2-2.4-.2s-1.2-.09-2.4-.09-1.2.02-2.4.02-1.2.32-2.4.32-1.2-.11-2.4-.11-1.2,0-2.4,0-1.2,0-2.4,0-1.2-.06-2.41-.06-1.2.23-2.4.23-1.2-.43-2.4-.43-1.2.05-2.41.05-1.2.26-2.41.26-1.2-.09-2.41-.09-1.21.26-2.42.23-1.2-.37-2.4-.37ZM26.02,51.52c0,.88.2,1.59.41,2.09.36.83,1.1,1.34,1.81,1.02.47-.21.78-.99,1.3-1.76.41-.61,1.22-1.03,1.72-1.69s.58-1.57,1.02-2.2c.5-.72.87-1.4,1.17-2.03.44-.94.98-1.76.55-2.28-.34-.41-1.2-.76-2.38-.76-.89,0-1.73.25-2.48.33-.85.09-1.48.36-2,1.16-.35.53-.54,1.23-.69,2.3-.1.69-.36,1.48-.36,2.46-.04.68-.06.68-.06,1.37ZM244.65,44.05c-1.13,0-1.95.18-2.49.38-1.05.38-1.34,1.24-.88,2.15.3.6,1.16,1.1,1.79,1.83.51.6.8,1.5,1.39,2.11s1.55.85,2.15,1.35c.75.63,1.43,1.05,2.03,1.31.95.41,1.71.45,1.71-.81,0-1.11.03-1.11.03-2.22,0-.82-.39-1.58-.57-2.3-.2-.79-.54-1.44-1.03-2.02s-1.06-.91-1.88-1.19c-.64-.22-1.35-.6-2.25-.6ZM138.13,8.05c-.82,0-1.64.08-2.46.09s-1.65-.18-2.46-.15-1.62.45-2.44.5-1.66-.3-2.48-.23-1.59.6-2.41.68-1.62.21-2.43.3-1.68-.28-2.49-.17-1.63.19-2.44.31-1.57.57-2.38.7-1.6.33-2.41.48-1.6.35-2.4.52-1.65.13-2.45.3-1.64.22-2.43.41-1.55.56-2.34.77-1.57.5-2.35.72-1.57.46-2.35.7-1.64.26-2.42.51-1.45.84-2.22,1.1-1.63.3-2.4.58-1.56.52-2.32.81-1.53.6-2.28.91-1.52.64-2.26.97-1.35,1.01-2.08,1.35-1.64.38-2.37.74-1.46.77-2.17,1.15-1.45.78-2.16,1.17-1.39.88-2.09,1.29-1.51.69-2.2,1.12-1.27,1.07-1.94,1.52-1.48.76-2.13,1.24-1.15,1.21-1.79,1.71-1.32.98-1.94,1.49-1.32,1-1.91,1.54c-.81.74-1.03,1.46-.99,1.99s.42.97,1.77.99c1.24,0,1.24.05,2.48.05s1.24.19,2.48.19,1.24-.1,2.49-.1,1.24-.31,2.49-.31,1.24.06,2.48.06,1.24-.07,2.48-.07,1.24.1,2.48.1,1.24-.19,2.48-.19,1.24.12,2.48.12,1.24.04,2.48.04,1.24-.12,2.48-.12,1.24.03,2.49.03,1.24.37,2.49.37,1.24.02,2.49.02,1.24-.1,2.48-.1,1.24-.18,2.48-.18,1.24.24,2.48.24,1.24-.4,2.48-.4,1.24.39,2.49.39,1.24-.06,2.49-.06,1.24-.4,2.49-.4,1.24.17,2.49.17,1.24.37,2.48.37,1.24-.46,2.48-.46,1.24.35,2.49.35,1.24-.14,2.49-.14,1.24-.01,2.49-.01,1.24.04,2.49.04,1.24.23,2.49.23,1.24-.1,2.49-.1,1.24-.16,2.49-.16,1.24.02,2.49.02,1.24-.14,2.49-.14,1.24.3,2.49.3,1.24-.26,2.49-.26,1.24.26,2.49.26,1.24-.09,2.49-.09,1.24-.28,2.49-.28,1.24.16,2.48.16,1.24,0,2.48,0,1.24.11,2.48.11,1.24-.2,2.49-.2,1.24-.12,2.49-.12,1.24.21,2.48.21,1.24.08,2.49.08,1.24-.08,2.49-.08,1.24-.24,2.49-.24,1.24.28,2.49.28,1.24-.11,2.49-.11,1.25-.02,2.49-.02,1.24.13,2.49.13,1.25-.17,2.49-.17,1.25-.06,2.49-.06,1.24.24,2.49.24,1.24.05,2.49.05,1.25.07,2.49.07,1.25.04,2.49.04,1.25.01,2.49.01,1.25-.34,2.5-.34,1.25.39,2.5.39c1.67,0,2.34-.57,2.4-1.09s-.38-1.32-1.56-2.2c-.65-.48-1.24-1.05-1.91-1.53s-1.46-.75-2.14-1.21-1.29-.99-1.98-1.44-1.38-.86-2.08-1.3-1.58-.53-2.28-.95-1.34-.92-2.05-1.33-1.31-.98-2.03-1.38-1.34-.94-2.07-1.32-1.5-.64-2.24-1-1.41-.83-2.15-1.18-1.62-.38-2.37-.72-1.46-.72-2.21-1.05-1.55-.5-2.31-.81-1.46-.74-2.22-1.04-1.42-.85-2.19-1.14-1.65-.24-2.42-.51-1.47-.75-2.25-1-1.58-.42-2.36-.65-1.6-.33-2.39-.56-1.55-.49-2.34-.7-1.52-.62-2.32-.82-1.67-.02-2.47-.2-1.51-.72-2.31-.88-1.68.12-2.49-.03-1.57-.46-2.38-.59-1.59-.41-2.4-.53-1.63-.09-2.44-.19-1.59-.42-2.41-.51-1.66.29-2.48.22-1.62-.18-2.43-.23-1.62-.1-2.44-.14-1.62-.29-2.44-.3-1.63-.08-2.45-.08Z"/>
      <g>
        <path d="M226.05,326.6c.8,0,.6.2,1.6.2.46,0,.99-.08,1.6-.08.49,0,1.03-.17,1.6-.16.51,0,1.04.03,1.6.04.52,0,1.05.13,1.6.15s1.06-.11,1.6-.09,1.06.17,1.59.19,1.08-.11,1.61-.09,1.06.35,1.58.39,1.09-.05,1.6,0c.55.05,1.1-.08,1.61-.02.56.06,1.08.25,1.57.33.74.18.6.11,1.46.43.41.15.89.35,1.41.55.45.18.84.58,1.32.78s1.05.14,1.51.35.8.72,1.22.95c.48.26,1.07.29,1.45.55.63.52.52.51,1.17,1.16.36.36.75.79,1.11,1.2.41.46.63,1.01.87,1.38.34.53.68,1.09.98,1.65.32.6.66,1.16.94,1.68.12.21.16.19.24.42.25.73,0,.61.16,1.53.07.44.21.95.29,1.51.07.48.27.97.33,1.5.06.5.09,1.02.13,1.54s-.05,1.04-.03,1.54c.02.54.23,1.06.21,1.54-.03.57-.05,1.11-.15,1.55-.11.47-.48.87-.63,1.31s-.15.98-.34,1.4-.57.79-.79,1.2-.43.86-.65,1.26c-.23.4-.35.85-.57,1.22-.23.4-.46.78-.65,1.16s-.44.79-.61,1.19c.33.45.78.81,1.09,1.26s.37,1.08.66,1.54.62.91.88,1.39.72.87.96,1.37.26,1.09.47,1.6.55.97.72,1.5.29,1.07.42,1.6.08,1.1.17,1.65.15,1.08.2,1.63.1,1.08.11,1.64.07,1.09.04,1.65-.02,1.1-.09,1.65c-.06.51-.23,1.02-.41,1.54-.17.48-.46.93-.71,1.42s-.35,1.01-.65,1.46-.7.79-1.03,1.22-.65.83-1,1.23-.61.89-.98,1.26-.91.61-1.28.96c-.4.38-.69.84-1.07,1.18-.42.37-.87.66-1.25.98-.46.38-.88.72-1.24,1-.77.6-.53.63-1.24.98-.48.14-1.06.21-1.67.31-.53.08-1.09.29-1.67.34s-1.14.11-1.7.14-1.17-.23-1.71-.21c-.62.02-1.2.21-1.69.21-1.02,0-.85-.11-1.69-.13-.53-.01-1.06.14-1.59.14s-1.06-.24-1.6-.23-1.05.07-1.59.08c-.55.01-1.11.05-1.68.05s-1.12.14-1.68.14-1.11-.23-1.67-.26c-.71-.03-.72.17-1.43.15s-.7-.2-1.42-.23-.72.1-1.43.09c-.42.03-.95-.05-1.54-.03-.48.02-.98,0-1.52-.09-.48-.08-1.07.02-1.56-.22-.71-.42-.55-.62-1.2-1.17-.46-.38-.95-.76-1.17-1.15-.25-.43-.31-.91-.44-1.36-.13-.48-.48-.91-.52-1.37-.04-.43.13-.87.13-1.29,0-.44.06-.87.08-1.27.05-.82.08-1.07.09-2.15,0-.5-.11-1.09-.11-1.73,0-.55.06-1.14.06-1.73s-.07-1.17-.07-1.73c0-.63,0-1.22,0-1.73,0-1.03-.08-.87,0-1.73.12-1.14.16-1.7.28-2.28.12-.62.47-1.08.45-1.54-.06-.56-.23-1.15-.29-1.77-.06-.58-.03-1.19-.08-1.79s-.06-1.19-.06-1.78c0-.65-.21-.65-.22-1.29s.1-.65.09-1.3c0-.52-.23-1.04-.23-1.56s.23-1.04.23-1.57-.01-1.04-.01-1.56-.14-1.04-.14-1.57.16-1.04.17-1.56.03-1.04.04-1.57-.14-1.05-.13-1.57-.06-1.05-.04-1.57.26-1.03.29-1.56-.02-1.05.01-1.57,0-1.05.05-1.57c.05-.58-.03-.59.02-1.17.06-.65.32-1.3.35-1.96s-.14-1.31-.12-1.99c.01-.38.02-.89.04-1.43.02-.48.19-.97.22-1.42.05-.8-.06-.72.02-1.43.09-.83.15-.72.37-1.63.13-.51.25-1.09.45-1.61.21-.58.55-1.07.85-1.43.31-.38.69-.63,1.08-.88s.74-.6,1.2-.75c.43-.14.93-.05,1.41-.11.45-.05.91-.21,1.4-.2ZM232.4,363.14c-.54.05-1.16-.14-1.68-.05-.6.11-1.14.42-1.42.89-.24.39-.25.94-.37,1.5-.1.47-.18.97-.21,1.52-.03.5-.15,1.02-.14,1.54s.18,1.03.22,1.54-.03,1.07.03,1.55c.07.57.3,1.06.38,1.51.15.92-.05.77-.02,1.55.04,1.09.07,1.47,0,2.16-.08.75.02,1.51,0,2.23-.02.73-.09,1.28.02,1.67.08.27.43.36.74.38.36.02.77.03,1.26-.01.49-.04.99.14,1.5.09.45-.04.91-.38,1.34-.38.44-.02.97.27,1.53.26.5-.01,1.01-.29,1.52-.3.54,0,1.07,0,1.53,0,.89,0,.76,0,1.52.02.54.03,1.12.16,1.7.06.55-.09,1.11-.26,1.65-.43s1.09-.4,1.6-.61c.57-.23,1.1-.48,1.55-.69.91-.44.89-.19,1.57-.69.35-.35.64-.88.88-1.39.22-.46.29-1.02.44-1.54s.3-1.03.4-1.54c.11-.57.31-1.09.37-1.56.12-.93-.06-.8-.06-1.59-.04-.44-.22-.84-.46-1.31-.21-.41-.27-.95-.57-1.35s-.77-.64-1.09-.98c-.36-.39-.58-.87-.9-1.16-.62-.58-.53-.51-1.12-.93-.45-.28-.97-.41-1.45-.61s-.97-.37-1.48-.5-1-.27-1.53-.35-1.04.01-1.57-.04-1-.38-1.54-.42-1.04-.01-1.57-.05c-.76-.06-.68.17-1.54.13-.48-.03-1-.26-1.52-.27-.57-.01-1.11.11-1.52.15ZM231.55,336.36c-.75.17-1.53.54-1.83,1.26-.13.4-.15.9-.2,1.39-.04.42.11.89.12,1.37,0,.43,0,.89.04,1.37.03.44-.05,1.06-.01,1.69.03.57.2,1.16.23,1.69.05.95-.05.85-.04,1.7-.02.75.04,1.56-.02,2.24-.07.72-.42,1.36-.4,1.97.01.52.2.98.32,1.39.14.45.49.72.83,1.06.62.5.66.62,1.35.75.36.07.77.03,1.21.05.38.02.78.03,1.21.02.46-.02.94.18,1.4.14s.9-.38,1.35-.43c.41-.05.86.21,1.26.16.44-.05.83-.36,1.2-.39.57-.05,1.11-.08,1.63-.16.56-.08,1.09-.15,1.6-.28.54-.13,1.12-.12,1.61-.32s.99-.47,1.47-.75.88-.62,1.31-.99c.41-.36.81-.89,1.17-1.52.29-.51.67-1.07.9-1.71.13-.38.2-.87.29-1.35s.03-.95.09-1.37c.1-.77.22-.67.17-1.34-.08-.92-.05-.89-.36-1.82-.2-.6-.64-1.14-.96-1.58-.39-.54-.85-.99-1.33-1.41-.52-.45-.93-1.03-1.49-1.3-.53-.24-1.13-.25-1.65-.43s-1.03-.51-1.58-.64-1.11-.19-1.68-.27-1.12-.03-1.69-.07-1.11-.09-1.69-.11-1.12-.07-1.69-.07c-.34,0-.48.15-.68.14-.39,0-.9-.3-1.43-.31-.53,0-2.03.21-2.05.21Z"/>
        <path d="M188.66,326.77c.51-.02,1.01-.07,1.5.07s.9.41,1.33.71.93.49,1.23.92c.28.39.51.89.68,1.4.16.49.27.99.42,1.48s.26,1,.41,1.48.35.97.5,1.46.29.98.43,1.47c.29.97.08,1.03.37,2,.16.54.49,1.03.65,1.57s.23,1.11.39,1.65.35,1.07.52,1.61.43,1.05.61,1.58.26,1.1.44,1.63.35,1.08.55,1.6c.14.36.1.38.24.74.19.5.36,1,.53,1.5s.46.97.62,1.48.31,1.02.46,1.53.29,1.03.43,1.54.2,1.05.34,1.57.29,1.02.43,1.54.41.99.55,1.5c.15.53.08,1.13.26,1.65s.5.99.7,1.51.32,1.06.53,1.57.68.9.91,1.4.38,1.03.62,1.53.43,1.01.66,1.51c.31.67.42.62.72,1.3s.2.56.5,1.34c.15.4.17.92.34,1.39.17.45.45.87.61,1.3.18.5.34.97.46,1.35.19.58.25,1.19.43,1.76s.53,1.09.72,1.65.35,1.15.57,1.7c.27.73.16.63.42,1.5.14.45.38.94.52,1.48.13.5.11,1.06.19,1.56.1.56.07,1.09.06,1.54-.01.56.2,1.2.03,1.77-.15.54-.67.95-1.02,1.44-.39.54-.84.95-1.42,1.3-.54.32-1.09.7-1.79.85-.32.04-.33.08-.65.05-.67-.12-1.24-.37-1.76-.6-.6-.27-1.02-.7-1.46-1.09-.47-.42-.94-.8-1.27-1.32-.42-.65-.81-1.32-1.1-1.94-.3-.64-.66-1.17-1-1.73-.34-.55-.61-.99-1.01-1.61-.37-.57-.74-1.24-1.06-1.98-.26-.73-.05-.76-.25-1.54-.14-.55-.3-1.12-.37-1.5-.08-.45-.06-.88-.14-1.27-.09-.43-.45-.77-.56-1.17-.34-1.01-.68-1.28-1.13-1.46-.4-.16-.83-.3-1.45-.38-.42-.05-.92,0-1.53-.07-.43-.02-.86-.09-1.3-.13s-.88-.03-1.31-.08c-.44-.05-.88-.11-1.31-.16s-.85-.32-1.29-.35c-.52-.04-1.03-.04-1.51-.04-.53,0-1.02.11-1.49.17-.52.07-1.03.11-1.48.27-.56.29-.51.33-.99.78-.31.29-.72.59-.89.93-.24.49-.27,1.1-.43,1.69-.15.53-.4,1.06-.53,1.65-.11.6-.15,1.2-.26,1.79s-.18,1.19-.29,1.78-.29,1.17-.41,1.75c-.1.62-.28,1.19-.5,1.73-.23.58-.44,1.16-.73,1.66-.32.56-.7,1.04-.98,1.52-.48.66-.35.67-1.01,1.31-.37.36-.87.68-1.31,1.01-.48.36-.99.71-1.44.83-.43.12-.91.23-1.38.21-.44-.02-.87-.26-1.32-.43-.47-.18-.91-.41-1.3-.73s-.63-.73-.93-1.15c-.36-.71-.35-.58-.61-1.46-.14-.46-.2-1.01-.33-1.56s-.27-1.05-.34-1.56c-.08-.59-.19-1.15-.13-1.6.05-.42.3-.89.43-1.39.12-.46.09-.99.24-1.44.17-.49.45-.92.61-1.33.3-.79.4-.61.71-1.26.25-.48.48-.97.72-1.46s.43-1,.65-1.5.4-1.01.61-1.51.43-1,.63-1.51.22-1.07.41-1.59.41-1.01.58-1.52.28-1.05.44-1.57.46-1,.61-1.52.14-1.09.29-1.61.35-1.03.49-1.55.42-1.01.55-1.54.1-1.1.23-1.63c.13-.52.31-1.04.46-1.56s.48-.99.64-1.51.2-1.08.36-1.59c.16-.51.15-1.07.3-1.57s.53-.95.67-1.45.32-1.01.45-1.52c.11-.46.02-1.04.19-1.57.14-.48.29-.99.46-1.5s.42-.96.59-1.46.29-1.02.46-1.5c.19-.51.59-.93.77-1.39.21-.54.43-1.02.6-1.44.35-.89.31-.72.6-1.44.17-.44.34-1.01.54-1.58.19-.53.34-1.1.5-1.59.3-.89.09-.84.34-1.63.21-.67.5-1.35.64-2.31.05-.36.03-.98.18-1.55.2-.78.13-.78.38-1.52.19-.47.41-.94.7-1.31.31-.39.76-.64,1.15-.92s.85-.46,1.31-.61.93-.2,1.41-.22ZM188.16,351.69c-.16.44-.24,1.03-.42,1.62-.15.52-.38,1.05-.52,1.58-.15.57-.08,1.19-.21,1.67-.24.94-.2.8-.41,1.61-.11.38-.38.94-.57,1.47-.21.57-.48,1.17-.67,1.78-.2.62-.48,1.5-.27,1.73.28.29.95.19,1.64.26.68.07,1.37.33,2.02.36.58.03,1.2-.12,1.62-.07.43.04.85.18,1.26.2.45.02.89-.01,1.27-.08.35-.06.37-.18.59-.31.1-.06.23-.11.26-.26.03-.17.06-.31-.01-.72-.07-.39-.18-.88-.37-1.4-.19-.51-.41-1.04-.63-1.55-.21-.49-.57-.96-.74-1.4-.15-.38-.34-.85-.54-1.35-.17-.43-.35-.89-.53-1.36s-.28-.95-.45-1.39c-.19-.49-.39-.95-.55-1.36-.31-.8-.43-.62-.66-1.3-.14-.5-.81-.47-1.1.25Z"/>
        <path d="M160.49,326.77c.48-.04,1.07.12,1.69.08.53-.03,1.1-.13,1.68-.13s1.13-.05,1.68.02c.56.07,1.14.21,1.72.4s1.14.35,1.64.68.82.82,1.18,1.31c.33.44.71.9.91,1.52.16.5.1,1.01.12,1.48.02.51.14,1.02-.01,1.49s-.39.94-.72,1.33c-.42.5-1.07.69-1.62.97-.58.3-1.11.71-1.68.85-.49.12-1.01.27-1.53.33s-1.06-.06-1.56-.04c-.55.02-1.07.06-1.55.05-.62,0-1.16-.04-1.54-.05,0,0,0,.06,0,.06s0-.08,0-.08c-.48-.02-.96-.06-1.46-.02-.45.04-.93.04-1.46.09-.56.05-1.15.05-1.78.05-.58,0-1.16,0-1.77-.09-.73-.12-.71.04-1.48-.05-.51-.06-1.04-.26-1.46-.28-.5-.03-1.06-.02-1.62-.05s-1.09,0-1.62-.05c-.7-.03-.58-.11-1.41-.11-.42,0-.91.09-1.41.09-.47,0-.95.04-1.42.04-.5,0-.99.08-1.41.08-.96.04-1.49-.05-1.86.09-.2.08-.42.26-.55.61-.21.55-.23,1.08-.25,1.65s-.2,1.15-.16,1.71c.04.59.11,1.15.05,1.69-.06.5-.08,1.13-.11,1.76s0,1.22-.01,1.76c-.01.98-.01,1.72,0,1.76.03.31,0,.65.02.9.04.38.13.72.19,1.01.07.32.53.62,1.07.85.43.19.91.5,1.35.52.48.03.97-.26,1.46-.25.46,0,.68.14,1.36.17.6.03,1.2.09,1.79.07s1.17-.13,1.79-.17c.57-.04,1.16-.19,1.79-.21.41-.02.95.04,1.54.09.49.05,1.01.15,1.51.22.54.08,1.07.1,1.52.17.87.14.81-.01,1.52.26.82.32.67.57,1.39,1.14.5.39.92.85,1.12,1.29.23.52.57,1,.56,1.5,0,.55-.13,1.13-.32,1.6-.18.44-.47.87-.76,1.26s-.79.57-1.16.89-.65.74-1.06.98-.91.35-1.36.5c-.51.17-1,.45-1.53.57s-1.09.05-1.63.11-1.07.14-1.61.16-1.09.11-1.62.1c-.51-.01-1.01-.18-1.52-.21s-1.03-.01-1.53-.05-1.03-.03-1.52-.08c-.52-.05-1.05,0-1.53-.04-1.02-.15-1.4-.38-2.02-.38-.29,0-.37.12-.75.3-.11.11-.39.27-.51.92-.11.64-.1,1.02-.16,2.04-.05.45-.14.95-.17,1.49-.03.48.2.99.18,1.5s-.26.99-.27,1.49.12,1.01.11,1.5c0,.52-.02,1.03-.02,1.49,0,.55,0,1.06,0,1.49.01.91-.09.75-.01,1.49.09.51.19,1.03.28,1.56s.06,1.05.12,1.58.23,1.03.27,1.56.02,1.05.02,1.58.11,1.06.06,1.59-.16,1.05-.26,1.57-.27,1.02-.43,1.53-.23,1.05-.45,1.54c-.3.59-.38.52-.76,1.11-.25.38-.55.79-.81,1.06-.32.35-.86.66-1.38,1-.47.3-.93.45-1.54.39-.5-.05-1.27-.02-1.95-.33s-1.28-.73-1.61-1.19c-.32-.44-.38-1.03-.56-1.52-.21-.54-.56-1.02-.62-1.5-.06-.87,0-.84,0-1.75,0-.63,0-1.31.04-1.76.07-.57.17-1.06.24-1.52.07-.52.04-1.01.08-1.53.04-.5.18-.99.2-1.49s.15-1,.15-1.5-.02-1-.04-1.51-.28-.98-.32-1.48c-.07-.79.14-.67.08-1.59-.03-.47.02-1.02,0-1.58-.03-.53-.3-1.06-.31-1.58-.01-.58,0-1.14.01-1.59.05-.74.01-.72.08-1.49.05-.55.21-1.11.25-1.48.04-.44.07-.84.09-1.23.02-.43.02-.83-.02-1.22-.06-.47.05-1.02,0-1.59-.04-.5-.3-1.02-.32-1.57-.03-.52.04-1.05.03-1.59s-.1-1.06-.11-1.59-.02-1.08-.02-1.59c0-.56.04-1.09.04-1.59,0-.59.17-1.13.17-1.58,0-.97,0-.79.04-1.58.06-.55.09-1.09.13-1.63s-.06-1.1-.03-1.65.19-1.08.22-1.63-.12-1.1-.1-1.65.23-1.08.24-1.63-.02-1.09,0-1.64-.09-1.09-.07-1.64c0-.39.17-.88.17-1.44,0-.45.05-.93.07-1.43.02-.47,0-.95.05-1.43s.12-.95.22-1.42c.09-.44.23-.9.4-1.38.16-.45.25-.93.5-1.36s.45-.9.8-1.24.85-.45,1.31-.66c.41-.19.85-.29,1.37-.35.8-.03.77-.13,1.59-.09.59.02,1.21.06,1.6.11.39.05.85.2,1.28.24.69.07.64.14,1.29.18.53.02,1.06.04,1.59.05s1.06-.2,1.59-.2,1.06.09,1.59.07,1.06-.02,1.59-.06c.56-.04,1.1-.22,1.65-.24s1.12.19,1.67.18,1.11-.13,1.66-.13,1.12-.12,1.67-.11c.53,0,1.05.29,1.57.3s1.06-.29,1.58-.29,1.05.08,1.57.07,1.03-.1,1.56-.13c.26-.04.27.02.52,0Z"/>
        <path d="M109.78,329.48c.22-.57.39-1.16.76-1.54.41-.42,1.02-.55,1.54-.76s1.06-.31,1.63-.31,1.1.08,1.64.26.98.47,1.42.83c0,0,.4.5.83,1.26.24.43.73.8.95,1.27.25.54.25,1.14.3,1.54.08.65.07,1.3.06,1.92,0,.72.02,1.38-.03,1.92-.02.51.02,1.03.02,1.55s-.04,1.03-.03,1.56-.03,1.03,0,1.56c.02.77.08.64.09,1.53,0,.46-.06,1-.05,1.54s.19,1.05.19,1.54c0,.62-.07,1.18-.08,1.53-.01.34.02.86,0,1.46,0,.45-.16.95-.16,1.47,0,.49.02.99.02,1.48,0,.53-.03,1.03-.02,1.48.01.66,0,1.2.01,1.47,0,.06.12.63.1,1.51,0,.44-.18.95-.19,1.52,0,.48.05.99.05,1.52,0,.49,0,1,0,1.52s.16,1.01.17,1.52-.21,1.04-.19,1.53c.02.35.28.85.23,1.41-.04.44-.24.91-.31,1.38s-.05.98-.12,1.4c-.12.67-.21,1.2-.25,1.38-.04.16-.1.8-.23,1.67-.08.5-.21,1.06-.31,1.66-.09.55-.25,1.11-.34,1.66-.1.59-.36,1.13-.45,1.64-.14.76-.19,1.36-.29,1.64-.37.76-.26.6-.8,1.49-.25.42-.7.82-1.04,1.35-.29.45-.6.92-.94,1.41-.31.45-.59.95-.93,1.42s-.66.92-1.02,1.36-.69.92-1.07,1.32c-.4.44-.88.75-1.28,1.12-.45.41-.77.93-1.21,1.2-.44.27-1,.36-1.5.6-.46.23-.89.59-1.4.79s-.96.46-1.48.64-1.08.08-1.61.23-.99.41-1.53.52-1.03.34-1.56.42-1.09-.09-1.63-.04-1.06.04-1.6.06-1.07.12-1.6.1-1.08.02-1.61-.03-1.04-.31-1.57-.39-1.08-.04-1.6-.17-1.03-.3-1.54-.47c-.37-.13-.86-.3-1.4-.54-.43-.19-.9-.4-1.37-.64s-.96-.35-1.4-.59c-.47-.26-.92-.51-1.32-.75-.53-.33-.88-.76-1.14-1-.2-.19-.65-.67-1.1-1.14s-1.01-.86-1.2-1.04c-.41-.38-.65-.92-1.01-1.32s-.81-.76-1.13-1.2-.56-.95-.85-1.42-.59-.93-.84-1.42-.54-.96-.75-1.47-.35-1.04-.53-1.57-.34-1.04-.49-1.58-.24-1.07-.35-1.61-.3-1.07-.39-1.61-.16-1.09-.22-1.64c0,0,.15-.02.15-.03s-.12,0-.12,0c-.04-.52.07-1.04.03-1.56s-.27-1.02-.3-1.54.11-1.04.08-1.56-.06-1.03-.09-1.55-.03-1.04-.05-1.55-.13-1.03-.15-1.55-.08-1.03-.09-1.55-.11-1.03-.12-1.55.2-1.04.19-1.56-.1-1.03-.11-1.55-.19-1.03-.2-1.55.23-1.04.22-1.56c0-.03-.2-.02-.2-.05s.18-.02.19-.05c.02-.52.05-1.04.06-1.55s-.2-1.04-.19-1.56.03-1.03.03-1.55-.08-1.03-.08-1.55,0-1.04,0-1.55c0-.52.02-1.04.02-1.56s0-1.04.02-1.56,0-1.04.01-1.56.29-1.03.31-1.56.06-1.04.09-1.56c.02-.45-.17-.97-.09-1.49.07-.47.34-.92.48-1.42s.24-.94.45-1.4.37-.91.67-1.32.72-.63,1.11-.96c.5-.32.88-.68,1.34-.82.56-.16,1.1-.26,1.59-.22.56.05,1.03.35,1.48.57.51.25.92.57,1.27.91.47.46.73.92.87,1.26.05.12.18.07.23.18,0,0,.04,0,.05,0s-.19.07-.19.08c.15.44.36.86.46,1.32s.3.91.36,1.37.06.95.09,1.41c.04.49.07.96.09,1.4.03.81.03.66.05,1.63.01.48-.1,1.04-.09,1.63,0,.53-.01,1.08-.02,1.63s.08,1.12.06,1.63c-.02.62.01,1.19-.04,1.62-.05.75-.09.61-.1,1.5,0,.45-.05.97-.05,1.5,0,.5.12,1.01.13,1.51,0,.54.05,1.05.07,1.5.01.32-.11.9-.13,1.57,0,.49,0,1.03,0,1.57s.07,1.09.06,1.58c-.01.7-.05,1.28-.04,1.57,0,.76-.11.58-.12,1.53,0,.44,0,.95,0,1.52,0,.47-.14.99-.13,1.53,0,.49.26,1,.27,1.52s-.18,1.02-.16,1.53.14,1.02.17,1.52.24,1.02.28,1.51c.04.53-.15,1.06-.09,1.55.07.54.29,1.03.38,1.48.11.55.18,1.11.33,1.64s.48,1.02.68,1.54.31,1.09.54,1.58c.25.52.47,1.04.73,1.51.3.53.72.96,1.06,1.42.37.5.76.92,1.17,1.3.46.43.84.91,1.32,1.17.45.23.93.42,1.42.57s1.01.12,1.52.2.99.11,1.51.14,1,.01,1.52-.01,1-.08,1.51-.15,1.05.08,1.55-.02.96-.38,1.45-.51.99-.26,1.47-.42c.54-.19,1.08-.32,1.55-.59s.93-.62,1.34-.98.87-.71,1.22-1.15.55-.97.82-1.45.63-.92.85-1.44.38-1.04.54-1.58.22-1.08.33-1.63c.15-.84.12-.7.26-1.69.07-.51-.04-1.12.05-1.72.07-.56.27-1.13.33-1.69.07-.62.12-1.21.16-1.71.04-.59,0-1.19.03-1.8s.04-1.2.08-1.8.08-1.2.12-1.8.2-1.19.26-1.79c.03-.33.14-.96.11-1.71-.02-.53.02-1.12-.01-1.71s-.24-1.17-.28-1.7c-.04-.73-.1-1.34-.12-1.7-.02-.31-.11-.84-.11-1.46,0-.45.1-.95.12-1.46.01-.48-.09-.99-.08-1.47.01-.52.16-1.02.17-1.46.01-.65.05-1.17.04-1.46-.03-.36.13-.96.17-1.68.03-.53-.19-1.13-.15-1.71s.31-1.16.34-1.68c.05-.76-.07-1.39-.07-1.7-.01-.26-.1-.92-.08-1.74.01-.53.18-1.13.22-1.73s-.01-1.21.05-1.74c.08-.74.34-1.33.48-1.65Z"/>
        <path d="M30.42,333.2c.38.7.23.55.71,1.43.21.4.46.88.74,1.41.23.43.47.91.74,1.41.24.44.68.81.94,1.3.24.45.33,1.01.58,1.49s.71.82.96,1.3.4.99.66,1.46.62.88.87,1.35.49.95.74,1.42.51.95.75,1.42c.26.49.43,1,.67,1.46.26.5.35,1.05.58,1.5.27.51.6.94.82,1.37.29.56.66.98.84,1.35.22.41.25.96.5,1.4.24.41.52.82.77,1.25s.58.79.82,1.22.5.84.73,1.28.47.86.68,1.31c.2.44.48.84.68,1.28s.34.91.54,1.35.31.91.51,1.35c.22.49.35,1.02.57,1.51s.7.86.92,1.35c.25.54.09.61.32,1.16.19.49.55.91.84,1.4.26.45.37,1.01.68,1.5.44.75.74,1.17.87,1.39.08-.52.28-1.12.32-1.74.05-.96.09-.9.12-1.81.03-.5.05-1.01.07-1.51s.09-1.01.1-1.51-.14-1.01-.14-1.51-.03-1.01-.02-1.52.03-1.01.03-1.52c.02-.72.13-.62.18-1.43.03-.45.08-.96.11-1.44.03-.55.01-1.07.03-1.44.04-.66-.04-1.3-.04-1.93s-.12-1.27-.2-1.91c-.07-.51-.07-1.04-.12-1.55s-.09-1.03-.13-1.55,0-1.04-.04-1.56-.12-1.03-.14-1.55-.11-1.04-.11-1.56.27-1.04.28-1.55-.12-1.04-.11-1.56-.02-1.04,0-1.56.13-1.04.15-1.55.08-1.03.11-1.55-.06-1.04-.03-1.56c.02-.39.25-.96.29-1.64.03-.51-.11-1.09-.03-1.66s.16-1.11.31-1.63c.14-.47.33-1,.61-1.48.26-.44.6-.88,1.03-1.23.4-.33,1.11-.59,1.77-.68.94-.12,1.85.11,1.86.11.66.16,1.12.5,1.54.88.47.42.76.92,1.01,1.45.28.6.63,1.16.73,1.67.08.44.09.91.13,1.35.04.47.18.93.19,1.35,0,.54-.21,1.01-.21,1.35,0,.53-.04,1.07-.03,1.6s.12,1.06.13,1.6-.09,1.06-.09,1.6.01,1.07.02,1.6,0,1.07,0,1.6.26,1.06.27,1.6-.23,1.07-.22,1.61.21,1.07.22,1.6.05,1.07.05,1.61.04,1.07.04,1.61-.08,1.07-.08,1.61.07,1.07.06,1.6c0,.54-.12,1.07-.12,1.6s.1,1.07.09,1.6-.12,1.06-.12,1.59-.14,1.06-.14,1.59.22,1.06.23,1.59-.11,1.06-.09,1.6c.04.51.23,1.09.25,1.72.02.55-.28,1.14-.28,1.74s.27,1.16.27,1.74.03,1.19.02,1.74c-.01.64-.04,1.23-.05,1.74-.03,1.05-.24.86-.28,1.72-.03.48.11.98.1,1.5-.01.49-.24.98-.25,1.49s.18.99.17,1.5-.16.99-.18,1.49-.05.99-.09,1.49.09,1.01.03,1.51-.34.96-.43,1.45c-.1.56-.09,1.11-.28,1.58-.21.51-.41,1.04-.72,1.45s-.82.71-1.24,1.04c-.4.32-.91.62-1.44.96-.47.3-.93.72-1.49.9-.53.17-1.13.11-1.74.07-.53-.03-1.05,0-1.51-.17s-.96-.4-1.37-.69-.67-.77-1.02-1.13-.8-.65-1.1-1.06-.6-.84-.85-1.26c-.26-.45-.53-.9-.74-1.33-.31-.61,0-.67-.36-1.36-.2-.38-.51-.76-.73-1.17-.24-.44-.54-.83-.72-1.17-.22-.4-.49-.79-.71-1.21s-.31-.9-.52-1.32-.38-.85-.58-1.28c-.22-.47-.61-.85-.83-1.32s-.41-.94-.63-1.41-.36-.97-.58-1.43-.45-.93-.67-1.39-.59-.86-.82-1.32-.47-.91-.69-1.37-.45-.92-.68-1.38-.22-1.04-.46-1.49-.61-.84-.85-1.29-.55-.87-.8-1.32-.37-.96-.62-1.41c-.39-.7-.26-.58-.73-1.43-.23-.41-.44-.91-.72-1.43-.25-.45-.51-.92-.77-1.4s-.67-.86-.92-1.33-.51-.97-.74-1.42c-.27-.52-.5-1.02-.71-1.43-.24-.46-.39-1.23-.66-1.89-.15-.37-.53-.65-.7-1.03s-.23-.8-.41-1.16c-.35-.7-.8-1.18-1.12-1.58-.01.05-.13.61-.25,1.49-.07.49-.12,1.06-.18,1.61s.04,1.14.02,1.62c-.02.57,0,1.14-.01,1.7s.03,1.15.03,1.7c0,.59-.07,1.16-.06,1.69.02.62-.01,1.19,0,1.7.02.73.2,1.32.2,1.69,0,.53-.1,1.07-.09,1.61s-.2,1.07-.19,1.61.04,1.07.05,1.61.02,1.07.03,1.61.32,1.06.33,1.6.01,1.07.03,1.61-.13,1.08-.12,1.61.06,1.07.06,1.61-.08,1.08-.08,1.61.15,1.08.14,1.61.03,1.07,0,1.61c0,.77-.09.65-.06,1.53.02.47.02,1,.03,1.54.02.49.04,1.02.04,1.57,0,.52.07,1.05.04,1.58s-.07,1.07-.13,1.58c-.1.77-.51,1.49-.76,2.19-.13.35-.26.71-.49,1.07-.21.33-.44.61-.77.87-.38.3-.74.51-1.2.61s-.89.18-1.37.08c-.37-.08-.95-.19-1.42-.46-.66-.37-.5-.57-1.09-1.01-.37-.31-.8-.53-1.07-.91s-.6-.77-.79-1.19-.14-.98-.27-1.41c-.19-.61-.39-1.21-.49-1.82-.11-.67-.32-1.3-.34-1.87-.02-.85-.02-.69-.02-1.7,0-.5.12-1.08.13-1.69,0-.55.06-1.12.08-1.69s.02-1.15.06-1.69c.04-.62.04-1.2.1-1.69.05-.57.15-1.14.2-1.71s.19-1.13.23-1.7-.23-1.16-.19-1.73.2-1.13.24-1.7.17-1.14.21-1.71c.03-.52-.18-1.05-.18-1.58s.19-1.05.18-1.58-.12-1.04-.14-1.58c-.02-.55.02-1.12.01-1.69s-.09-1.13-.08-1.7.05-1.13.09-1.69c.04-.77.05-.58.07-1.54,0-.44.15-.96.16-1.55,0-.48-.05-1-.04-1.55,0-.49.08-1.01.08-1.55,0-.5-.19-1.03-.18-1.55s-.02-1.03-.02-1.55.22-1.04.23-1.55-.01-1.05,0-1.55c0-.54,0-1.06,0-1.55,0-.55.06-1.07.06-1.55,0-.37-.24-.91-.25-1.56,0-.47.11-1,.12-1.56,0-.5-.03-1.02,0-1.56s.06-1.04.12-1.56.13-1.04.23-1.55c.09-.49.17-1.01.32-1.51s.35-.97.58-1.43.62-.81.95-1.2c.26-.31.4-.78.75-1.02s.8-.24,1.21-.37c.43-.14.85-.28,1.3-.28s.9-.02,1.35.09c.53.12,1.05.28,1.48.53.46.27.71.79,1.07,1.14.38.38.73.75,1.01,1.14.39.56.81,1.09,1.1,1.61"/>
        <path d="M194.54,310.75c-.51.06-1.02.17-1.53.22s-1.03.05-1.54.09-1.02.15-1.54.19-1.03.06-1.55.1c-.56.04-1.13-.05-1.7-.06s-1.12-.04-1.7-.06c-.45-.02-.91-.04-1.38-.04s-.92,0-1.38.01c-.51.03-1.03.11-1.54.14-.39.01-.98-.13-1.65-.12-.51,0-1.08.1-1.65.16s-1.1.17-1.62.3c-.46.12-.95.33-1.43.58-.45.23-.96.43-1.32.82-.35.39-.45,1.04-.55,1.61-.13.74-.11,1.43-.02,1.67.21.6.54,1.04.94,1.43.43.42.87.82,1.39,1.05.58.25,1.18.43,1.68.51.44.08.92-.03,1.37,0,.47.03.93.2,1.35.2.54,0,1.02-.02,1.35-.02.56,0,1.13-.13,1.69-.13.53.01,1.07.04,1.55.03.68-.02,1.25-.03,1.54-.03.47,0,1,.06,1.56.06.49,0,1.02-.01,1.56-.02.51,0,1.03-.03,1.56-.03s1.05-.07,1.56-.08,1.06,0,1.56-.01c.55,0,1.08.11,1.57.1.58,0,1.11-.18,1.56-.19.96-.01.78.02,1.56,0,.36-.02,1.1.07,2.22.12.53.02,1.11.1,1.7.08s1.15-.09,1.69-.17c.56-.08,1.12-.22,1.62-.45.49-.22,1.04-.55,1.44-1.16.22-.34.43-.71.5-1.12s-.04-.8-.11-1.22c-.05-.32-.17-.78-.36-1.19-.27-.59-.25-.57-.64-1.05-.51-.63-.52-.58-1.18-1.1-.47-.37-.99-.72-1.36-.86-.44-.16-.86-.39-1.3-.48-.48-.09-.96,0-1.38-.02-.76-.03-.63-.16-1.52-.15-.46,0-.98.09-1.52.11-.51.01-1.03.05-1.53.08-.56.04-1.09.02-1.53.09Z"/>
        <path d="M151.37,372.42c.28-.06.68-.13,1.16-.11s1.05.14,1.64.42c.58.28,1.05.66,1.4,1.1.5.62.78,1.35.89,2.04.06.37.08.74.07,1.08-.02.6-.14,1.14-.33,1.55-.22.48-.53.87-.9,1.2s-.82.59-1.3.75c-.4.13-.81.21-1.25.2-.41,0-.83-.08-1.25-.22-.57-.19-.9-.19-1.37-.5-.52-.35-1.03-.74-1.42-1.19-.52-.6-.83-1.32-.83-2.19,0,0-.03-.21-.01-.44.02-.26.1-.62.26-1.03.15-.41.36-.76.59-1.06.29-.37.62-.67.94-.89.13-.08.25-.17.39-.25.41-.22.86-.36,1.31-.46Z"/>
      </g>
    </g>
  </g>
</svg>