<svg width="121" height="121" viewBox="0 0 121 121" fill="none" xmlns="http://www.w3.org/2000/svg">
<rect width="121" height="121" rx="18" fill="white"/>
<path d="M61.0377 9.08201C61.3167 9.08201 61.5958 9.06159 61.8714 9.0684C62.147 9.0752 62.426 9.15687 62.7016 9.16707C62.9772 9.17728 63.263 9.06159 63.542 9.07861C63.8211 9.09562 64.0865 9.25214 64.3655 9.27256C64.6445 9.29297 64.9337 9.16027 65.2127 9.18749C65.4917 9.21471 65.7707 9.23172 66.0464 9.26575C66.322 9.29978 66.5772 9.49372 66.8528 9.53455C67.1284 9.57539 67.4006 9.62302 67.6762 9.66726C67.9518 9.71149 68.2444 9.65024 68.5166 9.69788C68.7888 9.74552 69.0678 9.77954 69.3401 9.83398C69.6123 9.88842 69.8913 9.92926 70.1635 9.9871C70.4357 10.0449 70.6909 10.1776 70.9631 10.2423C71.2353 10.3069 71.4905 10.4226 71.7627 10.4907C72.0349 10.5587 72.3173 10.5723 72.5861 10.6472C72.8549 10.7221 73.1305 10.7697 73.3959 10.848C73.6613 10.9262 73.9336 11.0011 74.1956 11.0861C74.4576 11.1712 74.7025 11.3277 74.9679 11.4128C75.2333 11.4979 75.5362 11.4774 75.7982 11.5693C76.0602 11.6612 76.295 11.8347 76.557 11.93C76.819 12.0253 77.0741 12.1409 77.3327 12.2396C77.5913 12.3383 77.8533 12.4438 78.1085 12.5458C78.3637 12.6479 78.6257 12.7534 78.8809 12.8623C79.1361 12.9712 79.4458 12.9644 79.6975 13.0767C79.9493 13.1889 80.1569 13.4135 80.4087 13.5292C80.6605 13.6449 80.9191 13.7538 81.1675 13.8729C81.4159 13.992 81.671 14.1144 81.9194 14.2369C82.1678 14.3594 82.4298 14.4649 82.6748 14.5908C82.9198 14.7167 83.1376 14.9072 83.3791 15.0399C83.6207 15.1726 83.9031 15.2475 84.1447 15.3836C84.3863 15.5197 84.5939 15.7205 84.8321 15.8634C85.0702 16.0063 85.3629 16.0641 85.5976 16.207C85.8324 16.3499 86.0638 16.5201 86.2952 16.6698C86.5265 16.8195 86.7443 17.0032 86.9723 17.1564C87.2003 17.3095 87.4861 17.3979 87.7107 17.5545C87.9352 17.711 88.1156 17.9492 88.3401 18.1125C88.5647 18.2758 88.7791 18.4596 88.9968 18.6263C89.2146 18.793 89.3983 19.021 89.6093 19.1945C89.8203 19.368 90.0618 19.5212 90.2694 19.6981C90.477 19.875 90.7628 19.9873 90.9635 20.1677C91.1439 20.331 91.3548 20.4875 91.61 20.61C91.838 20.7223 92.0932 20.7937 92.3552 20.8754C92.6172 20.9571 92.8554 21.0523 93.1174 21.1068C93.3794 21.1612 93.6584 21.1374 93.9136 21.1646C94.1994 21.1952 94.4614 21.2531 94.6996 21.2531C95.1249 21.2531 95.1249 21.2667 95.5502 21.2667C95.9755 21.2667 95.9755 21.2259 96.4043 21.2259C96.833 21.2259 96.8296 21.2361 97.2583 21.2361C97.687 21.2361 97.6836 21.362 98.1124 21.362C98.5411 21.362 98.5411 21.3688 98.9664 21.3688C99.3917 21.3688 99.3951 21.3347 99.8205 21.3347C100.096 21.3347 100.365 21.3313 100.606 21.43C100.848 21.5287 101.025 21.7465 101.216 21.937C101.406 22.1275 101.665 22.2773 101.77 22.5256C101.876 22.774 101.797 23.0565 101.797 23.3321C101.797 23.7438 101.818 23.7438 101.818 24.1555C101.818 24.5672 101.954 24.5672 101.954 24.9789C101.954 25.3906 101.896 25.3906 101.896 25.8023C101.896 26.2141 101.77 26.2141 101.77 26.6258C101.77 27.0375 101.927 27.0375 101.927 27.4492C101.927 27.8609 101.808 27.8609 101.808 28.2726C101.808 28.6843 101.855 28.6843 101.855 29.0961C101.855 29.5078 101.859 29.5078 101.859 29.9229C101.859 30.338 101.845 30.3346 101.845 30.7497C101.845 30.9913 101.78 31.2737 101.808 31.5629C101.831 31.8181 101.899 32.0903 101.94 32.3625C101.981 32.6348 102.087 32.8865 102.144 33.1485C102.202 33.4105 102.267 33.6862 102.342 33.9311C102.427 34.2067 102.57 34.4449 102.672 34.6627C102.791 34.9145 102.818 35.2139 102.941 35.4759C103.063 35.7379 103.254 35.9489 103.373 36.2143C103.492 36.4797 103.519 36.7655 103.631 37.0309C103.744 37.2963 103.88 37.5379 103.989 37.8033C104.098 38.0687 104.291 38.2899 104.397 38.5553C104.502 38.8207 104.553 39.0997 104.656 39.3685C104.758 39.6373 104.853 39.8993 104.952 40.1681C105.05 40.4369 105.108 40.7125 105.203 40.9847C105.299 41.2569 105.455 41.4985 105.544 41.7707C105.632 42.0429 105.758 42.2981 105.846 42.5703C105.935 42.8425 105.949 43.1317 106.03 43.4074C106.112 43.683 106.166 43.9586 106.241 44.2342C106.316 44.5098 106.418 44.7718 106.49 45.0508C106.561 45.3298 106.711 45.5782 106.779 45.8572C106.847 46.1362 106.816 46.4323 106.881 46.7079C106.945 46.9835 107.041 47.2523 107.099 47.5313C107.156 47.8103 107.221 48.0859 107.272 48.3649C107.323 48.6439 107.333 48.9298 107.381 49.2122C107.429 49.4946 107.531 49.7634 107.572 50.0458C107.612 50.3282 107.674 50.6038 107.711 50.8897C107.749 51.1755 107.701 51.4613 107.731 51.7471C107.762 52.0329 107.776 52.3119 107.8 52.5978C107.823 52.8836 107.823 53.166 107.84 53.4484C107.857 53.7308 107.861 54.0132 107.874 54.299C107.888 54.5849 107.891 54.8639 107.898 55.1497C107.905 55.4355 108.024 55.7145 108.024 56.0003C108.024 56.2862 107.888 56.5686 107.881 56.8544C107.874 57.1402 107.997 57.4294 107.987 57.7118C107.976 57.9943 107.874 58.2767 107.861 58.5625C107.847 58.8483 107.786 59.1273 107.766 59.4097C107.745 59.6922 107.796 59.9848 107.766 60.2672C107.735 60.5496 107.674 60.832 107.64 61.111C107.606 61.39 107.578 61.6793 107.541 61.9583C107.504 62.2373 107.589 62.5435 107.548 62.8225C107.507 63.1016 107.418 63.3806 107.371 63.6596C107.323 63.9386 107.201 64.2108 107.146 64.4864C107.092 64.762 106.973 65.0342 106.915 65.3098C106.857 65.5854 106.837 65.8747 106.772 66.1503C106.707 66.4259 106.602 66.6947 106.534 66.9703C106.466 67.2459 106.507 67.5521 106.435 67.8243C106.364 68.0966 106.262 68.3688 106.183 68.641C106.105 68.9132 106.068 69.2024 105.986 69.4746C105.904 69.7468 105.768 70.0054 105.68 70.2742C105.591 70.543 105.404 70.7812 105.309 71.05C105.214 71.3188 105.224 71.625 105.125 71.8904C105.026 72.1559 104.849 72.394 104.744 72.6594C104.639 72.9248 104.557 73.2004 104.448 73.459C104.339 73.7176 104.268 74.0035 104.155 74.2621C104.043 74.5207 103.904 74.7758 103.784 75.031C103.665 75.2862 103.471 75.5142 103.349 75.7694C103.226 76.0246 103.206 76.3376 103.077 76.586C102.947 76.8344 102.699 77.0318 102.563 77.2767C102.447 77.4911 102.481 77.8041 102.393 78.0798C102.315 78.3247 102.189 78.5697 102.131 78.8419C102.073 79.1141 101.974 79.3625 101.937 79.6279C101.899 79.8933 101.913 80.1792 101.893 80.4378C101.869 80.727 101.78 81.0026 101.78 81.2442C101.78 81.6729 101.933 81.6729 101.933 82.0982C101.933 82.5235 101.916 82.5235 101.916 82.9523C101.916 83.381 101.916 83.3776 101.916 83.8063C101.916 84.235 101.838 84.2316 101.838 84.6604C101.838 85.0891 101.947 85.0891 101.947 85.5144C101.947 85.9397 101.886 85.9431 101.886 86.3685C101.886 86.7938 101.876 86.7938 101.876 87.2225C101.876 87.6513 101.78 87.6513 101.78 88.0766C101.78 88.5019 101.852 88.5053 101.852 88.9306C101.852 89.3559 101.937 89.3594 101.937 89.7847C101.937 90.21 101.937 90.2134 101.937 90.6387C101.937 91.0641 101.91 91.0675 101.91 91.4928C101.91 91.9181 101.852 91.9215 101.852 92.3502C101.852 92.779 101.831 92.779 101.831 93.2043C101.831 93.6296 101.855 93.633 101.855 94.0583C101.855 94.4837 101.797 94.4871 101.797 94.9158C101.797 95.3445 101.828 95.3445 101.828 95.7698C101.828 96.1952 101.879 96.1986 101.879 96.6239C101.879 97.0492 101.852 97.0526 101.852 97.4813C101.852 97.9101 101.899 97.9101 101.899 98.3388C101.899 98.7675 101.831 98.7675 101.831 99.1962C101.831 99.625 101.801 99.625 101.801 100.054C101.801 100.482 101.808 100.482 101.808 100.911C101.808 101.187 101.859 101.473 101.757 101.714C101.654 101.956 101.464 102.18 101.277 102.367C101.09 102.555 100.858 102.715 100.61 102.817C100.361 102.919 100.096 102.977 99.8205 102.977C99.3986 102.977 99.3986 102.956 98.9766 102.956C98.5547 102.956 98.5547 103.034 98.1328 103.034C97.7109 103.034 97.7109 102.888 97.2889 102.888C96.867 102.888 96.867 102.905 96.4451 102.905C96.0232 102.905 96.0232 102.994 95.6013 102.994C95.1793 102.994 95.1793 102.963 94.7574 102.963C94.3355 102.963 94.3355 103.041 93.9136 103.041C93.4917 103.041 93.4917 102.874 93.0697 102.874C92.6478 102.874 92.6478 102.953 92.2259 102.953C91.804 102.953 91.804 102.98 91.382 102.98C90.9601 102.98 90.9601 102.973 90.5382 102.973C90.1163 102.973 90.1163 102.96 89.6944 102.96C89.2724 102.96 89.2724 103.024 88.8505 103.024C88.4286 103.024 88.4286 103.038 88.0067 103.038C87.5848 103.038 87.5848 103.041 87.1628 103.041C86.7409 103.041 86.7409 103.024 86.319 103.024C85.8971 103.024 85.8971 102.98 85.4786 102.98C85.06 102.98 85.0566 103.041 84.6381 103.041C84.2196 103.041 84.2162 103.011 83.7977 103.011C83.3792 103.011 83.3757 103.011 82.9538 103.011C82.5319 103.011 82.5319 102.891 82.11 102.891C81.6881 102.891 81.6881 103.004 81.2661 103.004C80.8442 103.004 80.8442 102.915 80.4223 102.915C80.0004 102.915 80.0004 103.031 79.5785 103.031C79.1565 103.031 79.1565 102.912 78.7346 102.912C78.3127 102.912 78.3127 103.014 77.8942 103.014C77.4757 103.014 77.4723 102.902 77.0537 102.902C76.6352 102.902 76.6318 103.045 76.2133 103.045C75.7948 103.045 75.7914 103.007 75.3729 103.007C74.9543 103.007 74.9509 102.878 74.5324 102.878C74.1139 102.878 74.1105 102.973 73.692 102.973C73.2735 102.973 73.2701 102.929 72.8515 102.929C72.433 102.929 72.4296 103.051 72.0077 103.051C71.5858 103.051 71.5858 102.997 71.1638 102.997C70.7419 102.997 70.7419 102.922 70.32 102.922C69.8981 102.922 69.8981 102.953 69.4762 102.953C69.0542 102.953 69.0542 103.031 68.6323 103.031C68.2104 103.031 68.2104 103 67.7885 103C67.3666 103 67.3666 102.97 66.9446 102.97C66.5227 102.97 66.5227 102.895 66.1042 102.895C65.6857 102.895 65.6823 102.98 65.2603 102.98C64.8384 102.98 64.8384 102.949 64.4165 102.949C63.9946 102.949 63.9946 102.922 63.5727 102.922C63.1507 102.922 63.1507 102.902 62.7288 102.902C62.3069 102.902 62.3069 102.983 61.885 102.983C61.4631 102.983 61.4631 102.997 61.0411 102.997C60.6192 102.997 60.6192 102.874 60.1973 102.874C59.7754 102.874 59.7754 103.034 59.3534 103.034C58.9315 103.034 58.9315 102.932 58.5096 102.932C58.0877 102.932 58.0877 102.966 57.6658 102.966C57.2438 102.966 57.2438 102.881 56.8219 102.881C56.4 102.881 56.4 103.048 55.9781 103.048C55.5562 103.048 55.5562 103.024 55.1342 103.024C54.7123 103.024 54.7123 103.048 54.2904 103.048C53.8685 103.048 53.8685 102.898 53.4466 102.898C53.0246 102.898 53.0246 102.932 52.6027 102.932C52.1808 102.932 52.1808 103.034 51.7589 103.034C51.3369 103.034 51.3369 103.048 50.915 103.048C50.4931 103.048 50.4931 102.878 50.0712 102.878C49.6493 102.878 49.6493 102.966 49.2273 102.966C48.8054 102.966 48.8054 102.888 48.3835 102.888C47.9616 102.888 47.9616 103.051 47.5397 103.051C47.1177 103.051 47.1177 103 46.6958 103C46.2739 103 46.2739 103 45.852 103C45.43 103 45.43 102.878 45.0081 102.878C44.5862 102.878 44.5862 102.898 44.1643 102.898C43.7424 102.898 43.7424 102.987 43.3204 102.987C42.8985 102.987 42.8985 102.98 42.4766 102.98C42.0547 102.98 42.0547 102.902 41.6328 102.902C41.2108 102.902 41.2108 103.048 40.7889 103.048C40.367 103.048 40.367 102.966 39.9451 102.966C39.5231 102.966 39.5231 102.936 39.1012 102.936C38.6793 102.936 38.6793 103.034 38.2574 103.034C37.8355 103.034 37.8355 103.014 37.4135 103.014C36.9916 103.014 36.9916 102.878 36.5697 102.878C36.1478 102.878 36.1478 103.034 35.7259 103.034C35.3039 103.034 35.3039 103.038 34.882 103.038C34.4601 103.038 34.4601 102.963 34.0382 102.963C33.6162 102.963 33.6162 102.898 33.1943 102.898C32.7724 102.898 32.7724 102.936 32.3505 102.936C31.9286 102.936 31.9286 102.994 31.5066 102.994C31.0847 102.994 31.0847 103.034 30.6628 103.034C30.2409 103.034 30.2409 102.905 29.819 102.905C29.397 102.905 29.397 102.946 28.9751 102.946C28.5532 102.946 28.5532 102.864 28.1313 102.864C27.7093 102.864 27.7093 102.905 27.2874 102.905C26.8655 102.905 26.8655 102.983 26.4436 102.983C26.0217 102.983 26.0217 102.966 25.5997 102.966C25.1778 102.966 25.1778 102.929 24.7525 102.929C24.3272 102.929 24.3306 102.915 23.9053 102.915C23.4799 102.915 23.4833 103.021 23.058 103.021C22.6327 103.021 22.6361 102.854 22.2108 102.854C21.9351 102.854 21.68 102.871 21.4384 102.772C21.1968 102.674 20.9552 102.541 20.7647 102.35C20.5741 102.16 20.5027 101.905 20.3972 101.656C20.2917 101.408 20.2441 101.183 20.2441 100.908C20.2441 100.479 20.1386 100.479 20.1386 100.054C20.1386 99.6284 20.1386 99.6284 20.1386 99.1996C20.1386 98.7709 20.1794 98.7743 20.1794 98.3456C20.1794 97.9169 20.193 97.9203 20.193 97.4915C20.193 97.0628 20.1012 97.0628 20.1012 96.6375C20.1012 96.2122 20.1828 96.2088 20.1828 95.7834C20.1828 95.3581 20.1114 95.3581 20.1114 94.9294C20.1114 94.5007 20.0909 94.5007 20.0909 94.0753C20.0909 93.65 20.1216 93.6466 20.1216 93.2213C20.1216 92.796 20.2305 92.7926 20.2305 92.3672C20.2305 91.9419 20.1284 91.9385 20.1284 91.5132C20.1284 91.0879 20.193 91.0845 20.193 90.6591C20.193 90.2338 20.2441 90.2304 20.2441 89.8017C20.2441 89.373 20.1012 89.373 20.1012 88.9476C20.1012 88.5223 20.1794 88.5189 20.1794 88.0936C20.1794 87.6683 20.1454 87.6649 20.1454 87.2361C20.1454 86.8074 20.1182 86.8074 20.1182 86.3821C20.1182 85.9568 20.2543 85.9534 20.2543 85.528C20.2543 85.1027 20.108 85.0993 20.108 84.6706C20.108 84.2419 20.2236 84.2419 20.2236 83.8131C20.2236 83.3844 20.193 83.3844 20.193 82.9557C20.193 82.5269 20.1658 82.527 20.1658 82.0982C20.1658 81.6695 20.2407 81.6695 20.2407 81.2408C20.2407 80.9992 20.2236 80.7202 20.1964 80.431C20.1726 80.1724 20.0365 79.9172 19.9957 79.6416C19.9548 79.3659 19.9719 79.0971 19.914 78.8351C19.8562 78.5731 19.8221 78.2873 19.7439 78.0423C19.6588 77.7667 19.4683 77.5422 19.3594 77.3244C19.2335 77.0658 19.111 76.8072 18.9885 76.5554C18.866 76.3036 18.798 76.011 18.6789 75.7558C18.5598 75.5006 18.3828 75.2624 18.2672 75.0038C18.1515 74.7452 18.029 74.4832 17.9167 74.2246C17.8044 73.966 17.6343 73.721 17.5254 73.4624C17.4165 73.2038 17.3621 72.9112 17.2532 72.6492C17.1443 72.3872 17.0558 72.1116 16.9538 71.8496C16.8517 71.5876 16.685 71.3392 16.5863 71.0738C16.4876 70.8084 16.3821 70.5396 16.2868 70.2708C16.1916 70.002 16.1133 69.7264 16.0214 69.4576C15.9296 69.1888 15.9534 68.8826 15.8683 68.6104C15.7833 68.3381 15.5995 68.0966 15.5213 67.8209C15.443 67.5453 15.375 67.2697 15.3035 66.9941C15.232 66.7185 15.2695 66.4157 15.2048 66.1401C15.1402 65.8645 15.0143 65.6025 14.953 65.3234C14.8918 65.0444 14.8203 64.7722 14.7659 64.4898C14.7114 64.2074 14.7489 63.9182 14.7012 63.6358C14.6536 63.3533 14.5141 63.0913 14.4733 62.8089C14.4324 62.5265 14.3746 62.2509 14.3406 61.9651C14.3065 61.6793 14.2861 61.4003 14.2589 61.1144C14.2317 60.8286 14.184 60.553 14.1602 60.2672C14.1364 59.9814 14.1058 59.7024 14.0888 59.4165C14.0718 59.1307 14.0616 58.8483 14.0479 58.5625C14.0343 58.2767 14.1024 57.9943 14.0922 57.705C14.082 57.4158 14.1296 57.1368 14.1262 56.851C14.1228 56.5652 14.1024 56.2862 14.1024 55.9969C14.1024 55.7077 13.9935 55.4253 14.0003 55.1429C14.0071 54.8605 14.0956 54.5747 14.1058 54.2922C14.116 54.0098 14.0309 53.7172 14.0479 53.4348C14.065 53.1524 14.1568 52.87 14.1772 52.5875C14.1977 52.3051 14.1909 52.0159 14.2181 51.7335C14.2453 51.4511 14.3882 51.1789 14.4222 50.8965C14.4563 50.614 14.378 50.3146 14.4154 50.0356C14.4529 49.7566 14.5209 49.4742 14.5617 49.1918C14.6026 48.9093 14.708 48.6371 14.7557 48.3581C14.8033 48.0791 14.851 47.7967 14.9054 47.5177C14.9598 47.2387 15.0347 46.9631 15.0925 46.6841C15.1504 46.405 15.1742 46.1192 15.2354 45.8436C15.2967 45.568 15.2661 45.2652 15.3341 44.9896C15.4022 44.714 15.5859 44.4656 15.6608 44.19C15.7356 43.9143 15.722 43.6149 15.7969 43.3427C15.8717 43.0705 16.0453 42.8187 16.1269 42.5499C16.2086 42.2811 16.2664 41.9953 16.3549 41.7265C16.4434 41.4577 16.4944 41.1719 16.5863 40.903C16.6781 40.6342 16.804 40.3722 16.9027 40.1102C17.0014 39.8482 17.1545 39.5931 17.2566 39.3311C17.3587 39.0691 17.3382 38.7458 17.4437 38.4872C17.5492 38.2286 17.7057 37.9734 17.818 37.7182C17.9303 37.463 18.08 37.2078 18.1991 36.956C18.3182 36.7043 18.4951 36.4627 18.621 36.2143C18.7469 35.9659 18.7844 35.6528 18.9171 35.4079C19.0498 35.1629 19.2879 34.9587 19.4274 34.7171C19.5499 34.5062 19.5295 34.1999 19.618 33.9243C19.6996 33.6793 19.9276 33.4582 19.9855 33.186C20.0433 32.9138 20.0297 32.6416 20.0671 32.3762C20.1046 32.1108 20.1454 31.8283 20.1624 31.5697C20.1828 31.2771 20.2441 31.0015 20.2441 30.7599C20.2441 30.3482 20.2168 30.3482 20.2168 29.9365C20.2168 29.5248 20.1046 29.5248 20.1046 29.1131C20.1046 28.7014 20.193 28.7014 20.193 28.2896C20.193 27.8779 20.2134 27.8779 20.2134 27.4662C20.2134 27.0545 20.1794 27.0545 20.1794 26.6428C20.1794 26.2311 20.0909 26.2311 20.0909 25.8194C20.0909 25.4076 20.2236 25.4076 20.2236 24.9959C20.2236 24.5842 20.0773 24.5842 20.0773 24.1691C20.0773 23.754 20.0807 23.7574 20.0807 23.3423C20.0807 23.0667 20.193 22.7945 20.2951 22.5529C20.3972 22.3113 20.5605 22.0799 20.7476 21.8928C20.9348 21.7056 21.1594 21.5389 21.4077 21.4368C21.6561 21.3347 21.9215 21.3449 22.1971 21.3449C22.6225 21.3449 22.6225 21.3858 23.0478 21.3858C23.4731 21.3858 23.4731 21.379 23.9018 21.379C24.3306 21.379 24.3272 21.2837 24.7559 21.2837C25.1846 21.2837 25.1812 21.3245 25.6099 21.3245C26.0387 21.3245 26.0387 21.2225 26.464 21.2225C26.8893 21.2225 26.8927 21.2293 27.318 21.2293C27.5562 21.2293 27.825 21.2531 28.1109 21.2225C28.366 21.1952 28.628 21.1442 28.8935 21.0898C29.1589 21.0353 29.4004 20.9366 29.6522 20.8584C29.904 20.7801 30.2205 20.8141 30.4484 20.7019C30.707 20.576 30.9044 20.3718 31.0847 20.2085C31.2889 20.0247 31.493 19.8342 31.7074 19.6505C31.9218 19.4667 32.1599 19.3272 32.3777 19.1503C32.5955 18.9733 32.7486 18.725 32.9698 18.5514C33.1909 18.3779 33.4121 18.2146 33.6367 18.0444C33.8612 17.8743 34.0926 17.7246 34.3206 17.5613C34.5486 17.3979 34.8174 17.3061 35.0487 17.1462C35.2801 16.9862 35.4673 16.7719 35.702 16.6188C35.9368 16.4656 36.1648 16.3091 36.403 16.1628C36.6412 16.0165 36.9474 15.9893 37.189 15.8464C37.4306 15.7035 37.6449 15.5299 37.8899 15.3904C38.1349 15.2509 38.3016 14.9923 38.5466 14.8562C38.7916 14.7201 39.1114 14.7337 39.3598 14.601C39.6082 14.4683 39.809 14.2642 40.0608 14.1383C40.3125 14.0124 40.5745 13.9273 40.8263 13.8048C41.0781 13.6823 41.2755 13.4543 41.5307 13.3352C41.7859 13.2162 42.0819 13.1991 42.3371 13.0869C42.5923 12.9746 42.8305 12.8317 43.0891 12.7228C43.3477 12.6139 43.6165 12.5424 43.8751 12.4404C44.1337 12.3383 44.4161 12.2975 44.6747 12.1954C44.9333 12.0933 45.1987 12.0116 45.4607 11.9164C45.7227 11.8211 45.9302 11.5727 46.1922 11.4808C46.4542 11.389 46.7707 11.4604 47.0395 11.3754C47.3083 11.2903 47.5533 11.161 47.8221 11.0793C48.0909 10.9977 48.3495 10.8956 48.6183 10.8207C48.8871 10.7459 49.1491 10.6472 49.4179 10.5757C49.6867 10.5043 49.9657 10.4669 50.2345 10.3988C50.5033 10.3308 50.7517 10.164 51.0239 10.1028C51.2961 10.0415 51.5853 10.0688 51.8609 10.0109C52.1366 9.95307 52.4054 9.88842 52.6776 9.83398C52.9498 9.77954 53.2424 9.82718 53.518 9.77954C53.7936 9.73191 54.042 9.53455 54.3176 9.49372C54.5932 9.45289 54.8893 9.55497 55.1649 9.51754C55.4405 9.48011 55.7127 9.41887 55.9917 9.38824C56.2707 9.35762 56.5327 9.19089 56.8083 9.16367C57.0839 9.13645 57.3663 9.11604 57.6419 9.09562C57.9176 9.0752 58.2102 9.22152 58.4892 9.2045C58.7682 9.18749 59.037 9.02417 59.316 9.01396C59.595 9.00375 59.874 9.00715 60.1531 9.00035C60.4321 8.99354 60.7111 9.08882 60.9901 9.08882L61.0377 9.08201ZM22.8913 98.1959C22.8913 98.4715 22.9729 98.7403 23.0716 98.9819C23.1703 99.2235 23.2792 99.5127 23.4663 99.6998C23.6535 99.887 23.9563 99.938 24.2047 100.04C24.4531 100.142 24.6912 100.329 24.9669 100.329C25.382 100.329 25.382 100.169 25.7937 100.169C26.2054 100.169 26.2054 100.152 26.6205 100.152C27.0356 100.152 27.0356 100.312 27.4473 100.312C27.8591 100.312 27.8625 100.323 28.2742 100.323C28.6859 100.323 28.6893 100.214 29.101 100.214C29.5127 100.214 29.5161 100.197 29.9278 100.197C30.3396 100.197 30.343 100.18 30.7547 100.18C31.1664 100.18 31.1698 100.254 31.5849 100.254C32 100.254 32 100.305 32.4117 100.305C32.8234 100.305 32.8268 100.248 33.242 100.248C33.6571 100.248 33.6571 100.224 34.0722 100.224C34.4873 100.224 34.4873 100.224 34.9024 100.224C35.3175 100.224 35.3175 100.302 35.7327 100.302C36.1478 100.302 36.1478 100.186 36.5629 100.186C36.978 100.186 36.978 100.275 37.3931 100.275C37.8082 100.275 37.8082 100.295 38.22 100.295C38.6317 100.295 38.6351 100.295 39.0502 100.295C39.4653 100.295 39.4653 100.295 39.8804 100.295C40.2955 100.295 40.2955 100.166 40.7107 100.166C41.1258 100.166 41.1258 100.285 41.5409 100.285C41.956 100.285 41.956 100.271 42.3711 100.271C42.7862 100.271 42.7862 100.271 43.2013 100.271C43.7628 100.271 44.0724 100.135 44.1166 99.9584C44.1609 99.7815 43.9737 99.4787 43.4804 99.2133C43.232 99.1078 42.9462 99.0635 42.6876 98.9513C42.429 98.839 42.218 98.6654 41.9628 98.5498C41.7076 98.4341 41.4252 98.4102 41.17 98.2878C40.9148 98.1653 40.6868 98.0326 40.435 97.9033C40.1832 97.774 39.9621 97.6243 39.7137 97.495C39.4653 97.3657 39.1863 97.318 38.9379 97.1819C38.6895 97.0458 38.499 96.8416 38.254 96.7021C38.009 96.5626 37.7844 96.4163 37.5428 96.2734C37.3013 96.1305 37.1073 95.9366 36.8657 95.7903C36.6241 95.6439 36.3826 95.5317 36.1444 95.3785C35.9062 95.2254 35.6238 95.1676 35.3924 95.0145C35.161 94.8613 34.9433 94.6912 34.7153 94.5347C34.4873 94.3782 34.2491 94.2387 34.0212 94.0787C33.7932 93.9188 33.5924 93.7283 33.3679 93.5616C33.1433 93.3948 32.8847 93.2825 32.6635 93.1124C32.439 92.9423 32.245 92.7381 32.0272 92.568C31.8095 92.3979 31.5985 92.2073 31.3841 92.0338C31.1698 91.8603 30.9248 91.7071 30.7172 91.5268C30.5097 91.3465 30.2987 91.1525 30.0912 90.9722C29.8836 90.7918 29.7577 90.506 29.5536 90.3189C29.3494 90.1317 29.1452 89.9378 28.9445 89.7472C28.7437 89.5567 28.5158 89.3866 28.3184 89.196C28.1211 89.0055 27.8761 88.8456 27.6821 88.6516C27.4882 88.4577 27.3487 88.1923 27.1581 87.9949C26.9676 87.7976 26.6716 87.6785 26.4878 87.4777C26.3041 87.277 26.2054 86.9741 26.0251 86.7734C25.8447 86.5726 25.6372 86.3685 25.4568 86.1609C25.2765 85.9534 24.9873 85.8241 24.8137 85.6165C24.6402 85.4089 24.4939 85.1401 24.3238 84.9292C24.1672 84.5311 23.7079 84.2351 23.3132 84.395C23.0546 84.5005 22.9934 84.9326 22.9934 85.494C22.9934 85.9159 22.8743 85.9159 22.8743 86.3413C22.8743 86.7666 22.9219 86.7632 22.9219 87.1885C22.9219 87.6138 22.9253 87.6104 22.9253 88.0357C22.9253 88.4611 22.9117 88.4577 22.9117 88.883C22.9117 89.3083 22.8334 89.3083 22.8334 89.7302C22.8334 90.1522 22.8675 90.1522 22.8675 90.5775C22.8675 91.0028 22.9219 91.0028 22.9219 91.4247C22.9219 91.8466 22.9151 91.8501 22.9151 92.272C22.9151 92.6939 22.9627 92.6939 22.9627 93.1192C22.9627 93.5445 22.8607 93.5411 22.8607 93.9665C22.8607 94.3918 22.9491 94.3918 22.9491 94.8137C22.9491 95.2356 22.8607 95.239 22.8607 95.661C22.8607 96.0829 22.8913 96.0863 22.8913 96.5082C22.8913 96.9301 23.0002 96.9335 22.9866 97.3589C22.9729 97.7842 22.8913 97.7808 22.8913 98.2061V98.1959ZM65.5972 78.9814C65.4679 78.7773 65.2876 78.5731 65.1038 78.3554C64.9405 78.158 64.8112 77.9096 64.6173 77.7157C64.4233 77.5217 64.1443 77.4435 63.9401 77.2767C63.736 77.11 63.5931 76.831 63.3787 76.6949C63.1405 76.5418 62.8275 76.5554 62.6029 76.4703C62.3886 76.3887 62.147 76.3444 61.8646 76.3002C61.623 76.2628 61.378 76.079 61.1092 76.0688C60.854 76.0586 60.5852 76.0518 60.3266 76.0688C60.068 76.0858 59.8128 76.2219 59.5644 76.2662C59.2956 76.3138 59.0506 76.3887 58.8226 76.4669C58.5947 76.5452 58.3701 76.6779 58.1319 76.831C57.9176 76.9671 57.6624 77.0692 57.4548 77.2495C57.2472 77.4299 57.0227 77.5728 56.8389 77.7633C56.6552 77.9539 56.5157 78.2023 56.3558 78.403C56.1788 78.6276 56.0427 78.8624 55.9134 79.0665C55.6855 79.434 55.6889 79.434 55.4609 79.8015C55.2329 80.169 55.1683 80.1281 54.9403 80.4956C54.7123 80.8631 54.811 80.9243 54.5864 81.2918C54.3618 81.6593 54.2836 81.6117 54.059 81.9791C53.8344 82.3466 53.814 82.3364 53.5861 82.7005C53.3581 83.0646 53.3547 83.068 53.1301 83.4354C52.9055 83.8029 52.9055 83.8029 52.6776 84.1704C52.4496 84.5379 52.5585 84.6059 52.3305 84.9734C52.1025 85.3409 52.0005 85.2762 51.7725 85.6437C51.5445 86.0112 51.5547 86.018 51.3267 86.3855C51.0988 86.753 51.1022 86.753 50.8742 87.1204C50.6462 87.4879 50.67 87.5015 50.4421 87.869C50.2141 88.2365 50.1596 88.2025 49.9317 88.57C49.7037 88.9374 49.7649 88.9749 49.537 89.3423C49.309 89.7098 49.2512 89.6724 49.0232 90.0399C48.7952 90.4074 48.8803 90.4618 48.6523 90.8293C48.4243 91.1968 48.4073 91.1865 48.1793 91.554C47.9514 91.9215 47.9207 91.9045 47.6928 92.272C47.4648 92.6395 47.5397 92.6871 47.3117 93.0546C47.0837 93.422 47.0088 93.3778 46.7809 93.7453C46.621 94.0039 46.4406 94.2591 46.2773 94.5109C46.1004 94.7865 45.8724 95.0111 45.7193 95.2424C45.4879 95.5861 45.3314 95.8719 45.2225 96.0046C45.0694 96.1918 45.1306 96.6069 45.3926 96.9641C45.5525 97.1853 45.7907 97.3895 46.2024 97.5154C46.6005 97.6583 46.4848 97.614 46.9952 97.8012C47.2164 97.8828 47.4682 98.0087 47.7744 98.1108C48.016 98.1925 48.3018 98.2163 48.5945 98.3048C48.8462 98.383 49.1014 98.5021 49.3907 98.5838C49.6493 98.6586 49.9147 98.7437 50.2005 98.8186C50.4625 98.8866 50.7415 98.9172 51.0273 98.9853C51.2927 99.0499 51.5615 99.1214 51.8439 99.1826C52.1093 99.2405 52.3611 99.4242 52.6401 99.4787C52.9191 99.5331 53.1846 99.5909 53.467 99.642C53.7494 99.693 54.0216 99.7032 54.304 99.7509C54.5864 99.7985 54.862 99.7747 55.1478 99.8155C55.4337 99.8564 55.6889 99.972 55.9713 100.006C56.2537 100.04 56.5395 99.9346 56.8219 99.9652C57.1043 99.9958 57.3663 100.149 57.6488 100.173C57.9312 100.197 58.2102 100.193 58.4926 100.21C58.775 100.227 59.0574 100.105 59.3398 100.115C59.6223 100.125 59.8979 100.193 60.1803 100.2C60.4627 100.207 60.7417 100.336 61.0241 100.336C61.3065 100.336 61.589 100.176 61.8646 100.169C62.1402 100.163 62.4328 100.275 62.7118 100.261C62.9908 100.248 63.2732 100.19 63.5523 100.173C63.8313 100.156 64.1171 100.132 64.3927 100.112C64.6683 100.091 64.9575 100.078 65.2331 100.05C65.5087 100.023 65.8048 100.067 66.0804 100.037C66.356 100.006 66.6384 99.9346 66.914 99.8938C67.1896 99.8529 67.4686 99.7577 67.7408 99.7168C68.013 99.676 68.3023 99.6318 68.5745 99.5841C68.8467 99.5365 69.1223 99.4344 69.3911 99.38C69.6735 99.3255 69.9695 99.3664 70.2383 99.3085C70.5208 99.2473 70.776 99.0976 71.0414 99.0329C71.3238 98.9649 71.6198 98.9819 71.8784 98.9138C72.1642 98.839 72.4262 98.7369 72.6848 98.662C72.9706 98.5804 73.2122 98.4068 73.464 98.332C73.7566 98.2401 74.039 98.2095 74.2806 98.1278C74.5869 98.0258 74.8523 97.9339 75.0734 97.8522C75.5838 97.6651 75.4715 97.7229 75.8662 97.58C76.2235 97.4711 76.4957 97.284 76.7203 97.1547C77.1728 96.8995 77.3021 96.7226 77.0333 96.5558C76.8972 96.4708 76.6965 96.1577 76.4208 95.8243C76.2405 95.6065 76.0602 95.3343 75.8594 95.0723C75.6689 94.8205 75.4613 94.5755 75.2844 94.3271C75.0836 94.0413 74.8318 93.8168 74.6889 93.5922C74.461 93.2281 74.5392 93.1771 74.3112 92.8164C74.0833 92.4557 74.0492 92.4727 73.8213 92.1086C73.5933 91.7446 73.5831 91.7514 73.3551 91.3873C73.1271 91.0232 73.1612 91.0028 72.9332 90.6387C72.7052 90.2746 72.6542 90.3053 72.4262 89.9446C72.1982 89.5839 72.1778 89.5907 71.9498 89.2301C71.7219 88.8694 71.7865 88.8251 71.5585 88.4611C71.3306 88.097 71.3408 88.0902 71.1128 87.7261C70.8848 87.362 70.9052 87.3484 70.6739 86.9877C70.4425 86.6271 70.4561 86.6169 70.2247 86.2528C69.9934 85.8887 70.0002 85.8853 69.7688 85.5246C69.5374 85.164 69.4387 85.2252 69.2108 84.8611C68.9828 84.4971 69.0917 84.4256 68.8637 84.0615C68.6357 83.6974 68.5234 83.7689 68.2955 83.4048C68.0675 83.0407 68.1389 82.9965 67.9076 82.6324C67.6762 82.2684 67.7102 82.2479 67.4788 81.8839C67.2475 81.5198 67.1862 81.5606 66.9548 81.1965C66.7235 80.8325 66.7541 80.812 66.5227 80.448C66.2913 80.0839 66.2777 80.0941 66.0566 79.7232C65.8354 79.3523 65.8218 79.3591 65.5904 78.9951L65.5972 78.9814ZM99.1808 85.4804C99.1808 85.1572 99.1025 84.8986 99.0073 84.725C98.8677 84.4664 98.6023 84.2963 98.3199 84.3848C98.1294 84.4426 97.9729 84.6978 97.7483 84.9292C97.5748 85.1367 97.2923 85.2558 97.1052 85.4702C96.9181 85.6846 96.8636 85.9908 96.6765 86.1983C96.4893 86.4059 96.3192 86.6169 96.1253 86.8244C95.9313 87.032 95.6319 87.117 95.4379 87.3212C95.244 87.5254 95.05 87.7091 94.8493 87.9098C94.6485 88.1106 94.5363 88.3794 94.3355 88.5768C94.1347 88.7741 93.951 88.9749 93.7468 89.1688C93.5427 89.3628 93.3555 89.5601 93.148 89.7507C92.9404 89.9412 92.692 90.0705 92.4811 90.2576C92.2701 90.4448 92.0353 90.5843 91.821 90.768C91.6066 90.9518 91.4399 91.1729 91.2255 91.3533C91.0112 91.5336 90.8172 91.7276 90.5994 91.9045C90.3817 92.0814 90.1707 92.255 89.9496 92.4285C89.7284 92.602 89.4664 92.7075 89.2418 92.8776C89.0206 93.0478 88.8709 93.3064 88.6498 93.4697C88.4286 93.633 88.1496 93.7283 87.9284 93.8848C87.7072 94.0413 87.4657 94.1876 87.2377 94.3441C87.0097 94.5007 86.7783 94.6572 86.5504 94.8069C86.3224 94.9566 86.0876 95.1165 85.8596 95.2628C85.6317 95.4092 85.4615 95.6712 85.2268 95.8175C84.992 95.9638 84.6926 96.008 84.4578 96.1509C84.223 96.2938 83.9882 96.4469 83.7534 96.5865C83.5187 96.726 83.2737 96.8689 83.0355 97.0016C82.7973 97.1343 82.5625 97.2976 82.3243 97.4269C82.0862 97.5562 81.8037 97.6345 81.5622 97.7604C81.3206 97.8862 81.1028 98.0802 80.8578 98.2027C80.6128 98.3252 80.327 98.3898 80.0854 98.5089C79.8439 98.628 79.6261 98.8424 79.3811 98.9547C79.1361 99.067 78.8639 99.1724 78.6189 99.2813C78.146 99.3562 77.8772 99.7236 77.935 99.955C77.9792 100.132 78.3025 100.163 78.8639 100.163C79.279 100.163 79.279 100.251 79.6907 100.251C80.1025 100.251 80.1025 100.268 80.5176 100.268C80.9327 100.268 80.9327 100.333 81.3444 100.333C81.7561 100.333 81.7595 100.299 82.1712 100.299C82.5829 100.299 82.5863 100.193 82.9981 100.193C83.4098 100.193 83.4132 100.214 83.8249 100.214C84.2366 100.214 84.24 100.19 84.6517 100.19C85.0634 100.19 85.0668 100.224 85.482 100.224C85.8971 100.224 85.8971 100.159 86.3088 100.159C86.7205 100.159 86.7239 100.2 87.139 100.2C87.5541 100.2 87.5541 100.214 87.9692 100.214C88.3844 100.214 88.3844 100.173 88.7995 100.173C89.2146 100.173 89.2146 100.183 89.6297 100.183C90.0448 100.183 90.0448 100.309 90.4599 100.309C90.8751 100.309 90.8751 100.316 91.2902 100.316C91.7053 100.316 91.7053 100.282 92.117 100.282C92.5287 100.282 92.5321 100.22 92.9472 100.22C93.3624 100.22 93.3624 100.302 93.7775 100.302C94.1926 100.302 94.1926 100.166 94.6077 100.166C95.0228 100.166 95.0228 100.299 95.4379 100.299C95.853 100.299 95.8531 100.278 96.2682 100.278C96.6833 100.278 96.6833 100.142 97.0984 100.142C97.374 100.142 97.6258 100.146 97.864 100.047C98.1022 99.9482 98.4152 99.8904 98.6023 99.6998C98.7895 99.5093 98.8167 99.1962 98.9222 98.9479C99.0277 98.6995 99.191 98.4681 99.191 98.1925C99.191 97.7706 99.1434 97.7706 99.1434 97.3452C99.1434 96.9199 99.14 96.9233 99.14 96.498C99.14 96.0727 99.1536 96.0761 99.1536 95.6507C99.1536 95.2254 99.2318 95.2288 99.2318 94.8035C99.2318 94.3782 99.1978 94.3782 99.1978 93.9563C99.1978 93.5343 99.1434 93.5343 99.1434 93.109C99.1434 92.6837 99.1502 92.6837 99.1502 92.2618C99.1502 91.8398 99.1025 91.8364 99.1025 91.4145C99.1025 90.9926 99.2046 90.9926 99.2046 90.5673C99.2046 90.142 99.1161 90.1454 99.1161 89.72C99.1161 89.2947 99.2046 89.2947 99.2046 88.8728C99.2046 88.4509 99.174 88.4475 99.174 88.0255C99.174 87.6036 99.0787 87.6002 99.0787 87.1783C99.0787 86.7564 99.1229 86.753 99.1331 86.3276C99.1434 85.9023 99.174 85.9023 99.174 85.477L99.1808 85.4804ZM85.0328 58.3447C84.8014 58.406 84.553 58.5217 84.291 58.6305C84.0563 58.7292 83.7773 58.7803 83.5391 58.9096C83.3009 59.0389 83.141 59.2838 82.9198 59.4268C82.6986 59.5697 82.3924 59.6275 82.1985 59.7908C81.9807 59.9712 81.9024 60.274 81.7493 60.4611C81.5962 60.6483 81.4839 60.866 81.3614 61.1144C81.2525 61.339 81.0075 61.5228 80.9225 61.7779C80.8374 62.0331 80.7592 62.2849 80.7013 62.5333C80.6435 62.7817 80.7013 63.0777 80.6673 63.3227C80.6299 63.6085 80.6299 63.8705 80.6299 64.0951C80.6299 64.3401 80.6877 64.5885 80.766 64.8641C80.834 65.1091 80.8578 65.3847 80.9701 65.6331C81.0824 65.8815 81.1539 66.1401 81.2866 66.3714C81.4193 66.6028 81.6166 66.807 81.7629 67.0179C81.9262 67.2527 82.1134 67.4501 82.2733 67.6304C82.5557 67.9502 82.5591 67.9468 82.8415 68.2667C83.124 68.5865 83.0661 68.6376 83.3485 68.9574C83.6309 69.2773 83.7194 69.199 84.0018 69.5188C84.2842 69.8387 84.2196 69.8965 84.502 70.2164C84.7844 70.5362 84.7708 70.5498 85.0532 70.8697C85.3356 71.1895 85.3356 71.1895 85.6181 71.5094C85.9005 71.8292 85.9039 71.8292 86.1863 72.149C86.4687 72.4689 86.564 72.3838 86.8464 72.7037C87.1288 73.0235 87.0403 73.1018 87.3228 73.4216C87.6052 73.7415 87.6154 73.7312 87.8978 74.0511C88.1802 74.3709 88.1836 74.3675 88.466 74.6874C88.7484 75.0072 88.7689 74.9902 89.0547 75.3101C89.3405 75.6299 89.2895 75.6741 89.5719 75.9906C89.8543 76.307 89.9087 76.2628 90.1911 76.5826C90.4736 76.9025 90.4225 76.9501 90.7049 77.2699C90.9873 77.5898 91.0656 77.5217 91.348 77.8416C91.6304 78.1614 91.6168 78.175 91.9026 78.4949C92.1885 78.8147 92.1612 78.8385 92.4471 79.1584C92.7329 79.4782 92.7975 79.4204 93.0833 79.7402C93.2433 79.9206 93.3419 80.169 93.5019 80.3595C93.6618 80.55 93.8115 80.7542 93.9646 80.9413C94.1313 81.1489 94.2334 81.3837 94.3729 81.564C94.5635 81.8124 94.737 81.9961 94.8289 82.1391C94.9344 82.3092 95.2032 82.4181 95.4447 82.5201C95.6557 82.6086 95.8769 82.6562 96.1219 82.5678C96.3124 82.4997 96.4723 82.3568 96.6493 82.1186C96.8806 81.7954 96.9045 81.8124 97.1324 81.4858C97.3604 81.1591 97.306 81.1217 97.5339 80.795C97.7619 80.4684 97.7959 80.4922 98.0205 80.1656C98.1498 79.9614 98.2825 79.7368 98.4016 79.4782C98.5071 79.2468 98.5649 78.9883 98.65 78.7297C98.735 78.4711 98.8167 78.2329 98.8814 77.9777C98.946 77.7225 99.1229 77.4775 99.1604 77.2257C99.2012 76.9467 99.2318 76.6677 99.2318 76.4261C99.2318 75.994 99.1978 75.994 99.1978 75.5652C99.1978 75.1365 99.1366 75.1365 99.1366 74.7044C99.1366 74.2723 99.2182 74.2757 99.2182 73.8469C99.2182 73.4182 99.0821 73.4182 99.0821 72.9861C99.0821 72.554 99.2148 72.5574 99.2148 72.1252C99.2148 71.6931 99.1944 71.6965 99.1944 71.2644C99.1944 70.8322 99.0583 70.8356 99.0583 70.4035C99.0583 69.9714 99.1161 69.9748 99.1161 69.5427C99.1161 69.1105 99.242 69.1105 99.242 68.6818C99.242 68.2531 99.0855 68.2531 99.0855 67.8209C99.0855 67.3888 99.2046 67.3888 99.2046 66.9601C99.2046 66.5314 99.157 66.528 99.157 66.0992C99.157 65.6705 99.1536 65.6671 99.1536 65.2384C99.1536 64.8097 99.1672 64.8063 99.1672 64.3775C99.1672 63.9488 99.2454 63.9454 99.2454 63.5167C99.2454 63.0879 99.2114 63.0845 99.2114 62.6558C99.2114 62.2271 99.157 62.2271 99.157 61.795C99.157 61.3628 99.1638 61.3628 99.1638 60.9341C99.1638 60.5054 99.1161 60.502 99.1161 60.0732C99.1161 59.6445 99.2182 59.6411 99.2182 59.2124C99.2182 58.7837 99.1297 58.7803 99.1297 58.3481C99.1297 57.916 99.2182 57.916 99.2182 57.4839C99.2182 57.0517 99.1876 57.0517 99.1876 56.6196C99.1876 56.2589 99.0107 55.9765 98.8507 55.7247C98.6738 55.4457 98.4594 55.2143 98.143 55.1157C97.8572 55.0272 97.5305 55.017 97.1835 55.1123C96.7786 55.2211 96.7684 55.1837 96.3668 55.2926C95.9653 55.4015 95.9823 55.4695 95.5774 55.5784C95.1725 55.6873 95.1827 55.7247 94.7812 55.8336C94.3797 55.9425 94.3593 55.8745 93.9544 55.9833C93.5495 56.0922 93.5427 56.0684 93.1378 56.1773C92.7329 56.2862 92.7397 56.31 92.3348 56.4189C91.9299 56.5277 91.9503 56.606 91.5488 56.7149C91.1473 56.8238 91.12 56.7319 90.7151 56.8408C90.3102 56.9497 90.3204 56.9871 89.9189 57.0926C89.5174 57.1981 89.5174 57.2083 89.1125 57.3171C88.7076 57.426 88.6974 57.3852 88.2925 57.4941C87.8876 57.603 87.9012 57.6574 87.4963 57.7663C87.0914 57.8752 87.0982 57.8956 86.6933 58.0045C86.2884 58.1134 86.2714 58.0487 85.863 58.144C85.4547 58.2392 85.4513 58.229 85.0464 58.3379L85.0328 58.3447ZM22.8913 76.4329C22.8913 76.7221 22.9457 77.042 22.9968 77.3754C23.0444 77.6783 23.041 78.0117 23.1261 78.3179C23.2111 78.6242 23.4357 78.8964 23.5446 79.1754C23.6705 79.4952 23.6943 79.8525 23.844 80.0873C23.9665 80.2812 24.2795 80.431 24.4871 80.6861C24.6606 80.9005 24.8648 81.1115 25.0621 81.3224C25.2697 81.5504 25.3684 81.8737 25.5589 82.0472C25.9196 82.3738 26.3347 82.5269 26.3925 82.3772C26.4436 82.2411 26.5286 81.9247 26.7804 81.5878C26.9438 81.3735 27.1207 81.1183 27.318 80.8733C27.5052 80.6419 27.6923 80.3969 27.8829 80.1758C28.0972 79.9274 28.3558 79.747 28.5328 79.5565C28.8186 79.2503 28.856 79.2877 29.1384 78.9814C29.4209 78.6752 29.38 78.6378 29.6658 78.3316C29.9517 78.0253 29.9312 78.0117 30.2171 77.7055C30.5029 77.3992 30.4995 77.3992 30.7853 77.093C31.0711 76.7868 31.129 76.8412 31.4114 76.5384C31.6938 76.2356 31.6087 76.1539 31.8945 75.8511C32.1804 75.5482 32.245 75.6061 32.5274 75.2998C32.8098 74.9936 32.8268 75.0106 33.1127 74.7044C33.3985 74.3982 33.3985 74.4016 33.6843 74.0953C33.9701 73.7891 33.9667 73.7891 34.2525 73.4829C34.5383 73.1766 34.4431 73.0916 34.7289 72.7887C35.0147 72.4859 35.1032 72.5642 35.3856 72.2613C35.668 71.9585 35.6612 71.9483 35.9436 71.6421C36.226 71.3358 36.226 71.3358 36.5119 71.0296C36.7977 70.7234 36.7773 70.7063 37.0631 70.4001C37.3489 70.0939 37.3965 70.1381 37.6789 69.8353C37.9614 69.5325 37.9103 69.4814 38.1961 69.1752C38.482 68.8689 38.533 68.9166 38.8188 68.6104C39.1046 68.3041 39.0298 68.2361 39.3156 67.9298C39.4789 67.7563 39.6627 67.5624 39.8328 67.331C39.9825 67.1234 40.1594 66.9193 40.2989 66.6879C40.4384 66.4565 40.4793 66.1843 40.5882 65.9461C40.697 65.7079 40.8774 65.48 40.9488 65.2384C41.0271 64.9662 41.0883 64.6974 41.0883 64.4524C41.0883 64.1836 41.1394 63.8978 41.1088 63.6222C41.0781 63.3465 40.9965 63.0777 40.9352 62.8089C40.874 62.5401 40.6936 62.3087 40.5984 62.0502C40.5031 61.7916 40.4112 61.5364 40.2785 61.2982C40.1458 61.06 39.9825 60.8422 39.8124 60.6279C39.6627 60.4373 39.4993 60.2298 39.2782 60.0528C39.0808 59.8929 38.8256 59.801 38.5942 59.6615C38.3629 59.522 38.1553 59.3689 37.9171 59.2566C37.6789 59.1443 37.4306 59.0287 37.1924 58.9436C36.9236 58.8483 36.6616 58.8109 36.4268 58.7633C36.0151 58.6748 36.0185 58.6646 35.6068 58.5761C35.195 58.4876 35.2223 58.3617 34.8106 58.2733C34.3988 58.1848 34.4022 58.178 33.9905 58.0895C33.5788 58.0011 33.572 58.0351 33.1603 57.9466C32.7486 57.8582 32.735 57.916 32.3267 57.8275C31.9184 57.7391 31.932 57.6574 31.5203 57.5689C31.1085 57.4805 31.0813 57.6132 30.6696 57.5247C30.2579 57.4362 30.2885 57.3069 29.8768 57.2185C29.4651 57.13 29.4617 57.1504 29.05 57.062C28.6383 56.9735 28.611 57.1062 28.1993 57.0177C27.7876 56.9293 27.8012 56.8714 27.3895 56.7829C26.9778 56.6945 27.005 56.5686 26.5933 56.4801C26.1816 56.3916 26.1476 56.5448 25.7358 56.4563C25.3241 56.3678 25.3479 56.2521 24.9362 56.1637C24.6742 56.1058 24.4122 56.1501 24.1843 56.1977C23.9325 56.2487 23.7045 56.3576 23.514 56.5107C23.3234 56.6638 23.1601 56.8578 23.058 57.096C22.9661 57.3103 22.8368 57.5621 22.8368 57.8275C22.8368 58.2495 22.8709 58.2495 22.8709 58.6714C22.8709 59.0933 22.9253 59.0933 22.9253 59.5152C22.9253 59.9371 22.9185 59.9371 22.9185 60.3591C22.9185 60.781 22.9661 60.781 22.9661 61.2029C22.9661 61.6248 22.8641 61.6248 22.8641 62.0467C22.8641 62.4687 22.9525 62.4687 22.9525 62.8906C22.9525 63.3125 22.8641 63.3125 22.8641 63.7344C22.8641 64.1564 22.8947 64.1564 22.8947 64.5817C22.8947 65.007 22.99 65.0036 22.99 65.4255C22.99 65.8474 22.9355 65.8474 22.9355 66.2728C22.9355 66.6981 22.9355 66.6947 22.9355 67.1166C22.9355 67.5385 22.8981 67.5385 22.8981 67.9639C22.8981 68.3892 22.9661 68.3858 22.9661 68.8077C22.9661 69.2296 23.007 69.2296 23.007 69.6549C23.007 70.0803 22.9355 70.0769 22.9355 70.5022C22.9355 70.9275 22.9083 70.9241 22.9083 71.346C22.9083 71.768 22.9355 71.768 22.9355 72.1933C22.9355 72.6186 23.0172 72.6152 23.0172 73.0405C23.0172 73.4658 22.9219 73.4624 22.9219 73.8878C22.9219 74.3131 22.9593 74.3097 22.9593 74.735C22.9593 75.1603 22.9797 75.1603 22.9661 75.5857C22.9525 76.011 22.8947 76.0076 22.8947 76.4329H22.8913ZM17.4471 54.3195C16.9878 54.1527 16.8313 54.282 16.7972 54.5304C16.77 54.721 16.7292 54.9966 16.719 55.3164C16.7088 55.6567 16.8483 55.3164 16.8483 56.0003C16.8483 56.2896 16.7156 56.5788 16.719 56.8612C16.7224 57.1436 16.8925 57.4328 16.8993 57.7187C16.9061 58.0045 16.9367 58.2937 16.9504 58.5761C16.964 58.8585 16.8211 59.1614 16.8381 59.4438C16.8551 59.7262 16.8687 60.0188 16.8925 60.3012C16.9163 60.5836 17.0524 60.8661 17.0831 61.1485C17.1137 61.4309 17.1647 61.7167 17.1987 61.9991C17.2328 62.2815 17.2906 62.5673 17.3314 62.8464C17.3723 63.1254 17.3451 63.4248 17.3927 63.7072C17.4403 63.9896 17.4437 64.2857 17.4948 64.5613C17.5458 64.8369 17.6649 65.1125 17.7261 65.3915C17.7874 65.6705 17.8793 65.9461 17.9473 66.2217C18.0154 66.4973 18.0936 66.7764 18.1685 67.052C18.2433 67.3276 18.2501 67.627 18.3352 67.8992C18.4203 68.1714 18.621 68.4096 18.7129 68.6784C18.8048 68.9472 18.8184 69.25 18.9205 69.5154C19.0225 69.7808 19.1076 70.0599 19.2165 70.3219C19.3254 70.5839 19.4376 70.8527 19.5567 71.1113C19.7711 71.5808 20.1964 71.5536 20.2611 70.999C20.2815 70.5702 20.1318 70.5668 20.1318 70.1381C20.1318 69.7094 20.2509 69.7094 20.2509 69.2773C20.2509 68.8451 20.2373 68.8485 20.2373 68.4198C20.2373 67.9911 20.2373 67.9911 20.2373 67.5589C20.2373 67.1268 20.21 67.1302 20.21 66.7015C20.21 66.2728 20.2747 66.2728 20.2747 65.8406C20.2747 65.4085 20.2032 65.4119 20.2032 64.9798C20.2032 64.5477 20.2713 64.5511 20.2713 64.1189C20.2713 63.6868 20.1692 63.6902 20.1692 63.2581C20.1692 62.8259 20.1896 62.8293 20.1896 62.4006C20.1896 61.9719 20.2236 61.9719 20.2236 61.5398C20.2236 61.1076 20.1352 61.111 20.1352 60.6789C20.1352 60.2468 20.2236 60.2502 20.2236 59.8181C20.2236 59.3859 20.2407 59.3893 20.2407 58.9572C20.2407 58.5251 20.3053 58.5251 20.3053 58.0963C20.3053 57.6676 20.2713 57.6642 20.2713 57.2355C20.2713 56.9531 20.142 56.6945 20.0977 56.4529C20.0467 56.1637 19.9889 55.9085 19.9004 55.6941C19.7677 55.3777 19.601 55.1837 19.4513 55.0782C19.3015 54.9728 19.0872 54.8503 18.8218 54.7584C18.5972 54.6835 18.3352 54.6733 18.114 54.6155C17.7976 54.5304 17.5628 54.3501 17.4573 54.3127L17.4471 54.3195ZM105.285 54.3977C105.261 54.0132 105.193 53.6934 105.125 53.4484C104.999 52.9788 104.771 52.6896 104.502 52.7475C104.274 52.7985 104.07 53.0027 103.839 53.0911C103.608 53.1796 103.318 53.166 103.114 53.2681C102.835 53.4042 102.675 53.6764 102.536 53.741C102.277 53.8635 102.175 54.0336 102.083 54.3059C102.008 54.527 101.821 54.7652 101.808 55.0748C101.797 55.3198 101.787 55.5954 101.787 55.8915C101.787 56.31 101.896 56.31 101.896 56.7285C101.896 57.147 101.913 57.147 101.913 57.5655C101.913 57.9841 101.93 57.9841 101.93 58.4026C101.93 58.8211 101.855 58.8211 101.855 59.243C101.855 59.6649 101.804 59.6615 101.804 60.0801C101.804 60.4986 101.862 60.4986 101.862 60.9205C101.862 61.3424 101.886 61.339 101.886 61.7609C101.886 62.1829 101.886 62.1795 101.886 62.6014C101.886 63.0233 101.808 63.0199 101.808 63.4418C101.808 63.8637 101.923 63.8603 101.923 64.2823C101.923 64.7042 101.835 64.7008 101.835 65.1227C101.835 65.5446 101.814 65.5412 101.814 65.9597C101.814 66.3782 101.814 66.3782 101.814 66.8002C101.814 67.2221 101.814 67.2187 101.814 67.6406C101.814 68.0625 101.944 68.0591 101.944 68.4811C101.944 68.903 101.825 68.903 101.825 69.3215C101.825 69.74 101.838 69.7434 101.838 70.1619C101.838 70.5805 101.838 70.5839 101.838 71.0024C101.838 71.5944 101.903 71.87 102.008 71.8496C102.1 71.8326 102.308 71.6012 102.529 71.1181C102.645 70.8697 102.692 70.577 102.801 70.3014C102.903 70.0462 103.073 69.8013 103.172 69.5256C103.267 69.2636 103.264 68.9608 103.352 68.6818C103.441 68.4028 103.54 68.1476 103.625 67.8686C103.71 67.5896 103.815 67.3344 103.89 67.052C103.965 66.7695 103.944 66.4837 104.012 66.2013C104.081 65.9189 104.227 65.6705 104.288 65.3847C104.349 65.0989 104.421 64.8301 104.475 64.5477C104.53 64.2652 104.645 63.9998 104.696 63.714C104.747 63.4282 104.758 63.1458 104.802 62.86C104.846 62.5742 104.781 62.2815 104.822 61.9957C104.863 61.7099 104.914 61.4343 104.948 61.1485C104.982 60.8626 104.989 60.5802 105.016 60.2944C105.043 60.0086 105.105 59.7296 105.125 59.4438C105.146 59.158 105.101 58.8687 105.118 58.5829C105.135 58.2971 105.19 58.0147 105.2 57.7289C105.21 57.443 105.234 57.1572 105.237 56.8714C105.241 56.5856 105.207 56.2998 105.207 56.0106C105.207 55.6873 105.214 55.4219 105.214 55.2075C105.207 54.6121 105.312 54.8026 105.285 54.4045V54.3977ZM93.2637 25.7683C93.0833 25.5676 92.8554 25.4315 92.6376 25.3328C92.4028 25.2273 92.1442 25.1048 91.8958 25.115C91.6475 25.1252 91.4297 25.3192 91.2017 25.4417C90.9907 25.5574 90.7049 25.622 90.5348 25.8296C90.3647 26.0371 90.3204 26.3468 90.1367 26.5611C89.9666 26.7619 89.7964 26.983 89.6127 27.194C89.4358 27.3948 89.1329 27.49 88.9458 27.6976C88.7586 27.9051 88.5715 28.0923 88.3844 28.293C88.1972 28.4938 88.0917 28.766 87.9012 28.9634C87.7106 29.1607 87.5371 29.3717 87.3432 29.5656C87.1492 29.7596 86.9723 29.9671 86.7783 30.1611C86.5844 30.355 86.3394 30.4979 86.1421 30.6885C85.9447 30.879 85.7133 31.0355 85.516 31.2261C85.3186 31.4166 85.1587 31.648 84.9614 31.8351C84.764 32.0223 84.5735 32.2298 84.3761 32.4102C84.1788 32.5905 83.9644 32.7845 83.767 32.9614C83.5527 33.1485 83.2941 33.2676 83.0933 33.4378C82.8722 33.6215 82.7361 33.8869 82.5319 34.0468C82.3414 34.1965 82.0657 34.2918 81.8276 34.4619C81.6166 34.6117 81.3818 34.7546 81.1505 34.9111C80.9191 35.0676 80.7013 35.2139 80.4767 35.367C80.2522 35.5201 80.0174 35.6767 79.803 35.823C79.558 35.9863 79.4049 36.2449 79.2042 36.3844C78.9762 36.5409 78.6734 36.5988 78.4284 36.7553C78.197 36.905 77.9622 37.0649 77.7138 37.2146C77.4654 37.3644 77.2341 37.5039 76.9823 37.6468C76.7305 37.7897 76.5059 37.9462 76.2507 38.0823C75.9955 38.2184 75.7233 38.2865 75.4647 38.4158C75.2061 38.5451 74.9918 38.7288 74.7298 38.8513C74.4678 38.9738 74.1887 39.0248 73.9267 39.1405C73.6647 39.2562 73.4504 39.4569 73.1816 39.5658C72.9128 39.6747 72.6508 39.7598 72.382 39.8619C72.1132 39.9639 71.841 40.0252 71.5722 40.1205C71.3034 40.2157 71.0652 40.3893 70.793 40.4777C70.5208 40.5662 70.2281 40.5628 69.9525 40.6445C69.6769 40.7261 69.4047 40.784 69.1291 40.8588C68.8535 40.9337 68.5677 40.9337 68.2887 41.0017C68.0096 41.0698 67.7442 41.1616 67.4652 41.2195C67.1862 41.2773 66.931 41.4339 66.6486 41.4815C66.3662 41.5291 66.0872 41.5563 65.8048 41.5972C65.5223 41.638 65.2467 41.6993 64.9609 41.7333C64.6751 41.7673 64.3927 41.7605 64.1069 41.7877C63.8211 41.8149 63.5454 41.9 63.2596 41.917C62.9738 41.934 62.6914 41.9068 62.4022 41.917C62.113 41.9272 61.8339 41.917 61.5481 41.917C61.2623 41.917 60.9833 41.951 60.7043 41.9442C60.4253 41.9374 60.1394 41.9136 59.8604 41.8966C59.5814 41.8796 59.3092 41.7333 59.0302 41.7095C58.7512 41.6856 58.4722 41.6516 58.1932 41.6176C57.9142 41.5836 57.6317 41.5836 57.3561 41.5427C57.0805 41.5019 56.7913 41.5189 56.5157 41.4713C56.2401 41.4236 55.9781 41.2943 55.7025 41.2399C55.4269 41.1855 55.124 41.2603 54.8518 41.1991C54.5796 41.1378 54.3346 40.9439 54.0624 40.8792C53.7902 40.8146 53.5112 40.7635 53.2424 40.6887C52.9736 40.6138 52.6606 40.6683 52.3952 40.59C52.1297 40.5118 51.8712 40.3722 51.6058 40.2838C51.3403 40.1953 51.1124 39.9878 50.847 39.8959C50.5816 39.804 50.2617 39.855 49.9997 39.7598C49.7377 39.6645 49.5132 39.4501 49.2546 39.3481C48.996 39.246 48.7135 39.1813 48.4584 39.0725C48.2032 38.9636 47.9378 38.8547 47.686 38.739C47.4342 38.6233 47.179 38.4906 46.9272 38.3715C46.6754 38.2524 46.4508 38.0551 46.2058 37.9326C45.9609 37.8101 45.6886 37.7046 45.4437 37.5753C45.1987 37.446 44.9197 37.3541 44.6815 37.218C44.4433 37.0819 44.1949 36.9288 43.9601 36.7859C43.7117 36.6362 43.4497 36.5307 43.2218 36.3844C43.0176 36.2517 42.8373 36.0135 42.5889 35.8502C42.3711 35.7073 42.0887 35.6256 41.8539 35.4725C41.6191 35.3194 41.4456 35.0948 41.2176 34.9417C40.9897 34.7886 40.7345 34.6559 40.5133 34.5096C40.2649 34.3429 39.9791 34.2714 39.7749 34.1353C39.5606 33.9958 39.3598 33.7848 39.1182 33.6045C38.9073 33.4446 38.6861 33.2676 38.4581 33.0839C38.2472 32.9138 38.0566 32.7028 37.8355 32.5157C37.6279 32.3387 37.3693 32.206 37.1549 32.0155C36.9406 31.8249 36.7092 31.6752 36.5016 31.4813C36.2941 31.2873 36.1342 31.0491 35.93 30.8586C35.7259 30.6681 35.5353 30.4537 35.3346 30.2631C35.1338 30.0726 34.9058 29.8923 34.7085 29.6983C34.5111 29.5044 34.2423 29.3615 34.045 29.1675C33.8476 28.9736 33.7047 28.698 33.5142 28.5074C33.3066 28.2998 33.0786 28.1263 32.8915 27.9358C32.6805 27.7214 32.4764 27.5275 32.2926 27.3403C32.0681 27.1123 31.9013 26.881 31.7346 26.7074C31.3671 26.3263 31.3875 26.4522 31.1085 26.1392C30.8874 25.8704 30.6492 25.7003 30.3974 25.5744C30.1014 25.4247 29.819 25.309 29.5127 25.3838C29.2439 25.4519 28.9615 25.6084 28.7165 25.8772C28.4375 26.2073 28.4239 26.197 28.1517 26.5339C27.8795 26.8708 27.8693 26.8606 27.5971 27.1974C27.3249 27.5343 27.3215 27.5309 27.0458 27.8677C26.7702 28.2046 26.8621 28.2794 26.5899 28.6163C26.3177 28.9531 26.2122 28.8681 25.94 29.2049C25.6678 29.5418 25.7665 29.6235 25.4943 29.9603C25.2221 30.2972 25.1472 30.2393 24.8784 30.5796C24.6572 30.8858 24.4531 31.1682 24.3578 31.4064C24.1707 31.8726 24.317 32.206 24.6572 32.1686C24.8035 32.1516 25.0689 32.2264 25.4194 32.3047C25.6474 32.3557 25.906 32.4136 26.1748 32.485C26.4198 32.5531 26.709 32.502 26.9608 32.5803C27.2126 32.6586 27.4576 32.7777 27.6957 32.8593C27.9713 32.9512 28.1993 33.1111 28.4035 33.1962C28.7914 33.3493 28.7676 33.4105 29.1589 33.5637C29.5501 33.7168 29.5638 33.6793 29.9517 33.8325C30.3396 33.9856 30.3259 34.0264 30.7138 34.1795C31.1017 34.3326 31.146 34.2238 31.5373 34.3803C31.9286 34.5368 31.9184 34.5538 32.3097 34.7103C32.701 34.8669 32.718 34.8192 33.1059 34.9723C33.4938 35.1254 33.4767 35.1697 33.868 35.3262C34.2593 35.4827 34.2219 35.5712 34.6098 35.7277C34.9977 35.8842 35.0419 35.7753 35.4298 35.9319C35.8177 36.0884 35.7905 36.1598 36.1784 36.313C36.5663 36.4661 36.5799 36.4388 36.9678 36.5954C37.3557 36.7519 37.3761 36.7043 37.764 36.8608C38.1519 37.0173 38.1451 37.0343 38.5364 37.1874C38.9277 37.3405 38.8971 37.412 39.2884 37.5651C39.6797 37.7182 39.7239 37.6025 40.1152 37.7591C40.5065 37.9156 40.4555 38.0347 40.8468 38.1878C41.2381 38.3409 41.2925 38.2014 41.6804 38.3545C42.0683 38.5076 42.0479 38.5621 42.4358 38.7186C42.8237 38.8751 42.8066 38.9227 43.1945 39.0793C43.5824 39.2358 43.5995 39.1915 43.9907 39.3447C44.382 39.4978 44.3514 39.5726 44.7393 39.7258C45.1272 39.8789 45.1851 39.7394 45.5764 39.8925C45.9677 40.0456 45.9608 40.0626 46.3487 40.2191C46.7366 40.3756 46.7366 40.3756 47.1279 40.5322C47.5192 40.6887 47.4886 40.7567 47.8799 40.9133C48.2712 41.0698 48.3086 40.9677 48.6999 41.1208C49.0912 41.2739 49.0674 41.3318 49.4587 41.4883C49.85 41.6448 49.8432 41.6516 50.2345 41.8081C50.6258 41.9647 50.5884 42.0497 50.9797 42.2062C51.371 42.3628 51.3982 42.2947 51.7861 42.4478C52.174 42.6009 52.208 42.5227 52.5959 42.6758C52.9838 42.8289 52.9838 42.8323 53.3751 42.9888C53.7664 43.1454 53.7562 43.1692 54.1475 43.3223C54.5388 43.4754 54.515 43.5298 54.9063 43.6864C55.2976 43.8429 55.2874 43.8599 55.6787 44.0164C56.0699 44.1729 56.0768 44.1491 56.4681 44.3056C56.8593 44.4622 56.8389 44.5166 57.2302 44.6697C57.4616 44.7616 57.7202 44.8262 57.9686 44.9181C58.217 45.01 58.479 45.0474 58.7206 45.1257C58.9826 45.2141 59.2276 45.3162 59.4555 45.3843C59.7584 45.4727 60.0306 45.4965 60.2143 45.5306C60.3742 45.5612 60.6634 45.6088 61.0241 45.5544C61.2691 45.517 61.5515 45.4965 61.8373 45.4353C62.0993 45.3809 62.3681 45.3094 62.637 45.2414C62.9058 45.1733 63.1507 44.993 63.3991 44.9215C63.6952 44.8364 63.9742 44.7854 64.1885 44.7071C64.59 44.5642 64.59 44.5608 64.9881 44.4179C65.3862 44.275 65.3862 44.2716 65.7878 44.1287C66.1893 43.9858 66.1961 44.0062 66.5976 43.8599C66.9991 43.7136 66.9719 43.6421 67.3734 43.4992C67.7749 43.3563 67.8259 43.4924 68.224 43.3495C68.6221 43.2066 68.6187 43.1896 69.0202 43.0433C69.4217 42.897 69.3911 42.8153 69.7926 42.6724C70.1941 42.5295 70.2043 42.5567 70.6058 42.4138C71.0073 42.2709 70.9801 42.196 71.3816 42.0531C71.7831 41.9102 71.8376 42.0667 72.2391 41.9238C72.6406 41.7809 72.6134 41.7061 73.0149 41.5632C73.4164 41.4202 73.4062 41.393 73.8077 41.2501C74.2092 41.1072 74.2092 41.1106 74.6107 40.9677C75.0122 40.8248 75.0156 40.835 75.4171 40.6921C75.8186 40.5492 75.7982 40.4879 76.1997 40.345C76.6012 40.2021 76.5978 40.1885 76.9993 40.0456C77.4008 39.9027 77.3974 39.8959 77.7989 39.753C78.2004 39.6101 78.2038 39.6271 78.6053 39.4842C79.0068 39.3413 79.0204 39.3821 79.4219 39.2358C79.8234 39.0895 79.803 39.035 80.2045 38.8921C80.606 38.7492 80.6162 38.7764 81.0178 38.6335C81.4193 38.4906 81.4193 38.4872 81.8174 38.3443C82.2155 38.2014 82.2597 38.3137 82.6612 38.1708C83.0627 38.0279 83.0253 37.9224 83.4268 37.7761C83.8283 37.6298 83.8589 37.7182 84.2604 37.5719C84.6619 37.4256 84.6245 37.3201 85.026 37.1772C85.4275 37.0343 85.4683 37.1466 85.8698 37.0037C86.2714 36.8608 86.2373 36.7655 86.6388 36.6192C87.0403 36.4729 87.0778 36.5818 87.4793 36.4388C87.8808 36.2959 87.8331 36.1598 88.2346 36.0169C88.6362 35.874 88.6498 35.908 89.0513 35.7651C89.4528 35.6222 89.497 35.7447 89.8985 35.6018C90.3 35.4589 90.266 35.367 90.6675 35.2241C91.069 35.0812 91.0826 35.122 91.4875 34.9757C91.8924 34.8294 91.8482 34.7137 92.2497 34.5708C92.6512 34.4279 92.6716 34.4756 93.0731 34.3326C93.4746 34.1897 93.5019 34.2578 93.9034 34.1149C94.3049 33.972 94.2947 33.9413 94.6996 33.7984C94.9888 33.6964 95.261 33.516 95.5468 33.4207C95.8565 33.3153 96.1695 33.2472 96.4349 33.1622C96.8296 33.0363 97.1596 32.9716 97.3298 32.9342C97.5714 32.8797 97.9184 32.6007 97.9456 32.172C97.9627 31.9032 97.8027 31.5868 97.5543 31.2329C97.2923 30.8892 97.3094 30.8756 97.0372 30.5388C96.7649 30.2019 96.7888 30.1849 96.5166 29.848C96.2443 29.5112 96.2614 29.4976 95.9926 29.1607C95.7238 28.8238 95.6591 28.8749 95.3903 28.5346C95.1215 28.1944 95.1113 28.2046 94.8391 27.8677C94.5669 27.5309 94.6655 27.4526 94.3933 27.1157C94.1211 26.7789 93.985 26.8844 93.7264 26.5373C93.4678 26.1902 93.5461 26.129 93.2705 25.7955L93.2637 25.7683ZM35.2019 23.982C34.8854 23.982 34.6064 24.0568 34.3954 24.1487C34.0994 24.278 33.8408 24.4992 33.8374 24.7646C33.8374 24.9755 34.0586 25.1933 34.2968 25.4587C34.5962 25.7717 34.4363 25.7819 34.8242 26.1562C35.0045 26.3263 35.3243 26.4114 35.5625 26.636C35.7565 26.8197 35.981 27.0069 36.2056 27.2178C36.4064 27.4084 36.5119 27.7214 36.7296 27.9256C36.9372 28.1161 37.1413 28.3203 37.3591 28.521C37.5769 28.7218 37.8593 28.8307 38.0736 29.0246C38.288 29.2185 38.516 29.3989 38.7337 29.5894C38.9515 29.78 39.1829 29.9637 39.3973 30.1509C39.6116 30.338 39.7954 30.5898 40.0097 30.7701C40.2411 30.9641 40.435 31.1886 40.6494 31.3622C40.8944 31.5561 41.1598 31.6888 41.3708 31.8454C41.5647 31.9883 41.8063 32.121 42.0513 32.2809C42.269 32.4238 42.5004 32.5633 42.7386 32.7096C42.9768 32.8559 43.1605 33.0601 43.3919 33.1962C43.6233 33.3323 43.9261 33.3765 44.1507 33.5058C44.4025 33.6521 44.5964 33.8665 44.804 33.989C45.0387 34.1285 45.2735 34.285 45.5253 34.4279C45.7771 34.5708 46.0119 34.7035 46.2637 34.8396C46.5155 34.9757 46.7571 35.1016 47.0123 35.2343C47.2674 35.367 47.5669 35.3738 47.8221 35.5031C48.0773 35.6324 48.2712 35.857 48.5298 35.9795C48.7884 36.102 49.0436 36.2041 49.3022 36.3198C49.5608 36.4354 49.816 36.5443 50.078 36.6532C50.34 36.7621 50.6054 36.8438 50.8708 36.9458C51.1362 37.0479 51.371 37.2112 51.6364 37.3099C51.9018 37.4086 52.1876 37.4358 52.4564 37.5277C52.7252 37.6195 52.9668 37.7727 53.2356 37.8577C53.5044 37.9428 53.8004 37.9258 54.0726 38.004C54.3448 38.0823 54.6068 38.1742 54.8824 38.2456C55.1581 38.3171 55.4201 38.4158 55.6957 38.4804C55.9713 38.5451 56.2605 38.5144 56.5395 38.5689C56.8185 38.6233 57.0737 38.7594 57.3527 38.8071C57.6317 38.8547 57.9039 38.9125 58.1864 38.95C58.4688 38.9874 58.7376 39.0861 59.02 39.1167C59.3024 39.1473 59.5848 39.1371 59.8672 39.1575C60.1497 39.1779 60.4355 39.0895 60.7179 39.0997C61.0003 39.1099 61.2793 39.1337 61.5617 39.1337C61.8441 39.1337 62.13 39.1065 62.4124 39.0963C62.6948 39.0861 62.984 39.1065 63.2664 39.0861C63.5488 39.0656 63.8279 38.9772 64.1103 38.9466C64.3927 38.9159 64.6819 38.9227 64.9609 38.8853C65.2399 38.8479 65.5258 38.8173 65.8048 38.7696C66.0838 38.722 66.3594 38.6301 66.635 38.5723C66.9106 38.5144 67.193 38.4634 67.4686 38.3987C67.7442 38.3341 68.0539 38.3851 68.3261 38.3137C68.5983 38.2422 68.8807 38.1674 69.1495 38.0857C69.4183 38.004 69.6871 37.8849 69.9559 37.7965C70.2247 37.708 70.4765 37.5549 70.7419 37.4596C71.0073 37.3644 71.3068 37.3371 71.5688 37.2351C71.8308 37.133 72.0485 36.8982 72.3071 36.7893C72.5657 36.6804 72.8856 36.6838 73.1408 36.5681C73.3959 36.4525 73.6545 36.3095 73.9063 36.1871C74.1581 36.0646 74.3589 35.8128 74.6107 35.6835C74.8625 35.5542 75.1449 35.4725 75.3899 35.3398C75.6349 35.2071 75.9547 35.1765 76.1963 35.037C76.4379 34.8975 76.6148 34.6151 76.853 34.4721C77.1048 34.3224 77.4076 34.2748 77.639 34.1285C77.8431 33.9992 78.0507 33.812 78.2991 33.6521C78.5168 33.5126 78.7448 33.3595 78.9762 33.203C79.2076 33.0465 79.4355 32.9138 79.6601 32.7606C79.8847 32.6075 80.1603 32.5089 80.3713 32.3557C80.6094 32.1822 80.8102 31.9883 81.0007 31.8351C81.2049 31.6718 81.3818 31.4541 81.5962 31.2737C81.8003 31.1036 82.0147 30.9335 82.2257 30.7531C82.4366 30.5728 82.6034 30.3618 82.8109 30.1815C83.0185 30.0011 83.2839 29.8957 83.488 29.7119C83.6922 29.5282 83.8317 29.2798 84.0325 29.0927C84.2332 28.9055 84.4952 28.783 84.6891 28.5959C84.8831 28.4087 85.0634 28.1944 85.2574 28.0038C85.4513 27.8133 85.5806 27.5479 85.7678 27.3573C85.9549 27.1668 86.1931 27.0001 86.3734 26.8061C86.5674 26.5986 86.7511 26.4012 86.9247 26.2039C87.1152 25.9895 87.3194 25.8023 87.4793 25.605C87.6868 25.3464 87.7447 25.0776 87.7821 24.8666C87.8331 24.5706 87.7209 24.4005 87.4691 24.2542C87.2853 24.1453 87.0608 24.0262 86.7273 24.0262C86.3122 24.0262 86.3122 23.999 85.8971 23.999C85.482 23.999 85.482 24.0262 85.0668 24.0262C84.6517 24.0262 84.6517 24.1079 84.2366 24.1079C83.8215 24.1079 83.8215 24.0126 83.4064 24.0126C82.9913 24.0126 82.9913 24.05 82.5761 24.05C82.161 24.05 82.161 24.0568 81.7459 24.0568C81.3308 24.0568 81.3308 24.0126 80.9157 24.0126C80.5006 24.0126 80.5006 24.0704 80.0854 24.0704C79.6703 24.0704 79.6703 24.0908 79.2552 24.0908C78.8401 24.0908 78.8401 24.0092 78.425 24.0092C78.0099 24.0092 78.0099 23.9922 77.5947 23.9922C77.1796 23.9922 77.1796 23.9683 76.7645 23.9683C76.3494 23.9683 76.3494 23.9547 75.9343 23.9547C75.5192 23.9547 75.5192 23.9513 75.1006 23.9513C74.6821 23.9513 74.6855 24.067 74.267 24.067C73.9574 24.067 73.6716 23.9377 73.4334 23.982C73.1544 24.033 72.9706 24.2542 72.7767 24.4787C72.6338 24.6455 72.4364 24.836 72.3275 25.1593C72.2561 25.3804 72.1506 25.639 72.0928 25.9521C72.0451 26.2141 72.0587 26.4965 71.9907 26.7721C71.9226 27.0477 71.8205 27.2893 71.7389 27.5581C71.6572 27.8269 71.5858 28.0787 71.4939 28.3441C71.402 28.6095 71.4292 28.9055 71.3272 29.1641C71.2251 29.4227 71.0856 29.6609 70.9733 29.9161C70.861 30.1713 70.6807 30.3856 70.5616 30.6374C70.4425 30.8892 70.2622 31.1002 70.1295 31.3418C69.9968 31.5833 69.9049 31.8419 69.7654 32.0801C69.6259 32.3183 69.4489 32.5293 69.2992 32.7606C69.1495 32.992 69.0951 33.288 68.9386 33.5126C68.782 33.7372 68.5983 33.9482 68.4316 34.1659C68.2648 34.3837 68.1253 34.6321 67.9484 34.8396C67.7715 35.0472 67.5469 35.2241 67.3598 35.4249C67.1726 35.6256 66.9038 35.7481 66.7064 35.9353C66.5091 36.1224 66.373 36.3912 66.162 36.5647C65.9511 36.7383 65.6823 36.8438 65.4577 37.0003C65.2331 37.1568 65.0188 37.3337 64.784 37.4732C64.5492 37.6127 64.3246 37.7863 64.0762 37.902C63.8279 38.0177 63.5625 38.1095 63.3039 38.2014C63.0453 38.2933 62.7628 38.3001 62.494 38.3647C62.2252 38.4294 61.9803 38.5995 61.7046 38.6335C61.429 38.6675 61.1534 38.5553 60.8744 38.5553C60.5818 38.5553 60.2858 38.6914 60.0033 38.6641C59.7209 38.6369 59.4317 38.5348 59.1527 38.477C58.8737 38.4192 58.6049 38.2933 58.3327 38.2082C58.0605 38.1231 57.7746 38.0619 57.5092 37.9496C57.2438 37.8373 57.0261 37.6366 56.7743 37.4971C56.5225 37.3575 56.1992 37.3371 55.9577 37.1738C55.7161 37.0105 55.4983 36.8199 55.2737 36.6362C55.0492 36.4525 54.8348 36.2585 54.6273 36.0578C54.4197 35.857 54.2734 35.5984 54.0794 35.384C53.8855 35.1697 53.6167 35.02 53.4363 34.792C53.256 34.564 53.1335 34.2986 52.9668 34.0604C52.8001 33.8223 52.6503 33.5807 52.4972 33.3357C52.3441 33.0907 52.2795 32.7981 52.1366 32.5463C51.9936 32.2945 51.7963 32.0801 51.667 31.8181C51.5377 31.5561 51.3335 31.3384 51.2145 31.0764C51.0954 30.8144 50.9831 30.549 50.8708 30.2802C50.7585 30.0114 50.6802 29.7357 50.5816 29.4635C50.4829 29.1913 50.4421 28.9021 50.3502 28.6265C50.2583 28.3509 50.1937 28.0719 50.112 27.7963C50.0303 27.5207 49.9317 27.2484 49.8568 26.9694C49.782 26.6904 49.7718 26.3978 49.7037 26.1154C49.6356 25.833 49.52 25.5812 49.4043 25.343C49.2818 25.0878 49.0912 24.8836 48.9143 24.6897C48.7272 24.4821 48.5264 24.2984 48.2814 24.1861C48.0364 24.0738 47.7744 24.0636 47.4852 24.0636C47.0769 24.0636 47.0769 23.9956 46.6686 23.9956C46.2603 23.9956 46.2603 23.9649 45.852 23.9649C45.4437 23.9649 45.4437 23.9718 45.0353 23.9718C44.627 23.9718 44.627 24.0806 44.2187 24.0806C43.8104 24.0806 43.8104 24.0432 43.4021 24.0432C42.9938 24.0432 42.9938 24.0432 42.5855 24.0432C42.1772 24.0432 42.1772 24.0432 41.7689 24.0432C41.3605 24.0432 41.3605 24.0228 40.9488 24.0228C40.5371 24.0228 40.5405 24.101 40.1322 24.101C39.7239 24.101 39.7239 23.9547 39.3156 23.9547C38.9073 23.9547 38.9073 23.9718 38.4956 23.9718C38.0838 23.9718 38.0873 24.0602 37.6755 24.0602C37.2638 24.0602 37.2672 24.0296 36.8555 24.0296C36.4438 24.0296 36.4438 24.1181 36.0321 24.1079C35.6204 24.0976 35.6238 23.982 35.2155 23.982H35.2019ZM22.8913 26.5237C22.8913 26.8231 22.9593 27.0647 23.0308 27.2348C23.1533 27.5173 23.4051 27.6908 23.6467 27.5819C23.8066 27.5104 23.9121 27.245 24.089 26.983C24.2285 26.7755 24.5041 26.6326 24.6742 26.408C24.8444 26.1834 24.8716 25.8738 25.0213 25.6594C25.1914 25.4144 25.3173 25.1831 25.4194 24.9687C25.5691 24.6489 25.7529 24.3699 25.6065 24.1929C25.4909 24.0534 25.1982 23.9343 24.7967 23.9343C24.4939 23.9343 24.2081 24.0194 23.9529 24.0466C23.6637 24.0772 23.4493 24.1691 23.2724 24.4413C23.1533 24.6216 23.0886 24.8598 23.0376 25.2239C23.0036 25.4587 22.9151 25.7275 22.9151 26.0609C22.9015 26.2923 22.8947 26.2923 22.8947 26.5271L22.8913 26.5237ZM97.2821 23.982C96.8976 23.982 96.6186 24.0432 96.4349 24.1113C96.0776 24.2406 95.9789 24.5332 96.1355 24.8428C96.2375 25.047 96.5302 25.2171 96.7445 25.4655C96.9181 25.6696 97.0167 25.9759 97.2175 26.1834C97.4182 26.391 97.7449 26.4727 97.949 26.6428C98.2042 26.8571 98.4356 27.0001 98.6398 27.0885C98.963 27.228 99.2216 27.2416 99.2216 26.8129C99.2216 26.4352 99.2318 26.4352 99.2318 26.0575C99.2318 25.7785 99.0991 25.5199 99.0379 25.2749C98.9698 25.0061 98.8541 24.785 98.6874 24.5876C98.5207 24.3903 98.3267 24.278 98.0477 24.1827C97.83 24.1079 97.5884 23.9786 97.2821 23.9786V23.982ZM61.0377 11.7326C60.7587 11.7326 60.4797 11.7598 60.2007 11.7633C59.9217 11.7667 59.6393 11.702 59.3637 11.7122C59.0881 11.7224 58.8124 11.8653 58.5334 11.8823C58.2544 11.8994 57.9686 11.7803 57.6896 11.8041C57.4106 11.8279 57.1486 12.0082 56.8696 12.0355C56.5905 12.0627 56.3183 12.1069 56.0427 12.1375C55.7671 12.1682 55.4711 12.0423 55.1955 12.0797C54.9199 12.1171 54.6409 12.1443 54.3653 12.1852C54.0896 12.226 53.831 12.3791 53.5554 12.4234C53.2798 12.4676 53.011 12.5356 52.7354 12.5867C52.4598 12.6377 52.191 12.7058 51.9188 12.7636C51.6466 12.8215 51.3574 12.8078 51.0852 12.8657C50.8129 12.9235 50.5271 12.9405 50.2583 13.0052C49.9895 13.0698 49.7309 13.1957 49.4621 13.2672C49.1933 13.3387 48.9279 13.4373 48.6625 13.5122C48.3971 13.587 48.1283 13.6687 47.8629 13.7504C47.5975 13.832 47.3049 13.8388 47.0395 13.9239C46.7741 14.009 46.5461 14.2097 46.2841 14.2982C46.0221 14.3867 45.7295 14.4003 45.4675 14.4955C45.2055 14.5908 44.9367 14.6725 44.6781 14.7711C44.4195 14.8698 44.1575 14.9753 43.9023 15.0808C43.6471 15.1863 43.3851 15.2985 43.1333 15.4108C42.8815 15.5231 42.6739 15.7545 42.4256 15.8702C42.1772 15.9859 41.8675 15.9995 41.6191 16.122C41.3708 16.2445 41.1224 16.384 40.8808 16.5133C40.6392 16.6426 40.3874 16.7787 40.1458 16.9114C39.9042 17.0441 39.6729 17.2108 39.4347 17.3503C39.1965 17.4898 38.9209 17.5851 38.6861 17.7314C38.4513 17.8777 38.254 18.0955 38.026 18.2486C37.798 18.4017 37.5224 18.5072 37.3013 18.6705C37.0801 18.8338 36.91 19.0822 36.6922 19.2524C36.4744 19.4225 36.243 19.5858 36.0321 19.7593C35.8211 19.9329 35.5829 20.0996 35.3822 20.2833C35.1066 20.5351 35.0317 20.7801 35.0453 20.9605C35.0589 21.1408 35.1882 21.2905 35.6476 21.2973C36.0695 21.2973 36.0695 21.3143 36.4914 21.3143C36.9134 21.3143 36.9134 21.379 37.3353 21.379C37.7572 21.379 37.7572 21.3449 38.1825 21.3449C38.6078 21.3449 38.6044 21.2395 39.0298 21.2395C39.4551 21.2395 39.4517 21.2599 39.8736 21.2599C40.2955 21.2599 40.2955 21.2361 40.7175 21.2361C41.1394 21.2361 41.1394 21.2701 41.5613 21.2701C41.9832 21.2701 41.9832 21.2054 42.4051 21.2054C42.8271 21.2054 42.8271 21.2463 43.249 21.2463C43.6709 21.2463 43.6709 21.2599 44.0928 21.2599C44.5147 21.2599 44.5147 21.2191 44.9367 21.2191C45.3586 21.2191 45.3586 21.2293 45.7839 21.2293C46.2092 21.2293 46.2058 21.3552 46.6312 21.3552C47.0565 21.3552 47.0531 21.362 47.4784 21.362C47.9037 21.362 47.9003 21.3279 48.3222 21.3279C48.7442 21.3279 48.7442 21.2667 49.1661 21.2667C49.588 21.2667 49.588 21.3484 50.0099 21.3484C50.4319 21.3484 50.4319 21.2122 50.8538 21.2122C51.2757 21.2122 51.2757 21.3449 51.701 21.3449C52.1263 21.3449 52.1229 21.3245 52.5483 21.3245C52.9736 21.3245 52.9702 21.1884 53.3955 21.1884C53.8208 21.1884 53.8174 21.2463 54.2428 21.2463C54.6681 21.2463 54.6647 21.3722 55.0866 21.3722C55.5085 21.3722 55.5085 21.2157 55.9304 21.2157C56.3524 21.2157 56.3524 21.3347 56.7777 21.3347C57.203 21.3347 57.1996 21.2871 57.6249 21.2871C58.0503 21.2871 58.0469 21.2837 58.4722 21.2837C58.8975 21.2837 58.8941 21.2973 59.3194 21.2973C59.7447 21.2973 59.7413 21.3756 60.1667 21.3756C60.592 21.3756 60.5886 21.3415 61.0139 21.3415C61.4392 21.3415 61.4358 21.2871 61.8612 21.2871C62.2865 21.2871 62.2831 21.2939 62.7084 21.2939C63.1337 21.2939 63.1303 21.2463 63.5557 21.2463C63.981 21.2463 63.9776 21.3484 64.4029 21.3484C64.8282 21.3484 64.8248 21.2599 65.2501 21.2599C65.6755 21.2599 65.6721 21.3484 66.0974 21.3484C66.5227 21.3484 66.5193 21.3177 66.9446 21.3177C67.37 21.3177 67.3666 21.2225 67.7919 21.2225C68.2172 21.2225 68.2138 21.2769 68.6357 21.2769C69.0576 21.2769 69.0576 21.2769 69.4796 21.2769C69.9015 21.2769 69.9015 21.3143 70.3234 21.3143C70.7453 21.3143 70.7453 21.2463 71.1707 21.2463C71.596 21.2463 71.5926 21.2054 72.0179 21.2054C72.4432 21.2054 72.4398 21.2769 72.8617 21.2769C73.2837 21.2769 73.2837 21.3041 73.709 21.3041C74.1343 21.3041 74.1309 21.2769 74.5562 21.2769C74.9816 21.2769 74.9782 21.1952 75.4035 21.1952C75.8288 21.1952 75.8254 21.2905 76.2507 21.2905C76.676 21.2905 76.6726 21.2531 77.098 21.2531C77.5233 21.2531 77.5233 21.2463 77.9452 21.2463C78.3671 21.2463 78.3671 21.2905 78.7925 21.2905C79.2178 21.2905 79.2178 21.2327 79.6397 21.2327C80.0616 21.2327 80.065 21.2122 80.4869 21.2122C80.9089 21.2122 80.9089 21.2939 81.3342 21.2939C81.7595 21.2939 81.7561 21.3109 82.1814 21.3109C82.6068 21.3109 82.6068 21.3347 83.0287 21.3347C83.4506 21.3347 83.454 21.3484 83.8759 21.3484C84.2978 21.3484 84.3013 21.3518 84.7232 21.3518C85.1451 21.3518 85.1485 21.2361 85.5738 21.2361C85.9991 21.2361 85.9991 21.3688 86.4245 21.3688C86.9927 21.3688 87.2207 21.1748 87.2411 20.9979C87.2615 20.821 87.1118 20.5487 86.7103 20.2493C86.4891 20.086 86.2884 19.892 86.0604 19.7287C85.8324 19.5654 85.5636 19.4735 85.3322 19.317C85.1009 19.1605 84.8933 18.9801 84.6585 18.827C84.4237 18.6739 84.189 18.5344 83.9508 18.3847C83.7126 18.235 83.4132 18.2044 83.175 18.0614C82.9368 17.9185 82.719 17.7484 82.4775 17.6089C82.2359 17.4694 82.0317 17.2755 81.7867 17.1393C81.5418 17.0032 81.3308 16.8195 81.0824 16.6902C80.834 16.5609 80.572 16.4724 80.3202 16.3499C80.0684 16.2275 79.8405 16.0675 79.5887 15.9484C79.3369 15.8293 79.0374 15.8191 78.7822 15.7035C78.5271 15.5878 78.2855 15.4585 78.0303 15.3462C77.7751 15.2339 77.5029 15.1761 77.2443 15.0706C76.9857 14.9651 76.7475 14.8188 76.4889 14.7167C76.2303 14.6146 76.0057 14.4275 75.7437 14.3288C75.4817 14.2301 75.1823 14.2471 74.9203 14.1553C74.6583 14.0634 74.4201 13.9001 74.1547 13.815C73.8893 13.73 73.6171 13.6721 73.3517 13.5938C73.0863 13.5156 72.8073 13.4816 72.5385 13.4033C72.2697 13.325 72.0111 13.2366 71.7423 13.1651C71.4735 13.0937 71.2251 12.9542 70.9529 12.8861C70.6807 12.8181 70.3847 12.8793 70.1124 12.8181C69.8402 12.7568 69.5987 12.5731 69.3264 12.5186C69.0542 12.4642 68.7548 12.5595 68.4792 12.5084C68.2036 12.4574 67.945 12.3519 67.6694 12.3077C67.3938 12.2634 67.1284 12.1682 66.8528 12.1273C66.5772 12.0865 66.2981 12.0967 66.0225 12.0627C65.7469 12.0287 65.4815 11.9198 65.2025 11.8891C64.9235 11.8585 64.6377 11.9878 64.3587 11.964C64.0797 11.9402 63.8074 11.9028 63.5318 11.8857C63.2562 11.8687 62.9806 11.8517 62.7016 11.8381C62.4226 11.8245 62.1504 11.7394 61.8714 11.736C61.5924 11.7326 61.3167 11.7088 61.0377 11.7088V11.7326Z" fill="black"/>
</svg>
