<svg width="277" height="277" viewBox="0 0 277 277" fill="none" xmlns="http://www.w3.org/2000/svg">
<path d="M138.241 0.260066C139.061 0.260066 139.881 0.200066 140.691 0.220066C141.501 0.240066 142.321 0.480066 143.131 0.510066C143.941 0.540066 144.781 0.200066 145.601 0.250066C146.421 0.300066 147.201 0.760066 148.021 0.820066C148.841 0.880066 149.691 0.490066 150.511 0.570066C151.331 0.650066 152.151 0.700066 152.961 0.800066C153.771 0.900066 154.521 1.47007 155.331 1.59007C156.141 1.71007 156.941 1.85007 157.751 1.98007C158.561 2.11007 159.421 1.93007 160.221 2.07007C161.021 2.21007 161.841 2.31007 162.641 2.47007C163.441 2.63007 164.261 2.75007 165.061 2.92007C165.861 3.09007 166.611 3.48007 167.411 3.67007C168.211 3.86007 168.961 4.20007 169.761 4.40007C170.561 4.60007 171.391 4.64007 172.181 4.86007C172.971 5.08007 173.781 5.22007 174.561 5.45007C175.341 5.68007 176.141 5.90007 176.911 6.15007C177.681 6.40007 178.401 6.86007 179.181 7.11007C179.961 7.36007 180.851 7.30007 181.621 7.57007C182.391 7.84007 183.081 8.35007 183.851 8.63007C184.621 8.91007 185.371 9.25007 186.131 9.54007C186.891 9.83007 187.661 10.1401 188.411 10.4401C189.161 10.7401 189.931 11.0501 190.681 11.3701C191.431 11.6901 192.341 11.6701 193.081 12.0001C193.821 12.3301 194.431 12.9901 195.171 13.3301C195.911 13.6701 196.671 13.9901 197.401 14.3401C198.131 14.6901 198.881 15.0501 199.611 15.4101C200.341 15.7701 201.111 16.0801 201.831 16.4501C202.551 16.8201 203.191 17.3801 203.901 17.7701C204.611 18.1601 205.441 18.3801 206.151 18.7801C206.861 19.1801 207.471 19.7701 208.171 20.1901C208.871 20.6101 209.731 20.7801 210.421 21.2001C211.111 21.6201 211.791 22.1201 212.471 22.5601C213.151 23.0001 213.791 23.5401 214.461 23.9901C215.131 24.4401 215.971 24.7001 216.631 25.1601C217.291 25.6201 217.821 26.3201 218.481 26.8001C219.141 27.2801 219.771 27.8201 220.411 28.3101C221.051 28.8001 221.591 29.4701 222.211 29.9801C222.831 30.4901 223.541 30.9401 224.151 31.4601C224.761 31.9801 225.601 32.3101 226.191 32.8401C226.721 33.3201 227.341 33.7801 228.091 34.1401C228.761 34.4701 229.511 34.6801 230.281 34.9201C231.051 35.1601 231.751 35.4401 232.521 35.6001C233.291 35.7601 234.111 35.6901 234.861 35.7701C235.701 35.8601 236.471 36.0301 237.171 36.0301C238.421 36.0301 238.421 36.0701 239.671 36.0701C240.921 36.0701 240.921 35.9501 242.181 35.9501C243.441 35.9501 243.431 35.9801 244.691 35.9801C245.951 35.9801 245.941 36.3501 247.201 36.3501C248.461 36.3501 248.461 36.3701 249.711 36.3701C250.961 36.3701 250.971 36.2701 252.221 36.2701C253.031 36.2701 253.821 36.2601 254.531 36.5501C255.241 36.8401 255.761 37.4801 256.321 38.0401C256.881 38.6001 257.641 39.0401 257.951 39.7701C258.261 40.5001 258.031 41.3301 258.031 42.1401C258.031 43.3501 258.091 43.3501 258.091 44.5601C258.091 45.7701 258.491 45.7701 258.491 46.9801C258.491 48.1901 258.321 48.1901 258.321 49.4001C258.321 50.6101 257.951 50.6101 257.951 51.8201C257.951 53.0301 258.411 53.0301 258.411 54.2401C258.411 55.4501 258.061 55.4501 258.061 56.6601C258.061 57.8701 258.201 57.8701 258.201 59.0801C258.201 60.2901 258.211 60.2901 258.211 61.5101C258.211 62.7301 258.171 62.7201 258.171 63.9401C258.171 64.6501 257.981 65.4801 258.061 66.3301C258.131 67.0801 258.331 67.8801 258.451 68.6801C258.571 69.4801 258.881 70.2201 259.051 70.9901C259.221 71.7601 259.411 72.5701 259.631 73.2901C259.881 74.1001 260.301 74.8001 260.601 75.4401C260.951 76.1801 261.031 77.0601 261.391 77.8301C261.751 78.6001 262.311 79.2201 262.661 80.0001C263.011 80.7801 263.091 81.6201 263.421 82.4001C263.751 83.1801 264.151 83.8901 264.471 84.6701C264.791 85.4501 265.361 86.1001 265.671 86.8801C265.981 87.6601 266.131 88.4801 266.431 89.2701C266.731 90.0601 267.011 90.8301 267.301 91.6201C267.591 92.4101 267.761 93.2201 268.041 94.0201C268.321 94.8201 268.781 95.5301 269.041 96.3301C269.301 97.1301 269.671 97.8801 269.931 98.6801C270.191 99.4801 270.231 100.33 270.471 101.14C270.711 101.95 270.871 102.76 271.091 103.57C271.311 104.38 271.611 105.15 271.821 105.97C272.031 106.79 272.471 107.52 272.671 108.34C272.871 109.16 272.781 110.03 272.971 110.84C273.161 111.65 273.441 112.44 273.611 113.26C273.781 114.08 273.971 114.89 274.121 115.71C274.271 116.53 274.301 117.37 274.441 118.2C274.581 119.03 274.881 119.82 275.001 120.65C275.121 121.48 275.301 122.29 275.411 123.13C275.521 123.97 275.381 124.81 275.471 125.65C275.561 126.49 275.601 127.31 275.671 128.15C275.741 128.99 275.741 129.82 275.791 130.65C275.841 131.48 275.851 132.31 275.891 133.15C275.931 133.99 275.941 134.81 275.961 135.65C275.981 136.49 276.331 137.31 276.331 138.15C276.331 138.99 275.931 139.82 275.911 140.66C275.891 141.5 276.251 142.35 276.221 143.18C276.191 144.01 275.891 144.84 275.851 145.68C275.811 146.52 275.631 147.34 275.571 148.17C275.511 149 275.661 149.86 275.571 150.69C275.481 151.52 275.301 152.35 275.201 153.17C275.101 153.99 275.021 154.84 274.911 155.66C274.801 156.48 275.051 157.38 274.931 158.2C274.811 159.02 274.551 159.84 274.411 160.66C274.271 161.48 273.911 162.28 273.751 163.09C273.591 163.9 273.241 164.7 273.071 165.51C272.901 166.32 272.841 167.17 272.651 167.98C272.461 168.79 272.151 169.58 271.951 170.39C271.751 171.2 271.871 172.1 271.661 172.9C271.451 173.7 271.151 174.5 270.921 175.3C270.691 176.1 270.581 176.95 270.341 177.75C270.101 178.55 269.701 179.31 269.441 180.1C269.181 180.89 268.631 181.59 268.351 182.38C268.071 183.17 268.101 184.07 267.811 184.85C267.521 185.63 267.001 186.33 266.691 187.11C266.381 187.89 266.141 188.7 265.821 189.46C265.501 190.22 265.291 191.06 264.961 191.82C264.631 192.58 264.221 193.33 263.871 194.08C263.521 194.83 262.951 195.5 262.591 196.25C262.231 197 262.171 197.92 261.791 198.65C261.411 199.38 260.681 199.96 260.281 200.68C259.941 201.31 260.041 202.23 259.781 203.04C259.551 203.76 259.181 204.48 259.011 205.28C258.841 206.08 258.551 206.81 258.441 207.59C258.331 208.37 258.371 209.21 258.311 209.97C258.241 210.82 257.981 211.63 257.981 212.34C257.981 213.6 258.431 213.6 258.431 214.85C258.431 216.1 258.381 216.1 258.381 217.36C258.381 218.62 258.381 218.61 258.381 219.87C258.381 221.13 258.151 221.12 258.151 222.38C258.151 223.64 258.471 223.64 258.471 224.89C258.471 226.14 258.291 226.15 258.291 227.4C258.291 228.65 258.261 228.65 258.261 229.91C258.261 231.17 257.981 231.17 257.981 232.42C257.981 233.67 258.191 233.68 258.191 234.93C258.191 236.18 258.441 236.19 258.441 237.44C258.441 238.69 258.441 238.7 258.441 239.95C258.441 241.2 258.361 241.21 258.361 242.46C258.361 243.71 258.191 243.72 258.191 244.98C258.191 246.24 258.131 246.24 258.131 247.49C258.131 248.74 258.201 248.75 258.201 250C258.201 251.25 258.031 251.26 258.031 252.52C258.031 253.78 258.121 253.78 258.121 255.03C258.121 256.28 258.271 256.29 258.271 257.54C258.271 258.79 258.191 258.8 258.191 260.06C258.191 261.32 258.331 261.32 258.331 262.58C258.331 263.84 258.131 263.84 258.131 265.1C258.131 266.36 258.041 266.36 258.041 267.62C258.041 268.88 258.061 268.88 258.061 270.14C258.061 270.95 258.211 271.79 257.911 272.5C257.611 273.21 257.051 273.87 256.501 274.42C255.951 274.97 255.271 275.44 254.541 275.74C253.811 276.04 253.031 276.21 252.221 276.21C250.981 276.21 250.981 276.15 249.741 276.15C248.501 276.15 248.501 276.38 247.261 276.38C246.021 276.38 246.021 275.95 244.781 275.95C243.541 275.95 243.541 276 242.301 276C241.061 276 241.061 276.26 239.821 276.26C238.581 276.26 238.581 276.17 237.341 276.17C236.101 276.17 236.101 276.4 234.861 276.4C233.621 276.4 233.621 275.91 232.381 275.91C231.141 275.91 231.141 276.14 229.901 276.14C228.661 276.14 228.661 276.22 227.421 276.22C226.181 276.22 226.181 276.2 224.941 276.2C223.701 276.2 223.701 276.16 222.461 276.16C221.221 276.16 221.221 276.35 219.981 276.35C218.741 276.35 218.741 276.39 217.501 276.39C216.261 276.39 216.261 276.4 215.021 276.4C213.781 276.4 213.781 276.35 212.541 276.35C211.301 276.35 211.301 276.22 210.071 276.22C208.841 276.22 208.831 276.4 207.601 276.4C206.371 276.4 206.361 276.31 205.131 276.31C203.901 276.31 203.891 276.31 202.651 276.31C201.411 276.31 201.411 275.96 200.171 275.96C198.931 275.96 198.931 276.29 197.691 276.29C196.451 276.29 196.451 276.03 195.211 276.03C193.971 276.03 193.971 276.37 192.731 276.37C191.491 276.37 191.491 276.02 190.251 276.02C189.011 276.02 189.011 276.32 187.781 276.32C186.551 276.32 186.541 275.99 185.311 275.99C184.081 275.99 184.071 276.41 182.841 276.41C181.611 276.41 181.601 276.3 180.371 276.3C179.141 276.3 179.131 275.92 177.901 275.92C176.671 275.92 176.661 276.2 175.431 276.2C174.201 276.2 174.191 276.07 172.961 276.07C171.731 276.07 171.721 276.43 170.481 276.43C169.241 276.43 169.241 276.27 168.001 276.27C166.761 276.27 166.761 276.05 165.521 276.05C164.281 276.05 164.281 276.14 163.041 276.14C161.801 276.14 161.801 276.37 160.561 276.37C159.321 276.37 159.321 276.28 158.081 276.28C156.841 276.28 156.841 276.19 155.601 276.19C154.361 276.19 154.361 275.97 153.131 275.97C151.901 275.97 151.891 276.22 150.651 276.22C149.411 276.22 149.411 276.13 148.171 276.13C146.931 276.13 146.931 276.05 145.691 276.05C144.451 276.05 144.451 275.99 143.211 275.99C141.971 275.99 141.971 276.23 140.731 276.23C139.491 276.23 139.491 276.27 138.251 276.27C137.011 276.27 137.011 275.91 135.771 275.91C134.531 275.91 134.531 276.38 133.291 276.38C132.051 276.38 132.051 276.08 130.811 276.08C129.571 276.08 129.571 276.18 128.331 276.18C127.091 276.18 127.091 275.93 125.851 275.93C124.611 275.93 124.611 276.42 123.371 276.42C122.131 276.42 122.131 276.35 120.891 276.35C119.651 276.35 119.651 276.42 118.411 276.42C117.171 276.42 117.171 275.98 115.931 275.98C114.691 275.98 114.691 276.08 113.451 276.08C112.211 276.08 112.211 276.38 110.971 276.38C109.731 276.38 109.731 276.42 108.491 276.42C107.251 276.42 107.251 275.92 106.011 275.92C104.771 275.92 104.771 276.18 103.531 276.18C102.291 276.18 102.291 275.95 101.051 275.95C99.8109 275.95 99.8109 276.43 98.5709 276.43C97.3309 276.43 97.3309 276.28 96.0909 276.28C94.8509 276.28 94.8509 276.28 93.6109 276.28C92.3709 276.28 92.3709 275.92 91.1309 275.92C89.8909 275.92 89.8909 275.98 88.6509 275.98C87.4109 275.98 87.4109 276.24 86.1709 276.24C84.9309 276.24 84.9309 276.22 83.6909 276.22C82.4509 276.22 82.4509 275.99 81.2109 275.99C79.9709 275.99 79.9709 276.42 78.7309 276.42C77.4909 276.42 77.4909 276.18 76.2509 276.18C75.0109 276.18 75.0109 276.09 73.7709 276.09C72.5309 276.09 72.5309 276.38 71.2909 276.38C70.0509 276.38 70.0509 276.32 68.8109 276.32C67.5709 276.32 67.5709 275.92 66.3309 275.92C65.0909 275.92 65.0909 276.38 63.8509 276.38C62.6109 276.38 62.6109 276.39 61.3709 276.39C60.1309 276.39 60.1309 276.17 58.8909 276.17C57.6509 276.17 57.6509 275.98 56.4109 275.98C55.1709 275.98 55.1709 276.09 53.9309 276.09C52.6909 276.09 52.6909 276.26 51.4509 276.26C50.2109 276.26 50.2109 276.38 48.9709 276.38C47.7309 276.38 47.7309 276 46.4909 276C45.2509 276 45.2509 276.12 44.0109 276.12C42.7709 276.12 42.7709 275.88 41.5309 275.88C40.2909 275.88 40.2909 276 39.0509 276C37.8109 276 37.8109 276.23 36.5709 276.23C35.3309 276.23 35.3309 276.18 34.0909 276.18C32.8509 276.18 32.8509 276.07 31.6009 276.07C30.3509 276.07 30.3609 276.03 29.1109 276.03C27.8609 276.03 27.8709 276.34 26.6209 276.34C25.3709 276.34 25.3809 275.85 24.1309 275.85C23.3209 275.85 22.5709 275.9 21.8609 275.61C21.1509 275.32 20.4409 274.93 19.8809 274.37C19.3209 273.81 19.1109 273.06 18.8009 272.33C18.4909 271.6 18.3509 270.94 18.3509 270.13C18.3509 268.87 18.0409 268.87 18.0409 267.62C18.0409 266.37 18.0409 266.37 18.0409 265.11C18.0409 263.85 18.1609 263.86 18.1609 262.6C18.1609 261.34 18.2009 261.35 18.2009 260.09C18.2009 258.83 17.9309 258.83 17.9309 257.58C17.9309 256.33 18.1709 256.32 18.1709 255.07C18.1709 253.82 17.9609 253.82 17.9609 252.56C17.9609 251.3 17.9009 251.3 17.9009 250.05C17.9009 248.8 17.9909 248.79 17.9909 247.54C17.9909 246.29 18.3109 246.28 18.3109 245.03C18.3109 243.78 18.0109 243.77 18.0109 242.52C18.0109 241.27 18.2009 241.26 18.2009 240.01C18.2009 238.76 18.3509 238.75 18.3509 237.49C18.3509 236.23 17.9309 236.23 17.9309 234.98C17.9309 233.73 18.1609 233.72 18.1609 232.47C18.1609 231.22 18.0609 231.21 18.0609 229.95C18.0609 228.69 17.9809 228.69 17.9809 227.44C17.9809 226.19 18.3809 226.18 18.3809 224.93C18.3809 223.68 17.9509 223.67 17.9509 222.41C17.9509 221.15 18.2909 221.15 18.2909 219.89C18.2909 218.63 18.2009 218.63 18.2009 217.37C18.2009 216.11 18.1209 216.11 18.1209 214.85C18.1209 213.59 18.3409 213.59 18.3409 212.33C18.3409 211.62 18.2909 210.8 18.2109 209.95C18.1409 209.19 17.7409 208.44 17.6209 207.63C17.5009 206.82 17.5509 206.03 17.3809 205.26C17.2109 204.49 17.1109 203.65 16.8809 202.93C16.6309 202.12 16.0709 201.46 15.7509 200.82C15.3809 200.06 15.0209 199.3 14.6609 198.56C14.3009 197.82 14.1009 196.96 13.7509 196.21C13.4009 195.46 12.8809 194.76 12.5409 194C12.2009 193.24 11.8409 192.47 11.5109 191.71C11.1809 190.95 10.6809 190.23 10.3609 189.47C10.0409 188.71 9.8809 187.85 9.5609 187.08C9.2409 186.31 8.9809 185.5 8.6809 184.73C8.3809 183.96 7.8909 183.23 7.6009 182.45C7.3109 181.67 7.0009 180.88 6.7209 180.09C6.4409 179.3 6.2109 178.49 5.9409 177.7C5.6709 176.91 5.7409 176.01 5.4909 175.21C5.2409 174.41 4.7009 173.7 4.4709 172.89C4.2409 172.08 4.0409 171.27 3.8309 170.46C3.6209 169.65 3.7309 168.76 3.5409 167.95C3.3509 167.14 2.9809 166.37 2.8009 165.55C2.6209 164.73 2.4109 163.93 2.2509 163.1C2.0909 162.27 2.2009 161.42 2.0609 160.59C1.9209 159.76 1.5109 158.99 1.3909 158.16C1.2709 157.33 1.1009 156.52 1.0009 155.68C0.9009 154.84 0.8409 154.02 0.7609 153.18C0.6809 152.34 0.5409 151.53 0.4709 150.69C0.4009 149.85 0.3109 149.03 0.2609 148.19C0.2109 147.35 0.1809 146.52 0.1409 145.68C0.1009 144.84 0.3009 144.01 0.2709 143.16C0.2409 142.31 0.3809 141.49 0.3709 140.65C0.3609 139.81 0.3009 138.99 0.3009 138.14C0.3009 137.29 -0.0191001 136.46 0.000899908 135.63C0.0209 134.8 0.2809 133.96 0.3109 133.13C0.3409 132.3 0.0909 131.44 0.1409 130.61C0.1909 129.78 0.4609 128.95 0.5209 128.12C0.5809 127.29 0.5609 126.44 0.6409 125.61C0.7209 124.78 1.1409 123.98 1.2409 123.15C1.3409 122.32 1.1109 121.44 1.2209 120.62C1.3309 119.8 1.5309 118.97 1.6509 118.14C1.7709 117.31 2.0809 116.51 2.2209 115.69C2.3609 114.87 2.5009 114.04 2.6609 113.22C2.8209 112.4 3.0409 111.59 3.2109 110.77C3.3809 109.95 3.4509 109.11 3.6309 108.3C3.8109 107.49 3.7209 106.6 3.9209 105.79C4.1209 104.98 4.6609 104.25 4.8809 103.44C5.1009 102.63 5.0609 101.75 5.2809 100.95C5.5009 100.15 6.0109 99.4101 6.2509 98.6201C6.4909 97.8301 6.6609 96.9901 6.9209 96.2001C7.1809 95.4101 7.3309 94.5701 7.6009 93.7801C7.8709 92.9901 8.2409 92.2201 8.5309 91.4501C8.8209 90.6801 9.2709 89.9301 9.5709 89.1601C9.8709 88.3901 9.8109 87.4401 10.1209 86.6801C10.4309 85.9201 10.8909 85.1701 11.2209 84.4201C11.5509 83.6701 11.9909 82.9201 12.3409 82.1801C12.6909 81.4401 13.2109 80.7301 13.5809 80.0001C13.9509 79.2701 14.0609 78.3501 14.4509 77.6301C14.8409 76.9101 15.5409 76.3101 15.9509 75.6001C16.3109 74.9801 16.2509 74.0801 16.5109 73.2701C16.7509 72.5501 17.4209 71.9001 17.5909 71.1001C17.7609 70.3001 17.7209 69.5001 17.8309 68.7201C17.9409 67.9401 18.0609 67.1101 18.1109 66.3501C18.1709 65.4901 18.3509 64.6801 18.3509 63.9701C18.3509 62.7601 18.2709 62.7601 18.2709 61.5501C18.2709 60.3401 17.9409 60.3401 17.9409 59.1301C17.9409 57.9201 18.2009 57.9201 18.2009 56.7101C18.2009 55.5001 18.2609 55.5001 18.2609 54.2901C18.2609 53.0801 18.1609 53.0801 18.1609 51.8701C18.1609 50.6601 17.9009 50.6601 17.9009 49.4501C17.9009 48.2401 18.2909 48.2401 18.2909 47.0301C18.2909 45.8201 17.8609 45.8201 17.8609 44.6001C17.8609 43.3801 17.8709 43.3901 17.8709 42.1701C17.8709 41.3601 18.2009 40.5601 18.5009 39.8501C18.8009 39.1401 19.2809 38.4601 19.8309 37.9101C20.3809 37.3601 21.0409 36.8701 21.7709 36.5701C22.5009 36.2701 23.2809 36.3001 24.0909 36.3001C25.3409 36.3001 25.3409 36.4201 26.5909 36.4201C27.8409 36.4201 27.8409 36.4001 29.1009 36.4001C30.3609 36.4001 30.3509 36.1201 31.6109 36.1201C32.8709 36.1201 32.8609 36.2401 34.1209 36.2401C35.3809 36.2401 35.3809 35.9401 36.6309 35.9401C37.8809 35.9401 37.8909 35.9601 39.1409 35.9601C39.8409 35.9601 40.6309 36.0301 41.4709 35.9401C42.2209 35.8601 42.9909 35.7101 43.7709 35.5501C44.5509 35.3901 45.2609 35.1001 46.0009 34.8701C46.7409 34.6401 47.6709 34.7401 48.3409 34.4101C49.1009 34.0401 49.6809 33.4401 50.2109 32.9601C50.8109 32.4201 51.4109 31.8601 52.0409 31.3201C52.6709 30.7801 53.3709 30.3701 54.0109 29.8501C54.6509 29.3301 55.1009 28.6001 55.7509 28.0901C56.4009 27.5801 57.0509 27.1001 57.7109 26.6001C58.3709 26.1001 59.0509 25.6601 59.7209 25.1801C60.3909 24.7001 61.1809 24.4301 61.8609 23.9601C62.5409 23.4901 63.0909 22.8601 63.7809 22.4101C64.4709 21.9601 65.1409 21.5001 65.8409 21.0701C66.5409 20.6401 67.4409 20.5601 68.1509 20.1401C68.8609 19.7201 69.4909 19.2101 70.2109 18.8001C70.9309 18.3901 71.4209 17.6301 72.1409 17.2301C72.8609 16.8301 73.8009 16.8701 74.5309 16.4801C75.2609 16.0901 75.8509 15.4901 76.5909 15.1201C77.3309 14.7501 78.1009 14.5001 78.8409 14.1401C79.5809 13.7801 80.1609 13.1101 80.9109 12.7601C81.6609 12.4101 82.5309 12.3601 83.2809 12.0301C84.0309 11.7001 84.7309 11.2801 85.4909 10.9601C86.2509 10.6401 87.0409 10.4301 87.8009 10.1301C88.5609 9.83007 89.3909 9.71007 90.1509 9.41007C90.9109 9.11007 91.6909 8.87007 92.4609 8.59007C93.2309 8.31007 93.8409 7.58007 94.6109 7.31007C95.3809 7.04007 96.3109 7.25007 97.1009 7.00007C97.8909 6.75007 98.6109 6.37007 99.4009 6.13007C100.191 5.89007 100.951 5.59007 101.741 5.37007C102.531 5.15007 103.301 4.86007 104.091 4.65007C104.881 4.44007 105.701 4.33007 106.491 4.13007C107.281 3.93007 108.011 3.44007 108.811 3.26007C109.611 3.08007 110.461 3.16007 111.271 2.99007C112.081 2.82007 112.871 2.63007 113.671 2.47007C114.471 2.31007 115.331 2.45007 116.141 2.31007C116.951 2.17007 117.681 1.59007 118.491 1.47007C119.301 1.35007 120.171 1.65007 120.981 1.54007C121.791 1.43007 122.591 1.25007 123.411 1.16007C124.231 1.07007 125.001 0.580066 125.811 0.500066C126.621 0.420066 127.451 0.360066 128.261 0.300066C129.071 0.240066 129.931 0.670066 130.751 0.620066C131.571 0.570066 132.361 0.0900656 133.181 0.0600656C134.001 0.0300656 134.821 0.0400656 135.641 0.0200656C136.461 6.55245e-05 137.281 0.280066 138.101 0.280066L138.241 0.260066ZM26.1309 262.16C26.1309 262.97 26.3709 263.76 26.6609 264.47C26.9509 265.18 27.2709 266.03 27.8209 266.58C28.3709 267.13 29.2609 267.28 29.9909 267.58C30.7209 267.88 31.4209 268.43 32.2309 268.43C33.4509 268.43 33.4509 267.96 34.6609 267.96C35.8709 267.96 35.8709 267.91 37.0909 267.91C38.3109 267.91 38.3109 268.38 39.5209 268.38C40.7309 268.38 40.7409 268.41 41.9509 268.41C43.1609 268.41 43.1709 268.09 44.3809 268.09C45.5909 268.09 45.6009 268.04 46.8109 268.04C48.0209 268.04 48.0309 267.99 49.2409 267.99C50.4509 267.99 50.4609 268.21 51.6809 268.21C52.9009 268.21 52.9009 268.36 54.1109 268.36C55.3209 268.36 55.3309 268.19 56.5509 268.19C57.7709 268.19 57.7709 268.12 58.9909 268.12C60.2109 268.12 60.2109 268.12 61.4309 268.12C62.6509 268.12 62.6509 268.35 63.8709 268.35C65.0909 268.35 65.0909 268.01 66.3109 268.01C67.5309 268.01 67.5309 268.27 68.7509 268.27C69.9709 268.27 69.9709 268.33 71.1809 268.33C72.3909 268.33 72.4009 268.33 73.6209 268.33C74.8409 268.33 74.8409 268.33 76.0609 268.33C77.2809 268.33 77.2809 267.95 78.5009 267.95C79.7209 267.95 79.7209 268.3 80.9409 268.3C82.1609 268.3 82.1609 268.26 83.3809 268.26C84.6009 268.26 84.6009 268.26 85.8209 268.26C87.4709 268.26 88.3809 267.86 88.5109 267.34C88.6409 266.82 88.0909 265.93 86.6409 265.15C85.9109 264.84 85.0709 264.71 84.3109 264.38C83.5509 264.05 82.9309 263.54 82.1809 263.2C81.4309 262.86 80.6009 262.79 79.8509 262.43C79.1009 262.07 78.4309 261.68 77.6909 261.3C76.9509 260.92 76.3009 260.48 75.5709 260.1C74.8409 259.72 74.0209 259.58 73.2909 259.18C72.5609 258.78 72.0009 258.18 71.2809 257.77C70.5609 257.36 69.9009 256.93 69.1909 256.51C68.4809 256.09 67.9109 255.52 67.2009 255.09C66.4909 254.66 65.7809 254.33 65.0809 253.88C64.3809 253.43 63.5509 253.26 62.8709 252.81C62.1909 252.36 61.5509 251.86 60.8809 251.4C60.2109 250.94 59.5109 250.53 58.8409 250.06C58.1709 249.59 57.5809 249.03 56.9209 248.54C56.2609 248.05 55.5009 247.72 54.8509 247.22C54.1909 246.72 53.6209 246.12 52.9809 245.62C52.3409 245.12 51.7209 244.56 51.0909 244.05C50.4609 243.54 49.7409 243.09 49.1309 242.56C48.5209 242.03 47.9009 241.46 47.2909 240.93C46.6809 240.4 46.3109 239.56 45.7109 239.01C45.1109 238.46 44.5109 237.89 43.9209 237.33C43.3309 236.77 42.6609 236.27 42.0809 235.71C41.5009 235.15 40.7809 234.68 40.2109 234.11C39.6409 233.54 39.2309 232.76 38.6709 232.18C38.1109 231.6 37.2409 231.25 36.7009 230.66C36.1609 230.07 35.8709 229.18 35.3409 228.59C34.8109 228 34.2009 227.4 33.6709 226.79C33.1409 226.18 32.2909 225.8 31.7809 225.19C31.2709 224.58 30.8409 223.79 30.3409 223.17C29.8809 222 28.5309 221.13 27.3709 221.6C26.6109 221.91 26.4309 223.18 26.4309 224.83C26.4309 226.07 26.0809 226.07 26.0809 227.32C26.0809 228.57 26.2209 228.56 26.2209 229.81C26.2209 231.06 26.2309 231.05 26.2309 232.3C26.2309 233.55 26.1909 233.54 26.1909 234.79C26.1909 236.04 25.9609 236.04 25.9609 237.28C25.9609 238.52 26.0609 238.52 26.0609 239.77C26.0609 241.02 26.2209 241.02 26.2209 242.26C26.2209 243.5 26.2009 243.51 26.2009 244.75C26.2009 245.99 26.3409 245.99 26.3409 247.24C26.3409 248.49 26.0409 248.48 26.0409 249.73C26.0409 250.98 26.3009 250.98 26.3009 252.22C26.3009 253.46 26.0409 253.47 26.0409 254.71C26.0409 255.95 26.1309 255.96 26.1309 257.2C26.1309 258.44 26.4509 258.45 26.4109 259.7C26.3709 260.95 26.1309 260.94 26.1309 262.19V262.16ZM151.641 205.69C151.261 205.09 150.731 204.49 150.191 203.85C149.711 203.27 149.331 202.54 148.761 201.97C148.191 201.4 147.371 201.17 146.771 200.68C146.171 200.19 145.751 199.37 145.121 198.97C144.421 198.52 143.501 198.56 142.841 198.31C142.211 198.07 141.501 197.94 140.671 197.81C139.961 197.7 139.241 197.16 138.451 197.13C137.701 197.1 136.911 197.08 136.151 197.13C135.391 197.18 134.641 197.58 133.911 197.71C133.121 197.85 132.401 198.07 131.731 198.3C131.061 198.53 130.401 198.92 129.701 199.37C129.071 199.77 128.321 200.07 127.711 200.6C127.101 201.13 126.441 201.55 125.901 202.11C125.361 202.67 124.951 203.4 124.481 203.99C123.961 204.65 123.561 205.34 123.181 205.94C122.511 207.02 122.521 207.02 121.851 208.1C121.181 209.18 120.991 209.06 120.321 210.14C119.651 211.22 119.941 211.4 119.281 212.48C118.621 213.56 118.391 213.42 117.731 214.5C117.071 215.58 117.011 215.55 116.341 216.62C115.671 217.69 115.661 217.7 115.001 218.78C114.341 219.86 114.341 219.86 113.671 220.94C113.001 222.02 113.321 222.22 112.651 223.3C111.981 224.38 111.681 224.19 111.011 225.27C110.341 226.35 110.371 226.37 109.701 227.45C109.031 228.53 109.041 228.53 108.371 229.61C107.701 230.69 107.771 230.73 107.101 231.81C106.431 232.89 106.271 232.79 105.601 233.87C104.931 234.95 105.111 235.06 104.441 236.14C103.771 237.22 103.601 237.11 102.931 238.19C102.261 239.27 102.511 239.43 101.841 240.51C101.171 241.59 101.121 241.56 100.451 242.64C99.7809 243.72 99.6909 243.67 99.0209 244.75C98.3509 245.83 98.5709 245.97 97.9009 247.05C97.2309 248.13 97.0109 248 96.3409 249.08C95.8709 249.84 95.3409 250.59 94.8609 251.33C94.3409 252.14 93.6709 252.8 93.2209 253.48C92.5409 254.49 92.0809 255.33 91.7609 255.72C91.3109 256.27 91.4909 257.49 92.2609 258.54C92.7309 259.19 93.4309 259.79 94.6409 260.16C95.8109 260.58 95.4709 260.45 96.9709 261C97.6209 261.24 98.3609 261.61 99.2609 261.91C99.9709 262.15 100.811 262.22 101.671 262.48C102.411 262.71 103.161 263.06 104.011 263.3C104.771 263.52 105.551 263.77 106.391 263.99C107.161 264.19 107.981 264.28 108.821 264.48C109.601 264.67 110.391 264.88 111.221 265.06C112.001 265.23 112.741 265.77 113.561 265.93C114.381 266.09 115.161 266.26 115.991 266.41C116.821 266.56 117.621 266.59 118.451 266.73C119.281 266.87 120.091 266.8 120.931 266.92C121.771 267.04 122.521 267.38 123.351 267.48C124.181 267.58 125.021 267.27 125.851 267.36C126.681 267.45 127.451 267.9 128.281 267.97C129.111 268.04 129.931 268.03 130.761 268.08C131.591 268.13 132.421 267.77 133.251 267.8C134.081 267.83 134.891 268.03 135.721 268.05C136.551 268.07 137.371 268.45 138.201 268.45C139.031 268.45 139.861 267.98 140.671 267.96C141.481 267.94 142.341 268.27 143.161 268.23C143.981 268.19 144.811 268.02 145.631 267.97C146.451 267.92 147.291 267.85 148.101 267.79C148.911 267.73 149.761 267.69 150.571 267.61C151.381 267.53 152.251 267.66 153.061 267.57C153.871 267.48 154.701 267.27 155.511 267.15C156.321 267.03 157.141 266.75 157.941 266.63C158.741 266.51 159.591 266.38 160.391 266.24C161.191 266.1 162.001 265.8 162.791 265.64C163.621 265.48 164.491 265.6 165.281 265.43C166.111 265.25 166.861 264.81 167.641 264.62C168.471 264.42 169.341 264.47 170.101 264.27C170.941 264.05 171.711 263.75 172.471 263.53C173.311 263.29 174.021 262.78 174.761 262.56C175.621 262.29 176.451 262.2 177.161 261.96C178.061 261.66 178.841 261.39 179.491 261.15C180.991 260.6 180.661 260.77 181.821 260.35C182.871 260.03 183.671 259.48 184.331 259.1C185.661 258.35 186.041 257.83 185.251 257.34C184.851 257.09 184.261 256.17 183.451 255.19C182.921 254.55 182.391 253.75 181.801 252.98C181.241 252.24 180.631 251.52 180.111 250.79C179.521 249.95 178.781 249.29 178.361 248.63C177.691 247.56 177.921 247.41 177.251 246.35C176.581 245.29 176.481 245.34 175.811 244.27C175.141 243.2 175.111 243.22 174.441 242.15C173.771 241.08 173.871 241.02 173.201 239.95C172.531 238.88 172.381 238.97 171.711 237.91C171.041 236.85 170.981 236.87 170.311 235.81C169.641 234.75 169.831 234.62 169.161 233.55C168.491 232.48 168.521 232.46 167.851 231.39C167.181 230.32 167.241 230.28 166.561 229.22C165.881 228.16 165.921 228.13 165.241 227.06C164.561 225.99 164.581 225.98 163.901 224.92C163.221 223.86 162.931 224.04 162.261 222.97C161.591 221.9 161.911 221.69 161.241 220.62C160.571 219.55 160.241 219.76 159.571 218.69C158.901 217.62 159.111 217.49 158.431 216.42C157.751 215.35 157.851 215.29 157.171 214.22C156.491 213.15 156.311 213.27 155.631 212.2C154.951 211.13 155.041 211.07 154.361 210C153.681 208.93 153.641 208.96 152.991 207.87C152.341 206.78 152.301 206.8 151.621 205.73L151.641 205.69ZM250.341 224.79C250.341 223.84 250.111 223.08 249.831 222.57C249.421 221.81 248.641 221.31 247.811 221.57C247.251 221.74 246.791 222.49 246.131 223.17C245.621 223.78 244.791 224.13 244.241 224.76C243.691 225.39 243.531 226.29 242.981 226.9C242.431 227.51 241.931 228.13 241.361 228.74C240.791 229.35 239.911 229.6 239.341 230.2C238.771 230.8 238.201 231.34 237.611 231.93C237.021 232.52 236.691 233.31 236.101 233.89C235.511 234.47 234.971 235.06 234.371 235.63C233.771 236.2 233.221 236.78 232.611 237.34C232.001 237.9 231.271 238.28 230.651 238.83C230.031 239.38 229.341 239.79 228.711 240.33C228.081 240.87 227.591 241.52 226.961 242.05C226.331 242.58 225.761 243.15 225.121 243.67C224.481 244.19 223.861 244.7 223.211 245.21C222.561 245.72 221.791 246.03 221.131 246.53C220.481 247.03 220.041 247.79 219.391 248.27C218.741 248.75 217.921 249.03 217.271 249.49C216.621 249.95 215.911 250.38 215.241 250.84C214.571 251.3 213.891 251.76 213.221 252.2C212.551 252.64 211.861 253.11 211.191 253.54C210.521 253.97 210.021 254.74 209.331 255.17C208.641 255.6 207.761 255.73 207.071 256.15C206.381 256.57 205.691 257.02 205.001 257.43C204.311 257.84 203.591 258.26 202.891 258.65C202.191 259.04 201.501 259.52 200.801 259.9C200.101 260.28 199.271 260.51 198.561 260.88C197.851 261.25 197.211 261.82 196.491 262.18C195.771 262.54 194.931 262.73 194.221 263.08C193.511 263.43 192.871 264.06 192.151 264.39C191.431 264.72 190.631 265.03 189.911 265.35C188.521 265.57 187.731 266.65 187.901 267.33C188.031 267.85 188.981 267.94 190.631 267.94C191.851 267.94 191.851 268.2 193.061 268.2C194.271 268.2 194.271 268.25 195.491 268.25C196.711 268.25 196.711 268.44 197.921 268.44C199.131 268.44 199.141 268.34 200.351 268.34C201.561 268.34 201.571 268.03 202.781 268.03C203.991 268.03 204.001 268.09 205.211 268.09C206.421 268.09 206.431 268.02 207.641 268.02C208.851 268.02 208.861 268.12 210.081 268.12C211.301 268.12 211.301 267.93 212.511 267.93C213.721 267.93 213.731 268.05 214.951 268.05C216.171 268.05 216.171 268.09 217.391 268.09C218.611 268.09 218.611 267.97 219.831 267.97C221.051 267.97 221.051 268 222.271 268C223.491 268 223.491 268.37 224.711 268.37C225.931 268.37 225.931 268.39 227.151 268.39C228.371 268.39 228.371 268.29 229.581 268.29C230.791 268.29 230.801 268.11 232.021 268.11C233.241 268.11 233.241 268.35 234.461 268.35C235.681 268.35 235.681 267.95 236.901 267.95C238.121 267.95 238.121 268.34 239.341 268.34C240.561 268.34 240.561 268.28 241.781 268.28C243.001 268.28 243.001 267.88 244.221 267.88C245.031 267.88 245.771 267.89 246.471 267.6C247.171 267.31 248.091 267.14 248.641 266.58C249.191 266.02 249.271 265.1 249.581 264.37C249.891 263.64 250.371 262.96 250.371 262.15C250.371 260.91 250.231 260.91 250.231 259.66C250.231 258.41 250.221 258.42 250.221 257.17C250.221 255.92 250.261 255.93 250.261 254.68C250.261 253.43 250.491 253.44 250.491 252.19C250.491 250.94 250.391 250.94 250.391 249.7C250.391 248.46 250.231 248.46 250.231 247.21C250.231 245.96 250.251 245.96 250.251 244.72C250.251 243.48 250.111 243.47 250.111 242.23C250.111 240.99 250.411 240.99 250.411 239.74C250.411 238.49 250.151 238.5 250.151 237.25C250.151 236 250.411 236 250.411 234.76C250.411 233.52 250.321 233.51 250.321 232.27C250.321 231.03 250.041 231.02 250.041 229.78C250.041 228.54 250.171 228.53 250.201 227.28C250.231 226.03 250.321 226.03 250.321 224.78L250.341 224.79ZM208.761 145.04C208.081 145.22 207.351 145.56 206.581 145.88C205.891 146.17 205.071 146.32 204.371 146.7C203.671 147.08 203.201 147.8 202.551 148.22C201.901 148.64 201.001 148.81 200.431 149.29C199.791 149.82 199.561 150.71 199.111 151.26C198.661 151.81 198.331 152.45 197.971 153.18C197.651 153.84 196.931 154.38 196.681 155.13C196.431 155.88 196.201 156.62 196.031 157.35C195.861 158.08 196.031 158.95 195.931 159.67C195.821 160.51 195.821 161.28 195.821 161.94C195.821 162.66 195.991 163.39 196.221 164.2C196.421 164.92 196.491 165.73 196.821 166.46C197.151 167.19 197.361 167.95 197.751 168.63C198.141 169.31 198.721 169.91 199.151 170.53C199.631 171.22 200.181 171.8 200.651 172.33C201.481 173.27 201.491 173.26 202.321 174.2C203.151 175.14 202.981 175.29 203.811 176.23C204.641 177.17 204.901 176.94 205.731 177.88C206.561 178.82 206.371 178.99 207.201 179.93C208.031 180.87 207.991 180.91 208.821 181.85C209.651 182.79 209.651 182.79 210.481 183.73C211.311 184.67 211.321 184.67 212.151 185.61C212.981 186.55 213.261 186.3 214.091 187.24C214.921 188.18 214.661 188.41 215.491 189.35C216.321 190.29 216.351 190.26 217.181 191.2C218.011 192.14 218.021 192.13 218.851 193.07C219.681 194.01 219.741 193.96 220.581 194.9C221.421 195.84 221.271 195.97 222.101 196.9C222.931 197.83 223.091 197.7 223.921 198.64C224.751 199.58 224.601 199.72 225.431 200.66C226.261 201.6 226.491 201.4 227.321 202.34C228.151 203.28 228.111 203.32 228.951 204.26C229.791 205.2 229.711 205.27 230.551 206.21C231.391 207.15 231.581 206.98 232.421 207.92C232.891 208.45 233.181 209.18 233.651 209.74C234.121 210.3 234.561 210.9 235.011 211.45C235.501 212.06 235.801 212.75 236.211 213.28C236.771 214.01 237.281 214.55 237.551 214.97C237.861 215.47 238.651 215.79 239.361 216.09C239.981 216.35 240.631 216.49 241.351 216.23C241.911 216.03 242.381 215.61 242.901 214.91C243.581 213.96 243.651 214.01 244.321 213.05C244.991 212.09 244.831 211.98 245.501 211.02C246.171 210.06 246.271 210.13 246.931 209.17C247.311 208.57 247.701 207.91 248.051 207.15C248.361 206.47 248.531 205.71 248.781 204.95C249.031 204.19 249.271 203.49 249.461 202.74C249.651 201.99 250.171 201.27 250.281 200.53C250.401 199.71 250.491 198.89 250.491 198.18C250.491 196.91 250.391 196.91 250.391 195.65C250.391 194.39 250.211 194.39 250.211 193.12C250.211 191.85 250.451 191.86 250.451 190.6C250.451 189.34 250.051 189.34 250.051 188.07C250.051 186.8 250.441 186.81 250.441 185.54C250.441 184.27 250.381 184.28 250.381 183.01C250.381 181.74 249.981 181.75 249.981 180.48C249.981 179.21 250.151 179.22 250.151 177.95C250.151 176.68 250.521 176.68 250.521 175.42C250.521 174.16 250.061 174.16 250.061 172.89C250.061 171.62 250.411 171.62 250.411 170.36C250.411 169.1 250.271 169.09 250.271 167.83C250.271 166.57 250.261 166.56 250.261 165.3C250.261 164.04 250.301 164.03 250.301 162.77C250.301 161.51 250.531 161.5 250.531 160.24C250.531 158.98 250.431 158.97 250.431 157.71C250.431 156.45 250.271 156.45 250.271 155.18C250.271 153.91 250.291 153.91 250.291 152.65C250.291 151.39 250.151 151.38 250.151 150.12C250.151 148.86 250.451 148.85 250.451 147.59C250.451 146.33 250.191 146.32 250.191 145.05C250.191 143.78 250.451 143.78 250.451 142.51C250.451 141.24 250.361 141.24 250.361 139.97C250.361 138.91 249.841 138.08 249.371 137.34C248.851 136.52 248.221 135.84 247.291 135.55C246.451 135.29 245.491 135.26 244.471 135.54C243.281 135.86 243.251 135.75 242.071 136.07C240.891 136.39 240.941 136.59 239.751 136.91C238.561 137.23 238.591 137.34 237.411 137.66C236.231 137.98 236.171 137.78 234.981 138.1C233.791 138.42 233.771 138.35 232.581 138.67C231.391 138.99 231.411 139.06 230.221 139.38C229.031 139.7 229.091 139.93 227.911 140.25C226.731 140.57 226.651 140.3 225.461 140.62C224.271 140.94 224.301 141.05 223.121 141.36C221.941 141.67 221.941 141.7 220.751 142.02C219.561 142.34 219.531 142.22 218.341 142.54C217.151 142.86 217.191 143.02 216.001 143.34C214.811 143.66 214.831 143.72 213.641 144.04C212.451 144.36 212.401 144.17 211.201 144.45C210.001 144.73 209.991 144.7 208.801 145.02L208.761 145.04ZM26.1309 198.2C26.1309 199.05 26.2909 199.99 26.4409 200.97C26.5809 201.86 26.5709 202.84 26.8209 203.74C27.0709 204.64 27.7309 205.44 28.0509 206.26C28.4209 207.2 28.4909 208.25 28.9309 208.94C29.2909 209.51 30.2109 209.95 30.8209 210.7C31.3309 211.33 31.9309 211.95 32.5109 212.57C33.1209 213.24 33.4109 214.19 33.9709 214.7C35.0309 215.66 36.2509 216.11 36.4209 215.67C36.5709 215.27 36.8209 214.34 37.5609 213.35C38.0409 212.72 38.5609 211.97 39.1409 211.25C39.6909 210.57 40.2409 209.85 40.8009 209.2C41.4309 208.47 42.1909 207.94 42.7109 207.38C43.5509 206.48 43.6609 206.59 44.4909 205.69C45.3209 204.79 45.2009 204.68 46.0409 203.78C46.8809 202.88 46.8209 202.84 47.6609 201.94C48.5009 201.04 48.4909 201.04 49.3309 200.14C50.1709 199.24 50.3409 199.4 51.1709 198.51C52.0009 197.62 51.7509 197.38 52.5909 196.49C53.4309 195.6 53.6209 195.77 54.4509 194.87C55.2809 193.97 55.3309 194.02 56.1709 193.12C57.0109 192.22 57.0109 192.23 57.8509 191.33C58.6909 190.43 58.6809 190.43 59.5209 189.53C60.3609 188.63 60.0809 188.38 60.9209 187.49C61.7609 186.6 62.0209 186.83 62.8509 185.94C63.6809 185.05 63.6609 185.02 64.4909 184.12C65.3209 183.22 65.3209 183.22 66.1609 182.32C67.0009 181.42 66.9409 181.37 67.7809 180.47C68.6209 179.57 68.7609 179.7 69.5909 178.81C70.4209 177.92 70.2709 177.77 71.1109 176.87C71.9509 175.97 72.1009 176.11 72.9409 175.21C73.7809 174.31 73.5609 174.11 74.4009 173.21C74.8809 172.7 75.4209 172.13 75.9209 171.45C76.3609 170.84 76.8809 170.24 77.2909 169.56C77.7009 168.88 77.8209 168.08 78.1409 167.38C78.4609 166.68 78.9909 166.01 79.2009 165.3C79.4309 164.5 79.6109 163.71 79.6109 162.99C79.6109 162.2 79.7609 161.36 79.6709 160.55C79.5809 159.74 79.3409 158.95 79.1609 158.16C78.9809 157.37 78.4509 156.69 78.1709 155.93C77.8909 155.17 77.6209 154.42 77.2309 153.72C76.8409 153.02 76.3609 152.38 75.8609 151.75C75.4209 151.19 74.9409 150.58 74.2909 150.06C73.7109 149.59 72.9609 149.32 72.2809 148.91C71.6009 148.5 70.9909 148.05 70.2909 147.72C69.5909 147.39 68.8609 147.05 68.1609 146.8C67.3709 146.52 66.6009 146.41 65.9109 146.27C64.7009 146.01 64.7109 145.98 63.5009 145.72C62.2909 145.46 62.3709 145.09 61.1609 144.83C59.9509 144.57 59.9609 144.55 58.7509 144.29C57.5409 144.03 57.5209 144.13 56.3109 143.87C55.1009 143.61 55.0609 143.78 53.8609 143.52C52.6609 143.26 52.7009 143.02 51.4909 142.76C50.2809 142.5 50.2009 142.89 48.9909 142.63C47.7809 142.37 47.8709 141.99 46.6609 141.73C45.4509 141.47 45.4409 141.53 44.2309 141.27C43.0209 141.01 42.9409 141.4 41.7309 141.14C40.5209 140.88 40.5609 140.71 39.3509 140.45C38.1409 140.19 38.2209 139.82 37.0109 139.56C35.8009 139.3 35.7009 139.75 34.4909 139.49C33.2809 139.23 33.3509 138.89 32.1409 138.63C31.3709 138.46 30.6009 138.59 29.9309 138.73C29.1909 138.88 28.5209 139.2 27.9609 139.65C27.4009 140.1 26.9209 140.67 26.6209 141.37C26.3509 142 25.9709 142.74 25.9709 143.52C25.9709 144.76 26.0709 144.76 26.0709 146C26.0709 147.24 26.2309 147.24 26.2309 148.48C26.2309 149.72 26.2109 149.72 26.2109 150.96C26.2109 152.2 26.3509 152.2 26.3509 153.44C26.3509 154.68 26.0509 154.68 26.0509 155.92C26.0509 157.16 26.3109 157.16 26.3109 158.4C26.3109 159.64 26.0509 159.64 26.0509 160.88C26.0509 162.12 26.1409 162.12 26.1409 163.37C26.1409 164.62 26.4209 164.61 26.4209 165.85C26.4209 167.09 26.2609 167.09 26.2609 168.34C26.2609 169.59 26.2609 169.58 26.2609 170.82C26.2609 172.06 26.1509 172.06 26.1509 173.31C26.1509 174.56 26.3509 174.55 26.3509 175.79C26.3509 177.03 26.4709 177.03 26.4709 178.28C26.4709 179.53 26.2609 179.52 26.2609 180.77C26.2609 182.02 26.1809 182.01 26.1809 183.25C26.1809 184.49 26.2609 184.49 26.2609 185.74C26.2609 186.99 26.5009 186.98 26.5009 188.23C26.5009 189.48 26.2209 189.47 26.2209 190.72C26.2209 191.97 26.3309 191.96 26.3309 193.21C26.3309 194.46 26.3909 194.46 26.3509 195.71C26.3109 196.96 26.1409 196.95 26.1409 198.2H26.1309ZM10.1309 133.21C8.7809 132.72 8.3209 133.1 8.2209 133.83C8.1409 134.39 8.0209 135.2 7.9909 136.14C7.9609 137.14 8.3709 136.14 8.3709 138.15C8.3709 139 7.9809 139.85 7.9909 140.68C8.0009 141.51 8.5009 142.36 8.5209 143.2C8.5409 144.04 8.6309 144.89 8.6709 145.72C8.7109 146.55 8.2909 147.44 8.3409 148.27C8.3909 149.1 8.4309 149.96 8.5009 150.79C8.5709 151.62 8.9709 152.45 9.0609 153.28C9.1509 154.11 9.3009 154.95 9.4009 155.78C9.5009 156.61 9.6709 157.45 9.7909 158.27C9.9109 159.09 9.8309 159.97 9.9709 160.8C10.1109 161.63 10.1209 162.5 10.2709 163.31C10.4209 164.12 10.7709 164.93 10.9509 165.75C11.1309 166.57 11.4009 167.38 11.6009 168.19C11.8009 169 12.0309 169.82 12.2509 170.63C12.4709 171.44 12.4909 172.32 12.7409 173.12C12.9909 173.92 13.5809 174.62 13.8509 175.41C14.1209 176.2 14.1609 177.09 14.4609 177.87C14.7609 178.65 15.0109 179.47 15.3309 180.24C15.6509 181.01 15.9809 181.8 16.3309 182.56C16.9609 183.94 18.2109 183.86 18.4009 182.23C18.4609 180.97 18.0209 180.96 18.0209 179.7C18.0209 178.44 18.3709 178.44 18.3709 177.17C18.3709 175.9 18.3309 175.91 18.3309 174.65C18.3309 173.39 18.3309 173.39 18.3309 172.12C18.3309 170.85 18.2509 170.86 18.2509 169.6C18.2509 168.34 18.4409 168.34 18.4409 167.07C18.4409 165.8 18.2309 165.81 18.2309 164.54C18.2309 163.27 18.4309 163.28 18.4309 162.01C18.4309 160.74 18.1309 160.75 18.1309 159.48C18.1309 158.21 18.1909 158.22 18.1909 156.96C18.1909 155.7 18.2909 155.7 18.2909 154.43C18.2909 153.16 18.0309 153.17 18.0309 151.9C18.0309 150.63 18.2909 150.64 18.2909 149.37C18.2909 148.1 18.3409 148.11 18.3409 146.84C18.3409 145.57 18.5309 145.57 18.5309 144.31C18.5309 143.05 18.4309 143.04 18.4309 141.78C18.4309 140.95 18.0509 140.19 17.9209 139.48C17.7709 138.63 17.6009 137.88 17.3409 137.25C16.9509 136.32 16.4609 135.75 16.0209 135.44C15.5809 135.13 14.9509 134.77 14.1709 134.5C13.5109 134.28 12.7409 134.25 12.0909 134.08C11.1609 133.83 10.4709 133.3 10.1609 133.19L10.1309 133.21ZM268.281 133.44C268.211 132.31 268.011 131.37 267.811 130.65C267.441 129.27 266.771 128.42 265.981 128.59C265.311 128.74 264.711 129.34 264.031 129.6C263.351 129.86 262.501 129.82 261.901 130.12C261.081 130.52 260.611 131.32 260.201 131.51C259.441 131.87 259.141 132.37 258.871 133.17C258.651 133.82 258.101 134.52 258.061 135.43C258.031 136.15 258.001 136.96 258.001 137.83C258.001 139.06 258.321 139.06 258.321 140.29C258.321 141.52 258.371 141.52 258.371 142.75C258.371 143.98 258.421 143.98 258.421 145.21C258.421 146.44 258.201 146.44 258.201 147.68C258.201 148.92 258.051 148.91 258.051 150.14C258.051 151.37 258.221 151.37 258.221 152.61C258.221 153.85 258.291 153.84 258.291 155.08C258.291 156.32 258.291 156.31 258.291 157.55C258.291 158.79 258.061 158.78 258.061 160.02C258.061 161.26 258.401 161.25 258.401 162.49C258.401 163.73 258.141 163.72 258.141 164.96C258.141 166.2 258.081 166.19 258.081 167.42C258.081 168.65 258.081 168.65 258.081 169.89C258.081 171.13 258.081 171.12 258.081 172.36C258.081 173.6 258.461 173.59 258.461 174.83C258.461 176.07 258.111 176.07 258.111 177.3C258.111 178.53 258.151 178.54 258.151 179.77C258.151 181 258.151 181.01 258.151 182.24C258.151 183.98 258.341 184.79 258.651 184.73C258.921 184.68 259.531 184 260.181 182.58C260.521 181.85 260.661 180.99 260.981 180.18C261.281 179.43 261.781 178.71 262.071 177.9C262.351 177.13 262.341 176.24 262.601 175.42C262.861 174.6 263.151 173.85 263.401 173.03C263.651 172.21 263.961 171.46 264.181 170.63C264.401 169.8 264.341 168.96 264.541 168.13C264.741 167.3 265.171 166.57 265.351 165.73C265.531 164.89 265.741 164.1 265.901 163.27C266.061 162.44 266.401 161.66 266.551 160.82C266.701 159.98 266.731 159.15 266.861 158.31C266.991 157.47 266.801 156.61 266.921 155.77C267.041 154.93 267.191 154.12 267.291 153.28C267.391 152.44 267.411 151.61 267.491 150.77C267.571 149.93 267.751 149.11 267.811 148.27C267.871 147.43 267.741 146.58 267.791 145.74C267.841 144.9 268.001 144.07 268.031 143.23C268.061 142.39 268.131 141.55 268.141 140.71C268.151 139.87 268.051 139.03 268.051 138.18C268.051 137.23 268.071 136.45 268.071 135.82C268.051 134.07 268.361 134.63 268.281 133.46V133.44ZM232.951 49.3001C232.421 48.7101 231.751 48.3101 231.111 48.0201C230.421 47.7101 229.661 47.3501 228.931 47.3801C228.201 47.4101 227.561 47.9801 226.891 48.3401C226.271 48.6801 225.431 48.8701 224.931 49.4801C224.431 50.0901 224.301 51.0001 223.761 51.6301C223.261 52.2201 222.761 52.8701 222.221 53.4901C221.701 54.0801 220.811 54.3601 220.261 54.9701C219.711 55.5801 219.161 56.1301 218.611 56.7201C218.061 57.3101 217.751 58.1101 217.191 58.6901C216.631 59.2701 216.121 59.8901 215.551 60.4601C214.981 61.0301 214.461 61.6401 213.891 62.2101C213.321 62.7801 212.601 63.2001 212.021 63.7601C211.441 64.3201 210.761 64.7801 210.181 65.3401C209.601 65.9001 209.131 66.5801 208.551 67.1301C207.971 67.6801 207.411 68.2901 206.831 68.8201C206.251 69.3501 205.621 69.9201 205.041 70.4401C204.411 70.9901 203.651 71.3401 203.061 71.8401C202.411 72.3801 202.011 73.1601 201.411 73.6301C200.851 74.0701 200.041 74.3501 199.341 74.8501C198.721 75.2901 198.031 75.7101 197.351 76.1701C196.671 76.6301 196.031 77.0601 195.371 77.5101C194.711 77.9601 194.021 78.4201 193.391 78.8501C192.671 79.3301 192.221 80.0901 191.631 80.5001C190.961 80.9601 190.071 81.1301 189.351 81.5901C188.671 82.0301 187.981 82.5001 187.251 82.9401C186.521 83.3801 185.841 83.7901 185.101 84.2101C184.361 84.6301 183.701 85.0901 182.951 85.4901C182.201 85.8901 181.401 86.0901 180.641 86.4701C179.881 86.8501 179.251 87.3901 178.481 87.7501C177.711 88.1101 176.891 88.2601 176.121 88.6001C175.351 88.9401 174.721 89.5301 173.931 89.8501C173.141 90.1701 172.371 90.4201 171.581 90.7201C170.791 91.0201 169.991 91.2001 169.201 91.4801C168.411 91.7601 167.711 92.2701 166.911 92.5301C166.111 92.7901 165.251 92.7801 164.441 93.0201C163.631 93.2601 162.831 93.4301 162.021 93.6501C161.211 93.8701 160.371 93.8701 159.551 94.0701C158.731 94.2701 157.951 94.5401 157.131 94.7101C156.311 94.8801 155.561 95.3401 154.731 95.4801C153.901 95.6201 153.081 95.7001 152.251 95.8201C151.421 95.9401 150.611 96.1201 149.771 96.2201C148.931 96.3201 148.101 96.3001 147.261 96.3801C146.421 96.4601 145.611 96.7101 144.771 96.7601C143.931 96.8101 143.101 96.7301 142.251 96.7601C141.401 96.7901 140.581 96.7601 139.741 96.7601C138.901 96.7601 138.081 96.8601 137.261 96.8401C136.441 96.8201 135.601 96.7501 134.781 96.7001C133.961 96.6501 133.161 96.2201 132.341 96.1501C131.521 96.0801 130.701 95.9801 129.881 95.8801C129.061 95.7801 128.231 95.7801 127.421 95.6601C126.611 95.5401 125.761 95.5901 124.951 95.4501C124.141 95.3101 123.371 94.9301 122.561 94.7701C121.751 94.6101 120.861 94.8301 120.061 94.6501C119.261 94.4701 118.541 93.9001 117.741 93.7101C116.941 93.5201 116.121 93.3701 115.331 93.1501C114.541 92.9301 113.621 93.0901 112.841 92.8601C112.061 92.6301 111.301 92.2201 110.521 91.9601C109.741 91.7001 109.071 91.0901 108.291 90.8201C107.511 90.5501 106.571 90.7001 105.801 90.4201C105.031 90.1401 104.371 89.5101 103.611 89.2101C102.851 88.9101 102.021 88.7201 101.271 88.4001C100.521 88.0801 99.7409 87.7601 99.0009 87.4201C98.2609 87.0801 97.5109 86.6901 96.7709 86.3401C96.0309 85.9901 95.3709 85.4101 94.6509 85.0501C93.9309 84.6901 93.1309 84.3801 92.4109 84.0001C91.6909 83.6201 90.8709 83.3501 90.1709 82.9501C89.4709 82.5501 88.7409 82.1001 88.0509 81.6801C87.3209 81.2401 86.5509 80.9301 85.8809 80.5001C85.2809 80.1101 84.7509 79.4101 84.0209 78.9301C83.3809 78.5101 82.5509 78.2701 81.8609 77.8201C81.1709 77.3701 80.6609 76.7101 79.9909 76.2601C79.3209 75.8101 78.5709 75.4201 77.9209 74.9901C77.1909 74.5001 76.3509 74.2901 75.7509 73.8901C75.1209 73.4801 74.5309 72.8601 73.8209 72.3301C73.2009 71.8601 72.5509 71.3401 71.8809 70.8001C71.2609 70.3001 70.7009 69.6801 70.0509 69.1301C69.4409 68.6101 68.6809 68.2201 68.0509 67.6601C67.4209 67.1001 66.7409 66.6601 66.1309 66.0901C65.5209 65.5201 65.0509 64.8201 64.4509 64.2601C63.8509 63.7001 63.2909 63.0701 62.7009 62.5101C62.1109 61.9501 61.4409 61.4201 60.8609 60.8501C60.2809 60.2801 59.4909 59.8601 58.9109 59.2901C58.3309 58.7201 57.9109 57.9101 57.3509 57.3501C56.7409 56.7401 56.0709 56.2301 55.5209 55.6701C54.9009 55.0401 54.3009 54.4701 53.7609 53.9201C53.1009 53.2501 52.6109 52.5701 52.1209 52.0601C51.0409 50.9401 51.1009 51.3101 50.2809 50.3901C49.6309 49.6001 48.9309 49.1001 48.1909 48.7301C47.3209 48.2901 46.4909 47.9501 45.5909 48.1701C44.8009 48.3701 43.9709 48.8301 43.2509 49.6201C42.4309 50.5901 42.3909 50.5601 41.5909 51.5501C40.7909 52.5401 40.7609 52.5101 39.9609 53.5001C39.1609 54.4901 39.1509 54.4801 38.3409 55.4701C37.5309 56.4601 37.8009 56.6801 37.0009 57.6701C36.2009 58.6601 35.8909 58.4101 35.0909 59.4001C34.2909 60.3901 34.5809 60.6301 33.7809 61.6201C32.9809 62.6101 32.7609 62.4401 31.9709 63.4401C31.3209 64.3401 30.7209 65.1701 30.4409 65.8701C29.8909 67.2401 30.3209 68.2201 31.3209 68.1101C31.7509 68.0601 32.5309 68.2801 33.5609 68.5101C34.2309 68.6601 34.9909 68.8301 35.7809 69.0401C36.5009 69.2401 37.3509 69.0901 38.0909 69.3201C38.8309 69.5501 39.5509 69.9001 40.2509 70.1401C41.0609 70.4101 41.7309 70.8801 42.3309 71.1301C43.4709 71.5801 43.4009 71.7601 44.5509 72.2101C45.7009 72.6601 45.7409 72.5501 46.8809 73.0001C48.0209 73.4501 47.9809 73.5701 49.1209 74.0201C50.2609 74.4701 50.3909 74.1501 51.5409 74.6101C52.6909 75.0701 52.6609 75.1201 53.8109 75.5801C54.9609 76.0401 55.0109 75.9001 56.1509 76.3501C57.2909 76.8001 57.2409 76.9301 58.3909 77.3901C59.5409 77.8501 59.4309 78.1101 60.5709 78.5701C61.7109 79.0301 61.8409 78.7101 62.9809 79.1701C64.1209 79.6301 64.0409 79.8401 65.1809 80.2901C66.3209 80.7401 66.3609 80.6601 67.5009 81.1201C68.6409 81.5801 68.7009 81.4401 69.8409 81.9001C70.9809 82.3601 70.9609 82.4101 72.1109 82.8601C73.2609 83.3101 73.1709 83.5201 74.3209 83.9701C75.4709 84.4201 75.6009 84.0801 76.7509 84.5401C77.9009 85.0001 77.7509 85.3501 78.9009 85.8001C80.0509 86.2501 80.2109 85.8401 81.3509 86.2901C82.4909 86.7401 82.4309 86.9001 83.5709 87.3601C84.7109 87.8201 84.6609 87.9601 85.8009 88.4201C86.9409 88.8801 86.9909 88.7501 88.1409 89.2001C89.2909 89.6501 89.2009 89.8701 90.3409 90.3201C91.4809 90.7701 91.6509 90.3601 92.8009 90.8101C93.9509 91.2601 93.9309 91.3101 95.0709 91.7701C96.2109 92.2301 96.2109 92.2301 97.3609 92.6901C98.5109 93.1501 98.4209 93.3501 99.5709 93.8101C100.721 94.2701 100.831 93.9701 101.981 94.4201C103.131 94.8701 103.061 95.0401 104.211 95.5001C105.361 95.9601 105.341 95.9801 106.491 96.4401C107.641 96.9001 107.531 97.1501 108.681 97.6101C109.831 98.0701 109.911 97.8701 111.051 98.3201C112.191 98.7701 112.291 98.5401 113.431 98.9901C114.571 99.4401 114.571 99.4501 115.721 99.9101C116.871 100.37 116.841 100.44 117.991 100.89C119.141 101.34 119.071 101.5 120.221 101.96C121.371 102.42 121.341 102.47 122.491 102.93C123.641 103.39 123.661 103.32 124.811 103.78C125.961 104.24 125.901 104.4 127.051 104.85C127.731 105.12 128.491 105.31 129.221 105.58C129.951 105.85 130.721 105.96 131.431 106.19C132.201 106.45 132.921 106.75 133.591 106.95C134.481 107.21 135.281 107.28 135.821 107.38C136.291 107.47 137.141 107.61 138.201 107.45C138.921 107.34 139.751 107.28 140.591 107.1C141.361 106.94 142.151 106.73 142.941 106.53C143.731 106.33 144.451 105.8 145.181 105.59C146.051 105.34 146.871 105.19 147.501 104.96C148.681 104.54 148.681 104.53 149.851 104.11C151.021 103.69 151.021 103.68 152.201 103.26C153.381 102.84 153.401 102.9 154.581 102.47C155.761 102.04 155.681 101.83 156.861 101.41C158.041 100.99 158.191 101.39 159.361 100.97C160.531 100.55 160.521 100.5 161.701 100.07C162.881 99.6401 162.791 99.4001 163.971 98.9801C165.151 98.5601 165.181 98.6401 166.361 98.2201C167.541 97.8001 167.461 97.5801 168.641 97.1601C169.821 96.7401 169.981 97.2001 171.161 96.7801C172.341 96.3601 172.261 96.1401 173.441 95.7201C174.621 95.3001 174.591 95.2201 175.771 94.8001C176.951 94.3801 176.951 94.3901 178.131 93.9701C179.311 93.5501 179.321 93.5801 180.501 93.1601C181.681 92.7401 181.621 92.5601 182.801 92.1401C183.981 91.7201 183.971 91.6801 185.151 91.2601C186.331 90.8401 186.321 90.8201 187.501 90.4001C188.681 89.9801 188.691 90.0301 189.871 89.6101C191.051 89.1901 191.091 89.3101 192.271 88.8801C193.451 88.4501 193.391 88.2901 194.571 87.8701C195.751 87.4501 195.781 87.5301 196.961 87.1101C198.141 86.6901 198.141 86.6801 199.311 86.2601C200.481 85.8401 200.611 86.1701 201.791 85.7501C202.971 85.3301 202.861 85.0201 204.041 84.5901C205.221 84.1601 205.311 84.4201 206.491 83.9901C207.671 83.5601 207.561 83.2501 208.741 82.8301C209.921 82.4101 210.041 82.7401 211.221 82.3201C212.401 81.9001 212.301 81.6201 213.481 81.1901C214.661 80.7601 214.771 81.0801 215.951 80.6601C217.131 80.2401 216.991 79.8401 218.171 79.4201C219.351 79.0001 219.391 79.1001 220.571 78.6801C221.751 78.2601 221.881 78.6201 223.061 78.2001C224.241 77.7801 224.141 77.5101 225.321 77.0901C226.501 76.6701 226.541 76.7901 227.731 76.3601C228.921 75.9301 228.791 75.5901 229.971 75.1701C231.151 74.7501 231.211 74.8901 232.391 74.4701C233.571 74.0501 233.651 74.2501 234.831 73.8301C236.011 73.4101 235.981 73.3201 237.171 72.9001C238.021 72.6001 238.821 72.0701 239.661 71.7901C240.571 71.4801 241.491 71.2801 242.271 71.0301C243.431 70.6601 244.401 70.4701 244.901 70.3601C245.611 70.2001 246.631 69.3801 246.711 68.1201C246.761 67.3301 246.291 66.4001 245.561 65.3601C244.791 64.3501 244.841 64.3101 244.041 63.3201C243.241 62.3301 243.311 62.2801 242.511 61.2901C241.711 60.3001 241.761 60.2601 240.971 59.2701C240.181 58.2801 239.991 58.4301 239.201 57.4301C238.411 56.4301 238.381 56.4601 237.581 55.4701C236.781 54.4801 237.071 54.2501 236.271 53.2601C235.471 52.2701 235.071 52.5801 234.311 51.5601C233.551 50.5401 233.781 50.3601 232.971 49.3801L232.951 49.3001ZM62.3109 44.0501C61.3809 44.0501 60.5609 44.2701 59.9409 44.5401C59.0709 44.9201 58.3109 45.5701 58.3009 46.3501C58.3009 46.9701 58.9509 47.6101 59.6509 48.3901C60.5309 49.3101 60.0609 49.3401 61.2009 50.4401C61.7309 50.9401 62.6709 51.1901 63.3709 51.8501C63.9409 52.3901 64.6009 52.9401 65.2609 53.5601C65.8509 54.1201 66.1609 55.0401 66.8009 55.6401C67.4109 56.2001 68.0109 56.8001 68.6509 57.3901C69.2909 57.9801 70.1209 58.3001 70.7509 58.8701C71.3809 59.4401 72.0509 59.9701 72.6909 60.5301C73.3309 61.0901 74.0109 61.6301 74.6409 62.1801C75.2709 62.7301 75.8109 63.4701 76.4409 64.0001C77.1209 64.5701 77.6909 65.2301 78.3209 65.7401C79.0409 66.3101 79.8209 66.7001 80.4409 67.1601C81.0109 67.5801 81.7209 67.9701 82.4409 68.4401C83.0809 68.8601 83.7609 69.2701 84.4609 69.7001C85.1609 70.1301 85.7009 70.7301 86.3809 71.1301C87.0609 71.5301 87.9509 71.6601 88.6109 72.0401C89.3509 72.4701 89.9209 73.1001 90.5309 73.4601C91.2209 73.8701 91.9109 74.3301 92.6509 74.7501C93.3909 75.1701 94.0809 75.5601 94.8209 75.9601C95.5609 76.3601 96.2709 76.7301 97.0209 77.1201C97.7709 77.5101 98.6509 77.5301 99.4009 77.9101C100.151 78.2901 100.721 78.9501 101.481 79.3101C102.241 79.6701 102.991 79.9701 103.751 80.3101C104.511 80.6501 105.261 80.9701 106.031 81.2901C106.801 81.6101 107.581 81.8501 108.361 82.1501C109.141 82.4501 109.831 82.9301 110.611 83.2201C111.391 83.5101 112.231 83.5901 113.021 83.8601C113.811 84.1301 114.521 84.5801 115.311 84.8301C116.101 85.0801 116.971 85.0301 117.771 85.2601C118.571 85.4901 119.341 85.7601 120.151 85.9701C120.961 86.1801 121.731 86.4701 122.541 86.6601C123.351 86.8501 124.201 86.7601 125.021 86.9201C125.841 87.0801 126.591 87.4801 127.411 87.6201C128.231 87.7601 129.031 87.9301 129.861 88.0401C130.691 88.1501 131.481 88.4401 132.311 88.5301C133.141 88.6201 133.971 88.5901 134.801 88.6501C135.631 88.7101 136.471 88.4501 137.301 88.4801C138.131 88.5101 138.951 88.5801 139.781 88.5801C140.611 88.5801 141.451 88.5001 142.281 88.4701C143.111 88.4401 143.961 88.5001 144.791 88.4401C145.621 88.3801 146.441 88.1201 147.271 88.0301C148.101 87.9401 148.951 87.9601 149.771 87.8501C150.591 87.7401 151.431 87.6501 152.251 87.5101C153.071 87.3701 153.881 87.1001 154.691 86.9301C155.501 86.7601 156.331 86.6101 157.141 86.4201C157.951 86.2301 158.861 86.3801 159.661 86.1701C160.461 85.9601 161.291 85.7401 162.081 85.5001C162.871 85.2601 163.661 84.9101 164.451 84.6501C165.241 84.3901 165.981 83.9401 166.761 83.6601C167.541 83.3801 168.421 83.3001 169.191 83.0001C169.961 82.7001 170.601 82.0101 171.361 81.6901C172.121 81.3701 173.061 81.3801 173.811 81.0401C174.561 80.7001 175.321 80.2801 176.061 79.9201C176.801 79.5601 177.391 78.8201 178.131 78.4401C178.871 78.0601 179.701 77.8201 180.421 77.4301C181.141 77.0401 182.081 76.9501 182.791 76.5401C183.501 76.1301 184.021 75.3001 184.721 74.8801C185.461 74.4401 186.351 74.3001 187.031 73.8701C187.631 73.4901 188.241 72.9401 188.971 72.4701C189.611 72.0601 190.281 71.6101 190.961 71.1501C191.641 70.6901 192.311 70.3001 192.971 69.8501C193.631 69.4001 194.441 69.1101 195.061 68.6601C195.761 68.1501 196.351 67.5801 196.911 67.1301C197.511 66.6501 198.031 66.0101 198.661 65.4801C199.261 64.9801 199.891 64.4801 200.511 63.9501C201.131 63.4201 201.621 62.8001 202.231 62.2701C202.841 61.7401 203.621 61.4301 204.221 60.8901C204.821 60.3501 205.231 59.6201 205.821 59.0701C206.411 58.5201 207.181 58.1601 207.751 57.6101C208.321 57.0601 208.851 56.4301 209.421 55.8701C209.991 55.3101 210.371 54.5301 210.921 53.9701C211.471 53.4101 212.171 52.9201 212.701 52.3501C213.271 51.7401 213.811 51.1601 214.321 50.5801C214.881 49.9501 215.481 49.4001 215.951 48.8201C216.561 48.0601 216.731 47.2701 216.841 46.6501C216.991 45.7801 216.661 45.2801 215.921 44.8501C215.381 44.5301 214.721 44.1801 213.741 44.1801C212.521 44.1801 212.521 44.1001 211.301 44.1001C210.081 44.1001 210.081 44.1801 208.861 44.1801C207.641 44.1801 207.641 44.4201 206.421 44.4201C205.201 44.4201 205.201 44.1401 203.981 44.1401C202.761 44.1401 202.761 44.2501 201.541 44.2501C200.321 44.2501 200.321 44.2701 199.101 44.2701C197.881 44.2701 197.881 44.1401 196.661 44.1401C195.441 44.1401 195.441 44.3101 194.221 44.3101C193.001 44.3101 193.001 44.3701 191.781 44.3701C190.561 44.3701 190.561 44.1301 189.341 44.1301C188.121 44.1301 188.121 44.0801 186.901 44.0801C185.681 44.0801 185.681 44.0101 184.461 44.0101C183.241 44.0101 183.241 43.9701 182.021 43.9701C180.801 43.9701 180.801 43.9601 179.571 43.9601C178.341 43.9601 178.351 44.3001 177.121 44.3001C176.211 44.3001 175.371 43.9201 174.671 44.0501C173.851 44.2001 173.311 44.8501 172.741 45.5101C172.321 46.0001 171.741 46.5601 171.421 47.5101C171.211 48.1601 170.901 48.9201 170.731 49.8401C170.591 50.6101 170.631 51.4401 170.431 52.2501C170.231 53.0601 169.931 53.7701 169.691 54.5601C169.451 55.3501 169.241 56.0901 168.971 56.8701C168.701 57.6501 168.781 58.5201 168.481 59.2801C168.181 60.0401 167.771 60.7401 167.441 61.4901C167.111 62.2401 166.581 62.8701 166.231 63.6101C165.881 64.3501 165.351 64.9701 164.961 65.6801C164.571 66.3901 164.301 67.1501 163.891 67.8501C163.481 68.5501 162.961 69.1701 162.521 69.8501C162.081 70.5301 161.921 71.4001 161.461 72.0601C161.001 72.7201 160.461 73.3401 159.971 73.9801C159.481 74.6201 159.071 75.3501 158.551 75.9601C158.031 76.5701 157.371 77.0901 156.821 77.6801C156.271 78.2701 155.481 78.6301 154.901 79.1801C154.321 79.7301 153.921 80.5201 153.301 81.0301C152.681 81.5401 151.891 81.8501 151.231 82.3101C150.571 82.7701 149.941 83.2901 149.251 83.7001C148.561 84.1101 147.901 84.6201 147.171 84.9601C146.441 85.3001 145.661 85.5701 144.901 85.8401C144.141 86.1101 143.311 86.1301 142.521 86.3201C141.731 86.5101 141.011 87.0101 140.201 87.1101C139.391 87.2101 138.581 86.8801 137.761 86.8801C136.901 86.8801 136.031 87.2801 135.201 87.2001C134.371 87.1201 133.521 86.8201 132.701 86.6501C131.881 86.4801 131.091 86.1101 130.291 85.8601C129.491 85.6101 128.651 85.4301 127.871 85.1001C127.091 84.7701 126.451 84.1801 125.711 83.7701C124.971 83.3601 124.021 83.3001 123.311 82.8201C122.601 82.3401 121.961 81.7801 121.301 81.2401C120.641 80.7001 120.011 80.1301 119.401 79.5401C118.791 78.9501 118.361 78.1901 117.791 77.5601C117.221 76.9301 116.431 76.4901 115.901 75.8201C115.371 75.1501 115.011 74.3701 114.521 73.6701C114.031 72.9701 113.591 72.2601 113.141 71.5401C112.691 70.8201 112.501 69.9601 112.081 69.2201C111.661 68.4801 111.081 67.8501 110.701 67.0801C110.321 66.3101 109.721 65.6701 109.371 64.9001C109.021 64.1301 108.691 63.3501 108.361 62.5601C108.031 61.7701 107.801 60.9601 107.511 60.1601C107.221 59.3601 107.101 58.5101 106.831 57.7001C106.561 56.8901 106.371 56.0701 106.131 55.2601C105.891 54.4501 105.601 53.6501 105.381 52.8301C105.161 52.0101 105.131 51.1501 104.931 50.3201C104.731 49.4901 104.391 48.7501 104.051 48.0501C103.691 47.3001 103.131 46.7001 102.611 46.1301C102.061 45.5201 101.471 44.9801 100.751 44.6501C100.031 44.3201 99.2609 44.2901 98.4109 44.2901C97.2109 44.2901 97.2109 44.0901 96.0109 44.0901C94.8109 44.0901 94.8109 44.0001 93.6109 44.0001C92.4109 44.0001 92.4109 44.0201 91.2109 44.0201C90.0109 44.0201 90.0109 44.3401 88.8109 44.3401C87.6109 44.3401 87.6109 44.2301 86.4109 44.2301C85.2109 44.2301 85.2109 44.2301 84.0109 44.2301C82.8109 44.2301 82.8109 44.2301 81.6109 44.2301C80.4109 44.2301 80.4109 44.1701 79.2009 44.1701C77.9909 44.1701 78.0009 44.4001 76.8009 44.4001C75.6009 44.4001 75.6009 43.9701 74.4009 43.9701C73.2009 43.9701 73.2009 44.0201 71.9909 44.0201C70.7809 44.0201 70.7909 44.2801 69.5809 44.2801C68.3709 44.2801 68.3809 44.1901 67.1709 44.1901C65.9609 44.1901 65.9609 44.4501 64.7509 44.4201C63.5409 44.3901 63.5509 44.0501 62.3509 44.0501H62.3109ZM26.1309 51.5201C26.1309 52.4001 26.3309 53.1101 26.5409 53.6101C26.9009 54.4401 27.6409 54.9501 28.3509 54.6301C28.8209 54.4201 29.1309 53.6401 29.6509 52.8701C30.0609 52.2601 30.8709 51.8401 31.3709 51.1801C31.8709 50.5201 31.9509 49.6101 32.3909 48.9801C32.8909 48.2601 33.2609 47.5801 33.5609 46.9501C34.0009 46.0101 34.5409 45.1901 34.1109 44.6701C33.7709 44.2601 32.9109 43.9101 31.7309 43.9101C30.8409 43.9101 30.0009 44.1601 29.2509 44.2401C28.4009 44.3301 27.7709 44.6001 27.2509 45.4001C26.9009 45.9301 26.7109 46.6301 26.5609 47.7001C26.4609 48.3901 26.2009 49.1801 26.2009 50.1601C26.1609 50.8401 26.1409 50.8401 26.1409 51.5301L26.1309 51.5201ZM244.761 44.0501C243.631 44.0501 242.811 44.2301 242.271 44.4301C241.221 44.8101 240.931 45.6701 241.391 46.5801C241.691 47.1801 242.551 47.6801 243.181 48.4101C243.691 49.0101 243.981 49.9101 244.571 50.5201C245.161 51.1301 246.121 51.3701 246.721 51.8701C247.471 52.5001 248.151 52.9201 248.751 53.1801C249.701 53.5901 250.461 53.6301 250.461 52.3701C250.461 51.2601 250.491 51.2601 250.491 50.1501C250.491 49.3301 250.101 48.5701 249.921 47.8501C249.721 47.0601 249.381 46.4101 248.891 45.8301C248.401 45.2501 247.831 44.9201 247.011 44.6401C246.371 44.4201 245.661 44.0401 244.761 44.0401V44.0501ZM138.241 8.05007C137.421 8.05007 136.601 8.13007 135.781 8.14007C134.961 8.15007 134.131 7.96007 133.321 7.99007C132.511 8.02007 131.701 8.44007 130.881 8.49007C130.061 8.54007 129.221 8.19007 128.401 8.26007C127.581 8.33007 126.811 8.86007 125.991 8.94007C125.171 9.02007 124.371 9.15007 123.561 9.24007C122.751 9.33007 121.881 8.96007 121.071 9.07007C120.261 9.18007 119.441 9.26007 118.631 9.38007C117.821 9.50007 117.061 9.95007 116.251 10.0801C115.441 10.2101 114.651 10.4101 113.841 10.5601C113.031 10.7101 112.241 10.9101 111.441 11.0801C110.641 11.2501 109.791 11.2101 108.991 11.3801C108.191 11.5501 107.351 11.6001 106.561 11.7901C105.771 11.9801 105.011 12.3501 104.221 12.5601C103.431 12.7701 102.651 13.0601 101.871 13.2801C101.091 13.5001 100.301 13.7401 99.5209 13.9801C98.7409 14.2201 97.8809 14.2401 97.1009 14.4901C96.3209 14.7401 95.6509 15.3301 94.8809 15.5901C94.1109 15.8501 93.2509 15.8901 92.4809 16.1701C91.7109 16.4501 90.9209 16.6901 90.1609 16.9801C89.4009 17.2701 88.6309 17.5801 87.8809 17.8901C87.1309 18.2001 86.3609 18.5301 85.6209 18.8601C84.8809 19.1901 84.2709 19.8701 83.5409 20.2101C82.8109 20.5501 81.9009 20.5901 81.1709 20.9501C80.4409 21.3101 79.7109 21.7201 79.0009 22.1001C78.2909 22.4801 77.5509 22.8801 76.8409 23.2701C76.1309 23.6601 75.4509 24.1501 74.7509 24.5601C74.0509 24.9701 73.2409 25.2501 72.5509 25.6801C71.8609 26.1101 71.2809 26.7501 70.6109 27.2001C69.9409 27.6501 69.1309 27.9601 68.4809 28.4401C67.8309 28.9201 67.3309 29.6501 66.6909 30.1501C66.0509 30.6501 65.3709 31.1301 64.7509 31.6401C64.1309 32.1501 63.4309 32.6401 62.8409 33.1801C62.0309 33.9201 61.8109 34.6401 61.8509 35.1701C61.8909 35.7001 62.2709 36.1401 63.6209 36.1601C64.8609 36.1601 64.8609 36.2101 66.1009 36.2101C67.3409 36.2101 67.3409 36.4001 68.5809 36.4001C69.8209 36.4001 69.8209 36.3001 71.0709 36.3001C72.3209 36.3001 72.3109 35.9901 73.5609 35.9901C74.8109 35.9901 74.8009 36.0501 76.0409 36.0501C77.2809 36.0501 77.2809 35.9801 78.5209 35.9801C79.7609 35.9801 79.7609 36.0801 81.0009 36.0801C82.2409 36.0801 82.2409 35.8901 83.4809 35.8901C84.7209 35.8901 84.7209 36.0101 85.9609 36.0101C87.2009 36.0101 87.2009 36.0501 88.4409 36.0501C89.6809 36.0501 89.6809 35.9301 90.9209 35.9301C92.1609 35.9301 92.1609 35.9601 93.4109 35.9601C94.6609 35.9601 94.6509 36.3301 95.9009 36.3301C97.1509 36.3301 97.1409 36.3501 98.3909 36.3501C99.6409 36.3501 99.6309 36.2501 100.871 36.2501C102.111 36.2501 102.111 36.0701 103.351 36.0701C104.591 36.0701 104.591 36.3101 105.831 36.3101C107.071 36.3101 107.071 35.9101 108.311 35.9101C109.551 35.9101 109.551 36.3001 110.801 36.3001C112.051 36.3001 112.041 36.2401 113.291 36.2401C114.541 36.2401 114.531 35.8401 115.781 35.8401C117.031 35.8401 117.021 36.0101 118.271 36.0101C119.521 36.0101 119.511 36.3801 120.751 36.3801C121.991 36.3801 121.991 35.9201 123.231 35.9201C124.471 35.9201 124.471 36.2701 125.721 36.2701C126.971 36.2701 126.961 36.1301 128.211 36.1301C129.461 36.1301 129.451 36.1201 130.701 36.1201C131.951 36.1201 131.941 36.1601 133.191 36.1601C134.441 36.1601 134.431 36.3901 135.681 36.3901C136.931 36.3901 136.921 36.2901 138.171 36.2901C139.421 36.2901 139.411 36.1301 140.661 36.1301C141.911 36.1301 141.901 36.1501 143.151 36.1501C144.401 36.1501 144.391 36.0101 145.641 36.0101C146.891 36.0101 146.881 36.3101 148.131 36.3101C149.381 36.3101 149.371 36.0501 150.621 36.0501C151.871 36.0501 151.861 36.3101 153.111 36.3101C154.361 36.3101 154.351 36.2201 155.601 36.2201C156.851 36.2201 156.841 35.9401 158.091 35.9401C159.341 35.9401 159.331 36.1001 160.571 36.1001C161.811 36.1001 161.811 36.1001 163.051 36.1001C164.291 36.1001 164.291 36.2101 165.531 36.2101C166.771 36.2101 166.771 36.0101 168.021 36.0101C169.271 36.0101 169.261 35.8901 170.511 35.8901C171.761 35.8901 171.751 36.1001 172.991 36.1001C174.231 36.1001 174.231 36.1801 175.481 36.1801C176.731 36.1801 176.721 36.1001 177.971 36.1001C179.221 36.1001 179.211 35.8601 180.461 35.8601C181.711 35.8601 181.701 36.1401 182.951 36.1401C184.201 36.1401 184.191 36.0301 185.441 36.0301C186.691 36.0301 186.691 36.0101 187.931 36.0101C189.171 36.0101 189.171 36.1401 190.421 36.1401C191.671 36.1401 191.671 35.9701 192.911 35.9701C194.151 35.9701 194.161 35.9101 195.401 35.9101C196.641 35.9101 196.641 36.1501 197.891 36.1501C199.141 36.1501 199.131 36.2001 200.381 36.2001C201.631 36.2001 201.631 36.2701 202.871 36.2701C204.111 36.2701 204.121 36.3101 205.361 36.3101C206.601 36.3101 206.611 36.3201 207.851 36.3201C209.091 36.3201 209.101 35.9801 210.351 35.9801C211.601 35.9801 211.601 36.3701 212.851 36.3701C214.521 36.3701 215.191 35.8001 215.251 35.2801C215.311 34.7601 214.871 33.9601 213.691 33.0801C213.041 32.6001 212.451 32.0301 211.781 31.5501C211.111 31.0701 210.321 30.8001 209.641 30.3401C208.961 29.8801 208.351 29.3501 207.661 28.9001C206.971 28.4501 206.281 28.0401 205.581 27.6001C204.881 27.1601 204.001 27.0701 203.301 26.6501C202.601 26.2301 201.961 25.7301 201.251 25.3201C200.541 24.9101 199.941 24.3401 199.221 23.9401C198.501 23.5401 197.881 23.0001 197.151 22.6201C196.421 22.2401 195.651 21.9801 194.911 21.6201C194.171 21.2601 193.501 20.7901 192.761 20.4401C192.021 20.0901 191.141 20.0601 190.391 19.7201C189.641 19.3801 188.931 19.0001 188.181 18.6701C187.431 18.3401 186.631 18.1701 185.871 17.8601C185.111 17.5501 184.411 17.1201 183.651 16.8201C182.891 16.5201 182.231 15.9701 181.461 15.6801C180.691 15.3901 179.811 15.4401 179.041 15.1701C178.271 14.9001 177.571 14.4201 176.791 14.1701C176.011 13.9201 175.211 13.7501 174.431 13.5201C173.651 13.2901 172.831 13.1901 172.041 12.9601C171.251 12.7301 170.491 12.4701 169.701 12.2601C168.911 12.0501 168.181 11.6401 167.381 11.4401C166.581 11.2401 165.711 11.4201 164.911 11.2401C164.111 11.0601 163.401 10.5201 162.601 10.3601C161.801 10.2001 160.921 10.4801 160.111 10.3301C159.301 10.1801 158.541 9.87007 157.731 9.74007C156.921 9.61007 156.141 9.33007 155.331 9.21007C154.521 9.09007 153.701 9.12007 152.891 9.02007C152.081 8.92007 151.301 8.60007 150.481 8.51007C149.661 8.42007 148.821 8.80007 148.001 8.73007C147.181 8.66007 146.381 8.55007 145.571 8.50007C144.761 8.45007 143.951 8.40007 143.131 8.36007C142.311 8.32007 141.511 8.07007 140.691 8.06007C139.871 8.05007 139.061 7.98007 138.241 7.98007V8.05007Z" fill="black"/>
</svg>
