<?xml version="1.0" encoding="UTF-8"?>
<svg id="Layer_2" data-name="Layer 2" xmlns="http://www.w3.org/2000/svg" viewBox="0 0 293.76 397.43">
  <defs>
    <style>
      .cls-1 {
        fill: #fff;
      }
    </style>
  </defs>
  <g id="Layer_1-2" data-name="Layer 1">
    <g>
      <polygon class="cls-1" points="276.48 172.8 276.48 293.75 259.2 293.75 259.2 345.59 241.92 345.59 241.92 380.15 103.68 380.15 103.68 345.59 86.4 345.59 86.4 311.03 69.12 311.03 69.12 276.47 51.84 276.47 51.84 241.91 34.56 241.91 34.56 224.63 17.28 224.63 17.28 190.07 51.84 190.07 51.84 207.35 69.12 207.35 69.12 259.19 86.4 259.19 86.4 34.56 120.96 34.56 120.96 190.07 138.24 190.07 138.24 17.28 172.8 17.28 172.8 190.07 190.08 190.07 190.08 138.24 224.64 138.24 224.64 207.35 241.92 207.35 241.92 155.52 259.2 155.52 259.2 172.8 276.48 172.8"/>
      <rect x="276.48" y="276.47" width="17.28" height="17.28"/>
      <rect x="276.48" y="259.19" width="17.28" height="17.28"/>
      <rect x="276.48" y="241.91" width="17.28" height="17.28"/>
      <rect x="276.48" y="224.63" width="17.28" height="17.28"/>
      <rect x="276.48" y="207.35" width="17.28" height="17.28"/>
      <rect x="276.48" y="190.07" width="17.28" height="17.28"/>
      <rect x="276.48" y="172.8" width="17.28" height="17.27"/>
      <rect x="259.2" y="328.31" width="17.28" height="17.28"/>
      <rect x="259.2" y="311.03" width="17.28" height="17.28"/>
      <rect x="259.2" y="293.75" width="17.28" height="17.28"/>
      <rect x="259.2" y="155.52" width="17.28" height="17.28"/>
      <rect x="241.92" y="380.15" width="17.28" height="17.28"/>
      <rect x="241.92" y="362.87" width="17.28" height="17.28"/>
      <rect x="241.92" y="345.59" width="17.28" height="17.28"/>
      <rect x="241.92" y="138.24" width="17.28" height="17.28"/>
      <rect x="224.64" y="380.15" width="17.28" height="17.28"/>
      <rect x="224.64" y="190.07" width="17.28" height="17.28"/>
      <rect x="224.64" y="172.8" width="17.28" height="17.27"/>
      <rect x="224.64" y="155.52" width="17.28" height="17.28"/>
      <rect x="224.64" y="138.24" width="17.28" height="17.28"/>
      <rect x="207.36" y="380.15" width="17.28" height="17.28"/>
      <rect x="207.36" y="120.96" width="17.28" height="17.28"/>
      <rect x="190.08" y="380.15" width="17.28" height="17.28"/>
      <rect x="190.08" y="120.96" width="17.28" height="17.28"/>
      <rect x="172.8" y="380.15" width="17.28" height="17.28"/>
      <rect x="172.8" y="172.8" width="17.28" height="17.27"/>
      <rect x="172.8" y="155.52" width="17.28" height="17.28"/>
      <rect x="172.8" y="138.24" width="17.28" height="17.28"/>
      <rect x="172.8" y="120.96" width="17.28" height="17.28"/>
      <rect x="172.8" y="103.68" width="17.28" height="17.28"/>
      <rect x="172.8" y="86.4" width="17.28" height="17.28"/>
      <rect x="172.8" y="69.12" width="17.28" height="17.28"/>
      <rect x="172.8" y="51.84" width="17.28" height="17.28"/>
      <rect x="172.8" y="34.56" width="17.28" height="17.28"/>
      <rect x="172.8" y="17.28" width="17.28" height="17.28"/>
      <rect x="155.52" y="380.15" width="17.28" height="17.28"/>
      <rect x="155.52" width="17.28" height="17.28"/>
      <rect x="138.24" y="380.15" width="17.28" height="17.28"/>
      <rect x="138.24" width="17.28" height="17.28"/>
      <rect x="120.96" y="380.15" width="17.28" height="17.28"/>
      <rect x="120.96" y="172.8" width="17.28" height="17.27"/>
      <rect x="120.96" y="155.52" width="17.28" height="17.28"/>
      <rect x="120.96" y="138.24" width="17.28" height="17.28"/>
      <rect x="120.96" y="120.96" width="17.28" height="17.28"/>
      <rect x="120.96" y="103.68" width="17.28" height="17.28"/>
      <rect x="120.96" y="86.4" width="17.28" height="17.28"/>
      <rect x="120.96" y="69.12" width="17.28" height="17.28"/>
      <rect x="120.96" y="51.84" width="17.28" height="17.28"/>
      <rect x="120.96" y="34.56" width="17.28" height="17.28"/>
      <rect x="120.96" y="17.28" width="17.28" height="17.28"/>
      <rect x="103.68" y="380.15" width="17.28" height="17.28"/>
      <rect x="103.68" y="17.28" width="17.28" height="17.28"/>
      <rect x="86.4" y="380.15" width="17.28" height="17.28"/>
      <rect x="86.4" y="362.87" width="17.28" height="17.28"/>
      <rect x="86.4" y="345.59" width="17.28" height="17.28"/>
      <rect x="86.4" y="17.28" width="17.28" height="17.28"/>
      <rect x="69.12" y="328.31" width="17.28" height="17.28"/>
      <rect x="69.12" y="311.03" width="17.28" height="17.28"/>
      <rect x="69.12" y="241.91" width="17.28" height="17.28"/>
      <rect x="69.12" y="224.63" width="17.28" height="17.28"/>
      <rect x="69.12" y="207.35" width="17.28" height="17.28"/>
      <rect x="69.12" y="190.07" width="17.28" height="17.28"/>
      <rect x="69.12" y="172.8" width="17.28" height="17.27"/>
      <rect x="69.12" y="155.52" width="17.28" height="17.28"/>
      <rect x="69.12" y="138.24" width="17.28" height="17.28"/>
      <rect x="69.12" y="120.96" width="17.28" height="17.28"/>
      <rect x="69.12" y="103.68" width="17.28" height="17.28"/>
      <rect x="69.12" y="86.4" width="17.28" height="17.28"/>
      <rect x="69.12" y="69.12" width="17.28" height="17.28"/>
      <rect x="69.12" y="51.84" width="17.28" height="17.28"/>
      <rect x="69.12" y="34.56" width="17.28" height="17.28"/>
      <rect x="51.84" y="293.75" width="17.28" height="17.28"/>
      <rect x="51.84" y="276.47" width="17.28" height="17.28"/>
      <rect x="51.84" y="190.07" width="17.28" height="17.28"/>
      <rect x="34.56" y="259.19" width="17.28" height="17.28"/>
      <rect x="34.56" y="241.91" width="17.28" height="17.28"/>
      <rect x="34.56" y="172.8" width="17.28" height="17.27"/>
      <rect x="17.28" y="224.63" width="17.28" height="17.28"/>
      <rect x="17.28" y="172.8" width="17.28" height="17.27"/>
      <rect y="207.35" width="17.28" height="17.28"/>
      <rect y="190.07" width="17.28" height="17.28"/>
      <rect x="0" y="172.8" width="17.28" height="17.27"/>
    </g>
  </g>
</svg>