<?xml version="1.0" encoding="UTF-8"?>
<svg id="Layer_2" data-name="Layer 2" xmlns="http://www.w3.org/2000/svg" viewBox="0 0 281 145">
  <defs>
    <style>
      .cls-1 {
        fill: #fff;
      }
    </style>
  </defs>
  <g id="Layer_1-2" data-name="Layer 1">
    <g>
      <path d="M275.73,50.92l.24-.28-2.19-1.48-3.07-2.07-2.93-2.22-2.71-2.5-2.91-2.26-2.79-2.46-3.27-1.75-3-2.14-3.09-2.04-3.39-1.51-3.05-2.11-3.39-1.51-3.12-1.98-3.35-1.56-3.33-1.6-3.36-1.51-3.15-1.99-3.62-.95-3.42-1.39-3.44-1.35-3.43-1.36-3.37-1.59-3.67-.69-3.43-1.44-3.54-1.05-3.58-.88-3.65-.69-3.55-1.09-3.54-1.12-3.65-.68-3.64-.6-3.73-.13-3.65-.59-3.57-1.18-3.69-.34-3.76.37-3.64-.85-3.73.39-3.67-.44-3.7.06-.24.03-3.71-.39-3.71.06-3.66.84-3.75-.48-3.7.3-3.61.99-3.67.57-3.75-.11-3.54,1.26-3.73.24-3.61.78-3.71.41-3.5,1.3-3.62.78-3.54,1.07-3.53,1.14-3.47,1.31-3.75.46-3.24,1.92-3.48,1.23-3.54,1.07-3.49,1.25-3.33,1.6-3.57,1.09-3.12,2.07-3.39,1.47-3.11,2.03-3.6,1.13-2.91,2.35-3.1,2.01-3.49,1.39-3.1,2-2.9,2.33-3.22,1.82-3.03,2.13-2.96,2.23-2.62,2.64-2.97,2.2-2.76,2.46-2.82,2.17-.37.07c-1.83,2.06-3.7,5.13-4.66,6.08-.74.74-2.2,5.78,5.54,15.85l2.45,1.93,2.77,2.5,2.47,2.79,2.66,2.62,2.75,2.51,2.36,2.91,2.94,2.33,2.77,2.49,2.64,2.62,2.53,2.74,2.89,2.35,3.02,2.2,2.76,2.51,2.92,2.29,2.91,2.33,3.27,1.65,3.12,1.9,2.82,2.34,3.26,1.66,2.8,2.35,3.27,1.77,3.2,1.9,3.38,1.57,3.37,1.58,3.2,1.93,3.36,1.62,3.42,1.46,3.53,1.22,3.3,1.81,3.75.6,3.37,1.71,3.49,1.34,3.76.44,3.63.84,3.5,1.4,3.77.18,3.6,1.02,3.72.32,3.71.33,3.71.4,3.68.82,3.74.21,3.73-.12h7.59l3.75-.57,3.78-.24,3.74-.59,3.74-.51,3.62-1.16,3.65-.96,3.72-.62,3.65-.95,3.72-.73,3.45-1.57,3.59-1.14,3.54-1.31,3.3-1.87,3.56-1.27,3.26-1.92,3.48-1.47,3.24-1.91,3.24-1.9,3.17-2.03,3.44-1.63,2.65-2.47,2.98-2.01,2.99-2,3-1.98,3.12-1.83,2.48-2.68,2.99-2.09,2.7-2.43,2.59-2.53,2.46-2.68,2.77-2.37,2.82-2.32,2.5-2.62,2.47-2.65,2.15-2.95,2.48-2.62,2.96-2.22,2.32-2.78,1.76-3.22,2.43-1.41-.09-.03c1.76-1.5,6.78-6.44,6.78-8.24v-8.24c-.6-1.19-3.26-4.49-5.27-5.24ZM27.54,49.66l2.88-2.3,2.92-2.23,2.7-2.56,3.21-1.86,2.93-2.28,3.32-1.68,3.15-1.93,3.25-1.75,3.27-1.72,3.57-1.11,3.14-2.02,3.41-1.45,3.43-1.37,3.5-1.21,3.62-.87,3.35-1.65,3.64-.76,3.55-1.05,3.54-1.08,3.53-1.15,3.66-.61,3.69-.45,3.62-.78,3.63-.72,3.59-1.05,3.68-.46,3.75.25,3.67-.45,3.63-1.02,3.74.35,3.68-.75,3.7.22,3.71-.13v-.09l3.7.12,3.67.45,3.68.21,3.67.34,3.73-.33,3.64.77,3.67.28,3.62.8,3.59.88,3.75.04,3.49,1.32,3.72.3,3.5,1.23,3.52,1.05,3.61.84,3.55.97,3.4,1.5,3.64.76,3.31,1.71,3.34,1.55,3.48,1.22,3.34,1.57,3.57,1.08,3.24,1.77,3.38,1.49,3.12,1.98,3.06,2.07,3.09,1.99,3.43,1.42,3.14,1.95,2.98,2.16,3.23,1.81,2.88,2.29,2.35,3.29-3.62,1.64-3.77-.59-3.76.5h-3.76l-3.75-.06-3.75-.11-3.76-.07-3.75-.36-3.76.09-3.75.25-3.75-.19-3.76.03-3.75.16-3.75-.42-3.76.36-3.75.12-3.75-.12-3.74-.31-3.76.18-3.75.3-3.74-.18h-3.74l-3.73-.24-3.76.42-3.75.13-3.76-.39-3.75.39-3.75-.45-3.76.21-3.75-.03-3.75.24-3.76.15-3.75-.34-3.75-.05h-3.76l-3.75.21-3.75-.52-3.74.69-3.74-.56-3.76-.25-3.75.6-3.75.09-3.76-.59-3.73.6-3.74-.36-3.74.27-3.74.15-3.75-.03-3.76-.55-3.75-.05-3.74.18-3.74-.06-3.74-.18-3.73.29-3.74-.15-3.74.1-3.74-.09-3.75.47-3.76.15-3.73-.29-3.74-.07-2.67-1.49,1.49-2.98ZM258.35,73.09l-2.46,2.63-2.44,2.65-2.69,2.43-2.26,2.84-2.51,2.61-2.92,2.19-2.41,2.72-3,2.07-2.59,2.52-2.79,2.29-2.64,2.47-2.78,2.29-3.16,1.78-3.02,1.95-3,1.98-2.93,2.09-3.48,1.52-2.91,2.48-3.57,1.33-3.46,1.52-3.12,2.21-3.39,1.68-3.69.97-3.27,1.97-3.67.98-3.48,1.49-3.57,1.27-3.65,1-3.8.38-3.69.76-3.68.87-3.74.51-3.77.27-3.73.61-3.79.05-3.77.16-3.73-.15-3.77.26-3.76-.18-3.69-.74-3.69-.63-3.61-1.04-3.74-.39-3.6-1.04-3.59-1.06-3.7-.64-3.46-1.46-3.63-.95-3.39-1.61-3.51-1.29-3.44-1.46-3.42-1.5-3.14-2.1-3.58-1.18-3.32-1.74-3.27-1.81-3.2-1.93-2.89-2.13-3.36-1.36-2.9-2.14-3.04-1.89-3.02-1.92-3.19-2.12-2.84-2.61-2.71-2.72-2.94-2.48-2.92-2.48-3.17-2.22-2.79-2.62-2.32-3.11-2.85-2.57-3.27-2.11-2.34-3.07-2.03-3.05,2.47-2.71,3.57-.74.05.03,3.63.56,3.65-.35,3.63.14,3.63-.39,3.64-.08,3.61.65,3.62-.35,3.64.09,3.61-.03h3.62l3.62.17,3.62-.48,3.61-.03,3.62.13,3.62.3,3.53.54,2.8,2.22,2.17,2.87,1.33,3.4.68,3.76,1.13,3.64,1.05,3.66,1.03,3.68,1.28,3.59,1.52,3.51,2.01,3.26,2.08,3.21,1.6,3.47,2.08,3.19,2.08,3.22,2.84,2.61,2.43,2.96,2.87,2.55,3.03,2.37,3.61,1.42,3.26,1.99,3.65,1.14,3.63,1.18,3.77.83,3.86-.48,3.68.34,3.49-1.18,3.59-.72,3.42-1.32,3.14-1.89,2.98-2.08,3.12-1.91,2.42-2.77,2.89-2.25,2.61-2.58,2.14-2.96,2.25-2.88,1.59-3.31,2.07-2.99,1.61-3.25,1.92-3.1,1.82-3.18,1.57-3.31.74-3.61,1.08-3.46,1.12-3.46.45-3.61,1.04-3.48,1.99-3,2.91-2.19,3.69.38,3.69-.5h3.7l3.68.06,3.67.11,3.68.07,3.68.36,3.68-.09,3.68-.25,3.68.19,3.67-.03,3.68-.16,3.68.42,3.68-.36,3.68-.12,3.67.12,3.29,1,1.39,2.7-1.34,3.25Z"/>
      <polygon class="cls-1" points="259.69 69.84 258.35 73.09 255.89 75.72 253.45 78.37 250.76 80.8 248.5 83.64 245.99 86.25 243.07 88.44 240.66 91.16 237.66 93.23 235.07 95.75 232.28 98.04 229.64 100.51 226.86 102.8 223.7 104.58 220.68 106.53 217.68 108.51 214.75 110.6 211.27 112.12 208.36 114.6 204.79 115.93 201.33 117.45 198.21 119.66 194.82 121.34 191.13 122.31 187.86 124.28 184.19 125.26 180.71 126.75 177.14 128.02 173.49 129.02 169.69 129.4 166 130.16 162.32 131.03 158.58 131.54 154.81 131.81 151.08 132.42 147.29 132.47 143.52 132.63 139.79 132.48 136.02 132.74 132.26 132.56 128.57 131.82 124.88 131.19 121.27 130.15 117.53 129.76 113.93 128.72 110.34 127.66 106.64 127.02 103.18 125.56 99.55 124.61 96.16 123 92.65 121.71 89.21 120.25 85.79 118.75 82.65 116.65 79.07 115.47 75.75 113.73 72.48 111.92 69.28 109.99 66.39 107.86 63.03 106.5 60.13 104.36 57.09 102.47 54.07 100.55 50.88 98.43 48.04 95.82 45.33 93.1 42.39 90.62 39.47 88.14 36.3 85.92 33.51 83.3 31.19 80.19 28.34 77.62 25.07 75.51 22.73 72.44 20.7 69.39 23.17 66.68 26.74 65.94 26.79 65.97 30.42 66.53 34.07 66.18 37.7 66.32 41.33 65.93 44.97 65.85 48.58 66.5 52.2 66.15 55.84 66.24 59.45 66.21 63.07 66.21 66.69 66.38 70.31 65.9 73.92 65.87 77.54 66 81.16 66.3 84.69 66.84 87.49 69.06 89.66 71.93 90.99 75.33 91.67 79.09 92.8 82.73 93.85 86.39 94.88 90.07 96.16 93.66 97.68 97.17 99.69 100.43 101.77 103.64 103.37 107.11 105.45 110.3 107.53 113.52 110.37 116.13 112.8 119.09 115.67 121.64 118.7 124.01 122.31 125.43 125.57 127.42 129.22 128.56 132.85 129.74 136.62 130.57 140.48 130.09 144.16 130.43 147.65 129.25 151.24 128.53 154.66 127.21 157.8 125.32 160.78 123.24 163.9 121.33 166.32 118.56 169.21 116.31 171.82 113.73 173.96 110.77 176.21 107.89 177.8 104.58 179.87 101.59 181.48 98.34 183.4 95.24 185.22 92.06 186.79 88.75 187.53 85.14 188.61 81.68 189.73 78.22 190.18 74.61 191.22 71.13 193.21 68.13 196.12 65.94 199.81 66.32 203.5 65.82 207.2 65.82 210.88 65.88 214.55 65.99 218.23 66.06 221.91 66.42 225.59 66.33 229.27 66.08 232.95 66.27 236.62 66.24 240.3 66.08 243.98 66.5 247.66 66.14 251.34 66.02 255.01 66.14 258.3 67.14 259.69 69.84"/>
      <polygon class="cls-1" points="257.29 52.82 253.67 54.46 249.9 53.87 246.14 54.37 242.38 54.37 238.63 54.31 234.88 54.2 231.12 54.13 227.37 53.77 223.61 53.86 219.86 54.11 216.11 53.92 212.35 53.95 208.6 54.11 204.85 53.69 201.09 54.05 197.34 54.17 193.59 54.05 189.85 53.74 186.09 53.92 182.34 54.22 178.6 54.04 174.86 54.04 171.13 53.8 167.37 54.22 163.62 54.35 159.86 53.96 156.11 54.35 152.36 53.9 148.6 54.11 144.85 54.08 141.1 54.32 137.34 54.47 133.59 54.13 129.84 54.08 126.08 54.08 122.33 54.29 118.58 53.77 114.84 54.46 111.1 53.9 107.34 53.65 103.59 54.25 99.84 54.34 96.08 53.75 92.35 54.35 88.61 53.99 84.87 54.26 81.13 54.41 77.38 54.38 73.62 53.83 69.87 53.78 66.13 53.96 62.39 53.9 58.65 53.72 54.92 54.01 51.18 53.86 47.44 53.96 43.7 53.87 39.95 54.34 36.19 54.49 32.46 54.2 28.72 54.13 26.05 52.64 27.54 49.66 30.42 47.36 33.34 45.13 36.04 42.57 39.25 40.71 42.18 38.43 45.5 36.75 48.65 34.82 51.9 33.07 55.17 31.35 58.74 30.24 61.88 28.22 65.29 26.77 68.72 25.4 72.22 24.19 75.84 23.32 79.19 21.67 82.83 20.91 86.38 19.86 89.92 18.78 93.45 17.63 97.11 17.02 100.8 16.57 104.42 15.79 108.05 15.07 111.64 14.02 115.32 13.56 119.07 13.81 122.74 13.36 126.37 12.34 130.11 12.69 133.79 11.94 137.49 12.16 141.2 12.03 141.2 11.94 144.9 12.06 148.57 12.51 152.25 12.72 155.92 13.06 159.65 12.73 163.29 13.5 166.96 13.78 170.58 14.58 174.17 15.46 177.92 15.5 181.41 16.82 185.13 17.12 188.63 18.35 192.15 19.4 195.76 20.24 199.31 21.21 202.71 22.71 206.35 23.47 209.66 25.18 213 26.73 216.48 27.95 219.82 29.52 223.39 30.6 226.63 32.37 230.01 33.86 233.13 35.84 236.19 37.91 239.28 39.9 242.71 41.32 245.85 43.27 248.83 45.43 252.06 47.24 254.94 49.53 257.29 52.82"/>
    </g>
  </g>
</svg>