<?xml version="1.0" encoding="UTF-8"?>
<svg id="Layer_2" data-name="Layer 2" xmlns="http://www.w3.org/2000/svg" viewBox="0 0 281 145">
  <g id="Layer_1-2" data-name="Layer 1">
    <path d="M140.96.39l.24-.03,3.69-.06,3.68.43,3.72-.39,3.65.85,3.75-.37,3.69.35,3.57,1.18,3.65.58,3.72.13,3.65.6,3.65.67,3.54,1.12,3.54,1.09,3.65.69,3.59.88,3.54,1.05,3.42,1.44,3.68.69,3.36,1.59,3.44,1.36,3.44,1.35,3.42,1.39,3.62.94,3.15,1.99,3.36,1.51,3.33,1.6,3.35,1.56,3.12,1.98,3.39,1.51,3.05,2.11,3.39,1.51,3.09,2.04,3,2.14,3.27,1.75,2.79,2.46,2.91,2.26,2.71,2.5,2.92,2.22,3.07,2.07,2.19,1.49-.24.28c2.01.75,4.67,4.04,5.28,5.24v8.24c0,1.8-5.02,6.74-6.78,8.24l.09.04-2.43,1.4-1.76,3.22-2.32,2.78-2.95,2.22-2.49,2.62-2.14,2.95-2.47,2.65-2.5,2.62-2.82,2.32-2.77,2.37-2.46,2.68-2.59,2.53-2.7,2.43-2.98,2.1-2.49,2.68-3.12,1.83-3,1.98-2.99,2.01-2.98,2.01-2.65,2.47-3.44,1.63-3.16,2.02-3.24,1.9-3.24,1.92-3.48,1.47-3.26,1.92-3.56,1.27-3.3,1.87-3.54,1.3-3.59,1.14-3.45,1.57-3.72.74-3.65.94-3.72.63-3.65.96-3.62,1.15-3.74.51-3.74.6-3.78.24-3.75.57h-7.58l-3.74.12-3.74-.21-3.68-.82-3.71-.4-3.71-.33-3.72-.31-3.6-1.02-3.77-.18-3.5-1.41-3.63-.84-3.75-.43-3.5-1.35-3.36-1.71-3.75-.6-3.3-1.81-3.53-1.21-3.42-1.47-3.36-1.62-3.2-1.93-3.38-1.57-3.38-1.57-3.2-1.9-3.27-1.77-2.8-2.35-3.26-1.66-2.82-2.34-3.12-1.9-3.27-1.65-2.91-2.34-2.92-2.29-2.76-2.5-3.01-2.2-2.89-2.35-2.53-2.74-2.64-2.62-2.77-2.49-2.94-2.34-2.35-2.9-2.76-2.52-2.65-2.62-2.47-2.79-2.77-2.5-2.44-1.93C-1.58,63.44-.12,58.39.62,57.66c.96-.95,2.83-4.02,4.66-6.08l.37-.07,2.82-2.17,2.76-2.46,2.97-2.2,2.62-2.64,2.95-2.23,3.03-2.13,3.23-1.83,2.89-2.32,3.1-2.01,3.48-1.39,3.1-2.01,2.91-2.35,3.6-1.12,3.1-2.04,3.39-1.47,3.12-2.07,3.57-1.09,3.33-1.6,3.48-1.24,3.54-1.08,3.48-1.23,3.24-1.92,3.75-.46,3.47-1.3,3.53-1.14,3.54-1.08,3.62-.78,3.5-1.3,3.71-.41,3.62-.78,3.72-.24,3.54-1.26,3.75.1,3.66-.57,3.62-.99,3.69-.3,3.75.48,3.66-.84,3.71-.06,3.71.39ZM199.81,66.32l-3.69-.37-2.91,2.19-1.99,3-1.04,3.49-.45,3.61-1.12,3.46-1.08,3.46-.74,3.61-1.57,3.31-1.82,3.18-1.91,3.1-1.61,3.25-2.07,3-1.6,3.31-2.25,2.88-2.14,2.97-2.61,2.57-2.89,2.25-2.41,2.77-3.12,1.92-2.98,2.08-3.13,1.89-3.42,1.32-3.59.72-3.5,1.18-3.68-.34-3.86.48-3.77-.82-3.63-1.18-3.65-1.14-3.26-1.99-3.62-1.42-3.03-2.37-2.86-2.55-2.43-2.96-2.85-2.61-2.08-3.22-2.08-3.19-1.6-3.47-2.08-3.21-2-3.26-1.52-3.5-1.28-3.59-1.03-3.68-1.05-3.65-1.13-3.64-.68-3.76-1.33-3.4-2.17-2.88-2.8-2.22-3.53-.54-3.62-.3-3.62-.13-3.62.03-3.62.48-3.62-.17h-3.62l-3.62.03-3.63-.09-3.62.35-3.62-.65-3.63.07-3.63.39-3.63-.13-3.65.34-3.63-.55-.05-.03-3.57.73-2.47,2.71,2.03,3.06,2.34,3.07,3.27,2.11,2.85,2.56,2.32,3.12,2.79,2.62,3.17,2.22,2.92,2.49,2.94,2.47,2.71,2.73,2.83,2.6,3.2,2.13,3.01,1.92,3.05,1.89,2.89,2.14,3.36,1.36,2.89,2.13,3.2,1.93,3.27,1.81,3.32,1.74,3.59,1.18,3.14,2.1,3.42,1.5,3.44,1.47,3.51,1.29,3.39,1.6,3.63.96,3.45,1.45,3.71.64,3.59,1.06,3.6,1.03,3.74.39,3.6,1.05,3.69.63,3.69.73,3.75.18,3.77-.25,3.74.15,3.77-.16,3.78-.05,3.74-.61,3.77-.27,3.74-.51,3.68-.87,3.69-.76,3.8-.37,3.65-1,3.57-1.27,3.48-1.48,3.66-.99,3.27-1.96,3.69-.97,3.39-1.68,3.12-2.22,3.45-1.51,3.57-1.33,2.91-2.49,3.48-1.51,2.93-2.1,3-1.98,3.03-1.95,3.15-1.78,2.79-2.29,2.64-2.47,2.79-2.29,2.59-2.52,3-2.07,2.41-2.73,2.91-2.19,2.52-2.61,2.26-2.84,2.68-2.43,2.44-2.65,2.46-2.64,1.34-3.25-1.39-2.7-3.29-1-3.68-.12-3.68.12-3.68.36-3.68-.42-3.68.17-3.68.03-3.68-.19-3.68.25-3.68.09-3.68-.36-3.68-.08-3.68-.1-3.68-.06h-3.69l-3.69.49ZM141.2,12.03l-3.71.13-3.71-.23-3.68.75-3.74-.34-3.63,1.02-3.66.45-3.75-.25-3.68.47-3.59,1.05-3.63.72-3.62.78-3.69.45-3.66.61-3.53,1.15-3.54,1.08-3.54,1.05-3.65.76-3.35,1.65-3.62.87-3.5,1.21-3.44,1.36-3.41,1.45-3.14,2.02-3.57,1.11-3.27,1.72-3.26,1.75-3.15,1.93-3.32,1.68-2.93,2.28-3.21,1.86-2.7,2.56-2.92,2.23-2.88,2.31-1.49,2.98,2.67,1.48,3.74.08,3.74.28,3.75-.15,3.75-.47,3.74.09,3.74-.11,3.74.15,3.74-.28,3.74.18,3.74.06,3.74-.18,3.75.05,3.75.55,3.75.03,3.74-.15,3.74-.27,3.74.36,3.74-.6,3.75.58,3.75-.09,3.75-.6,3.75.25,3.74.55,3.74-.69,3.75.52,3.75-.21h3.75l3.75.04,3.75.35,3.75-.15,3.75-.24,3.75.03,3.75-.21,3.75.45,3.75-.39,3.75.39,3.75-.13,3.75-.42,3.74.24h3.74l3.74.18,3.75-.3,3.75-.18,3.74.31,3.75.12,3.75-.12,3.75-.36,3.75.42,3.75-.17,3.75-.03,3.75.19,3.75-.25,3.75-.09,3.75.36,3.75.08,3.75.1,3.75.06h3.75l3.77-.49,3.77.58,3.62-1.63-2.35-3.29-2.88-2.29-3.23-1.81-2.99-2.16-3.14-1.95-3.44-1.42-3.09-1.99-3.06-2.07-3.12-1.98-3.38-1.5-3.24-1.77-3.57-1.08-3.33-1.57-3.48-1.21-3.35-1.56-3.3-1.71-3.65-.76-3.39-1.5-3.56-.97-3.6-.84-3.53-1.05-3.5-1.23-3.72-.3-3.48-1.32-3.75-.04-3.59-.88-3.62-.79-3.68-.29-3.63-.76-3.74.33-3.66-.34-3.68-.21-3.68-.45-3.69-.12v.09Z"/>
  </g>
</svg>