<?xml version="1.0" encoding="UTF-8"?>
<svg id="Layer_2" data-name="Layer 2" xmlns="http://www.w3.org/2000/svg" viewBox="0 0 266.99 221.38">
  <g id="Layer_1-2" data-name="Layer 1">
    <g>
      <polygon points="266.67 76.65 266.54 74.1 266.15 71.58 265.6 69.11 265.04 66.81 264.57 64.48 263.78 62.24 263.2 59.94 262.25 57.75 261.43 55.53 260.71 53.27 260.15 50.94 258.92 48.89 257.83 46.75 256.94 44.52 255.84 42.38 254.73 40.25 253.57 38.13 252.03 36.26 250.07 34.87 247.92 33.73 245.49 33.53 243.17 32.97 240.77 32.63 238.41 33.26 235.99 33.35 233.64 33.87 231.33 34.56 229.13 35.53 226.83 36.23 224.61 37.14 222.48 38.29 220.23 39.11 218.03 40.1 215.54 40.63 213.21 41.6 210.75 42.25 208.41 43.22 206.02 44.03 203.56 44.64 201.3 45.85 198.89 46.62 196.4 47.16 194.08 48.18 191.72 49.1 189.34 49.95 186.89 50.61 184.56 51.62 182.04 52.12 179.65 52.95 177.34 54.02 175.02 55.05 172.64 55.88 170.17 56.52 167.77 57.32 165.56 58.65 163.05 59.18 160.71 60.15 158.4 61.17 156.01 62.14 153.66 63.22 151.54 64.77 149.12 65.68 146.77 66.73 144.37 67.69 141.96 68.64 139.38 68.93 136.82 69.13 134.25 69.28 131.67 69.36 129.2 68.7 126.66 68.5 124.34 67.47 121.96 66.62 119.72 65.46 117.29 64.71 115.01 63.65 112.69 62.64 110.54 61.26 108.12 60.5 105.75 59.77 103.59 58.53 101.32 57.59 99.05 56.64 96.74 55.8 94.45 54.88 92.2 53.88 89.79 53.28 87.44 52.5 85.28 51.26 82.91 50.57 80.59 49.71 78.31 48.8 76.09 47.7 73.71 47 71.55 45.75 69.15 45.12 66.84 44.26 64.6 43.22 62.37 42.14 59.93 41.61 57.75 40.4 55.32 39.81 53.09 38.72 50.77 37.56 48.27 36.81 45.92 35.72 43.52 34.73 41.18 33.64 38.81 32.6 36.31 31.92 33.88 31.04 31.32 30.76 28.78 30.54 26.25 30.83 23.94 31.36 21.89 32.57 19.9 33.9 18.19 35.6 16.58 37.38 15 39.22 13.78 41.3 12.48 43.33 11.51 45.54 10.33 47.71 8.86 49.73 7.89 52.02 6.79 54.24 5.73 56.48 4.83 58.79 4.24 61.21 3.47 63.56 2.6 65.89 1.74 68.26 1.24 70.75 .56 73.18 0 75.65 .05 78.19 .06 80.71 .5 83.19 .58 85.74 1.24 88.19 2.3 90.39 4.03 92.08 5.86 93.69 7.99 94.87 10.33 95.56 12.54 96.54 14.85 97.27 17.11 98.17 19.53 98.47 21.85 99.18 24.26 99.52 26.54 100.48 28.95 100.81 31.39 101.01 33.79 101.87 36.27 102.38 38.74 102.95 41.22 103.46 43.69 104.07 46.2 104.46 48.62 105.12 51.1 105.5 53.58 105.9 56.01 106.54 58.39 107.35 60.83 107.92 63.08 109.07 65.56 109.61 67.73 110.91 69.87 112.25 71.43 114.23 73.12 116.11 73.57 118.63 74.12 121.07 74.16 123.59 73.36 125.99 72.78 128.45 71.84 130.8 70.56 132.98 69.08 135.04 67.75 137.19 66.26 139.25 64.65 141.2 62.72 142.88 61.01 144.73 59.31 146.59 57.73 148.44 56.16 150.31 54.52 152.09 52.83 153.84 51.14 155.6 49.47 157.37 47.86 159.15 46.02 160.72 44.65 162.73 42.83 164.31 41.2 166.07 39.63 167.89 37.84 169.5 36.58 171.57 34.8 173.23 33.63 175.34 32.81 177.59 31.97 179.85 31.87 182.44 32.66 184.89 33.36 187.32 34.35 189.67 35.78 191.79 37.46 193.72 39.19 195.6 40.62 197.74 42.45 199.53 44.25 201.37 45.99 203.27 47.96 204.94 49.8 206.76 51.97 208.17 54.07 209.68 56.22 211.1 58.26 212.7 60.28 214.34 62.74 215.23 64.66 216.87 66.99 217.8 69.15 219.01 71.37 220.12 73.78 220.72 76.18 221.38 78.65 221.08 81.06 220.78 83.19 219.59 85.3 218.46 87.25 217.02 88.94 215.31 90.41 213.4 92.1 211.66 93.24 209.53 94.48 207.47 95.64 205.37 97.21 203.51 98.47 201.47 99.36 199.2 100.94 197.36 102 195.25 103.4 193.35 104.59 191.34 105.51 189.14 107.04 187.32 108.18 185.26 109.45 183.28 110.71 181.29 111.98 179.07 113.24 176.83 114.8 174.8 116.47 172.85 118.03 170.82 119.5 168.73 120.95 166.61 122.87 164.89 124.58 162.99 126.27 161.04 128.32 159.48 130.58 158.21 133.08 157.9 135.54 157.43 137.97 158.06 140.16 159.22 142.37 160.36 144.31 161.95 145.8 163.97 147.43 165.86 148.39 168.21 150.09 170.08 151.21 172.31 152.57 174.4 153.47 176.75 154.78 178.86 156.01 181.01 157.47 183.22 158.78 185.53 160.07 187.86 161.52 190.08 163.26 192.12 164.47 194.49 166.06 196.62 167.38 198.75 168.77 200.84 169.94 203.06 170.92 205.39 172.26 207.51 173.67 209.58 175.39 211.43 176.62 213.63 178.26 215.53 180.02 217.33 182.12 218.74 184.54 219.36 186.99 220.09 189.54 220.19 192.09 220 194.48 219.07 196.88 218.3 199.37 217.62 201.61 216.41 203.86 215.22 206.08 214.02 208.14 212.55 210.06 210.9 212.26 209.65 214.1 207.91 216.33 206.67 218.06 204.81 220.3 203.55 222.15 201.83 223.88 200.01 225.73 198.27 227.43 196.39 228.86 194.27 230.62 192.43 231.95 190.26 233.29 188.11 233.96 185.7 234.48 183.33 234.34 180.91 234.21 178.45 233.38 176.14 232.22 173.99 230.67 172.11 229.53 169.92 227.69 168.3 226.14 166.42 224.36 164.76 222.55 163.14 220.82 161.43 219.06 159.75 217.66 157.74 215.99 155.72 214.26 153.76 212.32 151.98 210.72 149.9 208.99 147.93 207.02 146.17 205.33 144.25 203.94 142.09 202.14 140.25 200.48 138.3 199.24 136.03 197.62 134.05 196.33 131.83 195.21 129.53 193.91 127.34 192.66 125.11 191.51 122.8 191.04 120.28 191.03 117.79 191.54 115.38 192.62 113.15 194.29 111.3 196.23 109.71 198.52 108.68 200.78 107.63 203.13 106.77 205.54 106.09 208 105.63 210.4 104.93 212.8 104.22 215.26 103.76 217.69 103.19 220.12 102.66 222.54 102.27 224.81 101.32 227.19 100.79 229.55 100.17 231.91 99.53 234.27 98.89 236.7 98.5 238.9 97.47 241.23 96.96 243.57 96.46 245.82 95.61 248.14 95.04 250.48 94.55 252.69 93.63 255.01 93.08 257.16 92.05 259.46 91.29 261.3 89.74 263.2 88.32 264.96 86.48 266.08 84.19 266.62 81.7 266.99 79.18 266.67 76.65"/>
      <polygon points="101.2 14.53 101.7 16.92 102.31 19.29 103.06 21.62 103.88 23.93 104.72 26.23 105.66 28.49 106.77 30.64 107.97 32.75 109.39 34.71 110.86 36.65 112.49 38.45 114.11 40.26 115.91 41.9 117.81 43.41 119.87 44.7 121.96 45.94 124.17 46.93 126.45 47.76 128.8 48.41 131.21 48.72 133.64 48.83 136.08 48.7 138.5 48.37 140.83 47.63 143.12 46.78 145.33 45.74 147.42 44.49 149.41 43.07 151.37 41.6 153.07 39.85 154.76 38.09 156.38 36.26 157.86 34.31 159.18 32.25 160.36 30.12 161.42 27.93 162.41 25.69 163.25 23.39 164.13 21.1 164.92 18.77 165.62 16.42 166.22 14.04 166.84 11.67 167.25 9.25 167.29 6.8 167.02 4.37 165.74 2.33 163.48 1.32 161.06 .76 158.59 .41 156.1 .38 153.6 .29 151.11 .34 148.61 .43 146.11 .43 143.62 .58 141.13 .62 138.63 .72 136.13 .73 133.63 .68 131.13 .66 128.64 .75 126.12 .63 123.61 .58 121.1 .42 118.58 .35 116.08 .14 113.57 .11 111.06 0 108.55 .06 106.04 .27 103.64 1 101.67 2.54 100.75 4.81 100.51 7.24 100.5 9.69 100.76 12.12 101.2 14.53"/>
    </g>
  </g>
</svg>